<svg xmlns="http://www.w3.org/2000/svg" width="137.924" height="27.298" viewBox="0 0 137.924 27.298">
  <g id="_4" data-name="4" transform="translate(-28.79 -28.828)">
    <path id="Path_17" data-name="Path 17" d="M99.8,42.086A6.3,6.3,0,0,0,97,42.84v8.609a18.158,18.158,0,0,0,2.011.076c2.734,0,3.108-1.252,3.108-3V44.414C102.123,43.123,101.7,42.086,99.8,42.086Zm-18.154-.47c-1.9,0-2.329,1.041-2.329,2.331v.725h4.656v-.725C83.969,42.658,83.537,41.616,81.643,41.616ZM46.475,50.577a1.359,1.359,0,0,0,1.544,1.55,5.659,5.659,0,0,0,2.646-.753V49.332H48.173C46.993,49.332,46.475,49.551,46.475,50.577Zm70.981-8.491c-1.9,0-2.558,1.037-2.558,2.327v4.711c0,1.294.658,2.334,2.558,2.334s2.558-1.04,2.558-2.334V44.414C120.013,43.123,119.35,42.086,117.456,42.086ZM37.165,55.859H31.58V42.342H28.79V37.685h2.791v-2.8c0-3.8,1.575-6.059,6.051-6.059h3.727v4.659H39.029c-1.743,0-1.858.651-1.858,1.866l-.007,2.331h4.22l-.493,4.658H37.165V55.859Zm19.085.035H51.6l-.2-1.177a10.668,10.668,0,0,1-5.273,1.368c-3.413,0-5.23-2.28-5.23-5.434,0-3.72,2.12-5.048,5.913-5.048h3.86v-.8c0-1.9-.218-2.456-3.138-2.456H42.751l.467-4.658h5.219c6.408,0,7.813,2.024,7.813,7.152V55.894Zm15.827-13.21a26.638,26.638,0,0,0-5.122-.606c-2.5,0-3.26.552-3.26,2.678v4.021c0,2.126.756,2.681,3.26,2.681a26.579,26.579,0,0,0,5.122-.61v4.543a24.686,24.686,0,0,1-5.586.718c-6,0-8.379-3.153-8.379-7.708V45.139c0-4.559,2.383-7.717,8.379-7.717a24.58,24.58,0,0,1,5.586.721v4.541ZM89.553,48.4H79.313v.375c0,2.126.757,2.681,3.26,2.681a32.559,32.559,0,0,0,6.514-.61v4.543a29.362,29.362,0,0,1-6.977.718c-6,0-8.381-3.153-8.381-7.708V44.671c0-3.985,1.769-7.249,7.913-7.249s7.911,3.226,7.911,7.249Zm18.153.086c0,4.4-1.258,7.613-8.88,7.613a42.155,42.155,0,0,1-7.405-.709V30.227L97,29.3v8.8a12.675,12.675,0,0,1,4.189-.676c5.583,0,6.513,2.5,6.513,6.525v4.54Zm17.9.1c0,3.8-1.568,7.481-8.128,7.481s-8.16-3.683-8.16-7.481V44.917c0-3.8,1.6-7.484,8.16-7.484s8.128,3.684,8.128,7.484v3.667Zm17.883,0c0,3.8-1.57,7.481-8.128,7.481s-8.16-3.683-8.16-7.481V44.917c0-3.8,1.6-7.484,8.16-7.484s8.128,3.684,8.128,7.484v3.667Zm18.353,7.276h-6.051l-5.118-8.543v8.543h-5.584V30.227l5.584-.931V45.8l5.118-8.112h6.051l-5.587,8.852Zm-26.5-13.773c-1.9,0-2.555,1.037-2.555,2.327v4.711c0,1.294.658,2.334,2.555,2.334s2.564-1.04,2.564-2.334V44.414c0-1.291-.67-2.327-2.564-2.327Zm29.687,10.585a1.71,1.71,0,1,1-.007,0Zm-.007.268a1.462,1.462,0,0,0,.007,2.919,1.462,1.462,0,0,0,0-2.919ZM164.7,55.4h-.306V53.475a3.531,3.531,0,0,1,.544-.045,1.022,1.022,0,0,1,.6.145.464.464,0,0,1,.174.4.478.478,0,0,1-.373.469v.015c.168.031.282.183.321.466a1.6,1.6,0,0,0,.121.476h-.321a1.448,1.448,0,0,1-.13-.492.359.359,0,0,0-.414-.336H164.7V55.4Zm0-1.065h.222c.252,0,.465-.093.465-.331,0-.169-.121-.336-.465-.336a1.586,1.586,0,0,0-.222.015v.652Z" fill="#3b5998"/>
  </g>
</svg>
