<svg width="40" height="40" viewBox="0 0 40 40" fill="none" xmlns="http://www.w3.org/2000/svg">
<g clip-path="url(#clip0_4502_46083)">
<mask id="mask0_4502_46083" style="mask-type:alpha" maskUnits="userSpaceOnUse" x="0" y="0" width="40" height="40">
<rect width="40" height="40" fill="#E9EAF3"/>
</mask>
<g mask="url(#mask0_4502_46083)">
<rect x="-19.3088" y="-19.3081" width="78.6162" height="78.6162" fill="#212C4D"/>
<path fill-rule="evenodd" clip-rule="evenodd" d="M13.0326 9.56331C13.4846 9.37813 14.6894 9.00776 15.8921 9.00776H23.6371C24.209 9.00776 25.5751 9.08631 26.66 9.5569C25.668 8.38887 25.5691 7.2365 25.5347 6.83625C25.534 6.82776 25.5333 6.81961 25.5326 6.8118C25.5068 6.51513 25.4152 5.24479 25.3709 4.63032L25.3709 4.62973L25.3692 4.60592C25.3433 4.24644 25.1077 3.94342 24.3561 3.779C23.3104 3.55024 20.3365 3.01103 15.8267 3.64828C14.3534 3.94927 14.3546 4.34241 14.356 4.84258C14.3561 4.85832 14.3561 4.87417 14.3561 4.89012C14.3561 5.28533 14.2581 6.9326 14.0456 7.89664C13.9628 8.27247 13.5881 9.00776 13.0326 9.56331ZM12.8738 30.5105C13.3505 30.7649 14.1317 31.1817 15.8022 31.2321C18.4155 31.3109 20.2337 31.3052 21.9269 31.3C22.3405 31.2987 22.7467 31.2974 23.1551 31.2974C23.1814 31.2974 23.2101 31.2975 23.2412 31.2977C23.886 31.3 25.5349 31.3059 27.1094 30.4641C25.6309 31.4742 25.595 32.7203 25.58 33.2391C25.5783 33.2993 25.5769 33.3498 25.5734 33.3889C25.5473 33.6896 25.4536 34.9739 25.4101 35.5785C25.3841 35.938 25.165 36.2637 24.4133 36.4282C23.3676 36.6569 20.3937 37.1961 15.8839 36.5589C14.4107 36.2579 14.4118 35.8647 14.4132 35.3646C14.4133 35.3488 14.4133 35.333 14.4133 35.317C14.4133 34.9218 14.3643 33.4543 14.0702 32.2942C13.9756 31.9211 13.4493 30.9053 12.5833 30.3661C12.6685 30.401 12.7629 30.4514 12.8738 30.5105Z" fill="#080F25"/>
<path fill-rule="evenodd" clip-rule="evenodd" d="M15.4673 8.89139C12.5795 8.89139 10.2385 11.2324 10.2385 14.1201V26.277C10.2385 29.1648 12.5795 31.5058 15.4673 31.5058H24.1914C27.0792 31.5058 29.4202 29.1648 29.4202 26.277V17.7625C29.5319 17.792 29.8069 17.8159 29.8934 17.7562C29.9106 17.7443 29.9294 17.7385 29.9492 17.7324C30.0357 17.7056 30.1396 17.6735 30.2025 17.1004C30.2798 16.3966 30.218 14.6533 30.1561 14.3654C30.1424 14.3012 30.1162 14.2479 30.0836 14.2041C29.9531 14.029 29.7051 14.0292 29.4845 14.0295C29.4766 14.0295 29.4686 14.0295 29.4607 14.0295C29.4465 14.0295 29.4328 14.0306 29.4195 14.0329C29.3729 11.1854 27.0501 8.89139 24.1914 8.89139H15.4673Z" fill="#7E89AC"/>
<rect x="11.0554" y="9.70959" width="17.545" height="20.978" rx="4.34641" fill="#080F25"/>
<rect x="11.6799" y="10.2909" width="16.3329" height="19.9521" rx="3.54575" fill="#37446B"/>
</g>
</g>
<defs>
<clipPath id="clip0_4502_46083">
<rect width="40" height="40" fill="white"/>
</clipPath>
</defs>
</svg>
