<svg width="48" height="48" viewBox="0 0 48 48" fill="none" xmlns="http://www.w3.org/2000/svg">
<g clip-path="url(#clip0_4515_47763)">
<circle opacity="0.18" cx="24" cy="24" r="24" fill="#6C72FF"/>
<circle opacity="0.4" cx="22.1445" cy="17" r="8.94141" fill="#6C72FF"/>
<path d="M31.0642 25.9412V24.0753C31.0642 23.5804 30.8676 23.1058 30.5177 22.7559C30.1677 22.406 29.6931 22.2094 29.1982 22.2094C28.7034 22.2094 28.2288 22.406 27.8788 22.7559C27.5289 23.1058 27.3323 23.5804 27.3323 24.0753V23.1461C27.3323 22.6512 27.1357 22.1766 26.7858 21.8267C26.4359 21.4767 25.9613 21.2801 25.4664 21.2801C24.9715 21.2801 24.4969 21.4767 24.147 21.8267C23.797 22.1766 23.6004 22.6512 23.6004 23.1461V15.6823C23.6004 15.1875 23.4039 14.7129 23.0539 14.3629C22.704 14.013 22.2294 13.8164 21.7345 13.8164C21.2396 13.8164 20.765 14.013 20.4151 14.3629C20.0652 14.7129 19.8686 15.1875 19.8686 15.6823V26.8779C18.8788 26.8779 17.9296 27.2711 17.2298 27.971C16.5299 28.6708 16.1367 29.62 16.1367 30.6098C16.1364 32.4303 16.7053 34.2053 17.7638 35.6864L19.1322 37.5958C19.6497 38.3202 20.3324 38.9106 21.1238 39.3182C21.9152 39.7258 22.7924 39.9388 23.6825 39.9395H28.4257C29.2626 39.9395 30.0913 39.7746 30.8644 39.4542C31.6375 39.1338 32.34 38.6643 32.9315 38.0723C33.5231 37.4804 33.9923 36.7777 34.3122 36.0044C34.6321 35.2311 34.7965 34.4023 34.796 33.5654V25.9412C34.796 25.4464 34.5994 24.9717 34.2495 24.6218C33.8996 24.2719 33.425 24.0753 32.9301 24.0753C32.4352 24.0753 31.9606 24.2719 31.6107 24.6218C31.2608 24.9717 31.0642 25.4464 31.0642 25.9412Z" fill="#6C72FF" stroke="#6C72FF" stroke-width="1.86593" stroke-linecap="round" stroke-linejoin="round"/>
<path d="M19.8691 26.8711V29.67Z" fill="#6C72FF"/>
<path d="M19.8691 26.8711V29.67" stroke="#6C72FF" stroke-width="1.86593" stroke-linecap="round" stroke-linejoin="round"/>
<path d="M23.5996 25.9421V24.0762Z" fill="#6C72FF"/>
<path d="M23.5996 25.9421V24.0762" stroke="#6C72FF" stroke-width="1.86593" stroke-linecap="round" stroke-linejoin="round"/>
<path d="M27.332 25.9421V24.0762Z" fill="#6C72FF"/>
<path d="M27.332 25.9421V24.0762" stroke="#6C72FF" stroke-width="1.86593" stroke-linecap="round" stroke-linejoin="round"/>
</g>
<defs>
<clipPath id="clip0_4515_47763">
<rect width="48" height="48" fill="white"/>
</clipPath>
</defs>
</svg>
