<svg width="10" height="12" viewBox="0 0 10 12" fill="none" xmlns="http://www.w3.org/2000/svg">
<path fill-rule="evenodd" clip-rule="evenodd" d="M2.08696 2.62712C2.06139 2.62712 2.03607 2.63216 2.01246 2.64195C1.98884 2.65174 1.96738 2.66609 1.94931 2.68417C1.93124 2.70226 1.91691 2.72373 1.90714 2.74736C1.89738 2.77098 1.89236 2.7963 1.89238 2.82187L1.89238 3.08655C1.89238 3.41793 1.62375 3.68655 1.29238 3.68655C0.961012 3.68655 0.692383 3.41793 0.692383 3.08655V2.82263C0.692383 2.82255 0.692383 2.82271 0.692383 2.82263C0.69229 2.63957 0.72824 2.45805 0.798183 2.28888C0.868194 2.11954 0.970891 1.96565 1.10041 1.83602C1.22992 1.70639 1.38371 1.60356 1.55299 1.5334C1.72227 1.46324 1.90371 1.42712 2.08696 1.42712H7.91382C8.09707 1.42712 8.27851 1.46324 8.44779 1.5334C8.61707 1.60356 8.77086 1.70639 8.90037 1.83602C9.02989 1.96565 9.13259 2.11953 9.2026 2.28888C9.27261 2.45822 9.30856 2.6397 9.3084 2.82294V3.08726C9.3084 3.41863 9.03977 3.68726 8.7084 3.68726C8.37703 3.68726 8.1084 3.41863 8.1084 3.08726V2.8224C8.10842 2.79684 8.1034 2.77098 8.09364 2.74736C8.08387 2.72373 8.06954 2.70226 8.05147 2.68417C8.0334 2.66609 8.01194 2.65174 7.98832 2.64195C7.96471 2.63216 7.93939 2.62712 7.91382 2.62712H2.08696Z" fill="white"/>
<path fill-rule="evenodd" clip-rule="evenodd" d="M4.99941 1.42712C5.33078 1.42712 5.59941 1.69575 5.59941 2.02712V9.97285C5.59941 10.3042 5.33078 10.5729 4.99941 10.5729C4.66804 10.5729 4.39941 10.3042 4.39941 9.97285V2.02712C4.39941 1.69575 4.66804 1.42712 4.99941 1.42712Z" fill="white"/>
<path fill-rule="evenodd" clip-rule="evenodd" d="M2.81152 9.97244C2.81152 9.64107 3.08015 9.37244 3.41152 9.37244H6.58982C6.92119 9.37244 7.18982 9.64107 7.18982 9.97244C7.18982 10.3038 6.92119 10.5724 6.58982 10.5724H3.41152C3.08015 10.5724 2.81152 10.3038 2.81152 9.97244Z" fill="white"/>
</svg>
