<svg width="20" height="20" viewBox="0 0 20 20" fill="none" xmlns="http://www.w3.org/2000/svg">
<g clip-path="url(#clip0_4515_47753)">
<circle opacity="0.18" cx="10" cy="10" r="10" fill="#9A91FB"/>
<path d="M12.5107 9.45975V8.62284C12.5107 8.40087 12.4226 8.188 12.2656 8.03105C12.1087 7.8741 11.8958 7.78592 11.6738 7.78592C11.4519 7.78592 11.239 7.8741 11.082 8.03105C10.9251 8.188 10.8369 8.40087 10.8369 8.62284V8.20605C10.8369 7.98409 10.7487 7.77122 10.5918 7.61427C10.4348 7.45732 10.222 7.36914 10 7.36914C9.77804 7.36914 9.56516 7.45732 9.40821 7.61427C9.25126 7.77122 9.16309 7.98409 9.16309 8.20605V4.8584C9.16309 4.63644 9.07491 4.42356 8.91796 4.26661C8.76101 4.10966 8.54814 4.02148 8.32617 4.02148C8.10421 4.02148 7.89134 4.10966 7.73438 4.26661C7.57743 4.42356 7.48926 4.63644 7.48926 4.8584V9.87988C7.04533 9.87988 6.61959 10.0562 6.30568 10.3701C5.99178 10.684 5.81543 11.1098 5.81543 11.5537C5.8153 12.3702 6.07047 13.1664 6.54522 13.8307L7.15896 14.6871C7.39106 15.012 7.6973 15.2768 8.05225 15.4596C8.40721 15.6424 8.80064 15.738 9.19991 15.7383H11.3273C11.7027 15.7383 12.0744 15.6643 12.4211 15.5206C12.7679 15.3769 13.083 15.1663 13.3483 14.9008C13.6136 14.6353 13.8241 14.3202 13.9676 13.9733C14.111 13.6265 14.1848 13.2547 14.1846 12.8794V9.45975C14.1846 9.23779 14.0964 9.02492 13.9394 8.86796C13.7825 8.71101 13.5696 8.62284 13.3477 8.62284C13.1257 8.62284 12.9128 8.71101 12.7559 8.86796C12.5989 9.02492 12.5107 9.23779 12.5107 9.45975Z" fill="#6C72FF" stroke="#6C72FF" stroke-width="0.836914" stroke-linecap="round" stroke-linejoin="round"/>
<path d="M7.48926 9.8777V11.1331Z" fill="#6C72FF"/>
<path d="M7.48926 9.8777V11.1331" stroke="#6C72FF" stroke-width="0.836914" stroke-linecap="round" stroke-linejoin="round"/>
<path d="M9.16309 9.45925V8.62233Z" fill="#6C72FF"/>
<path d="M9.16309 9.45925V8.62233" stroke="#6C72FF" stroke-width="0.836914" stroke-linecap="round" stroke-linejoin="round"/>
<path d="M10.8369 9.45925V8.62233Z" fill="#6C72FF"/>
<path d="M10.8369 9.45925V8.62233" stroke="#6C72FF" stroke-width="0.836914" stroke-linecap="round" stroke-linejoin="round"/>
</g>
<defs>
<clipPath id="clip0_4515_47753">
<rect width="20" height="20" fill="white"/>
</clipPath>
</defs>
</svg>
