<svg width="48" height="48" viewBox="0 0 48 48" fill="none" xmlns="http://www.w3.org/2000/svg">
<g clip-path="url(#clip0_4529_47767)">
<circle opacity="0.18" cx="24" cy="24" r="24" fill="#6C72FF"/>
<path opacity="0.55" d="M26.536 15.834V31.0439C26.536 32.7943 25.1177 34.2126 23.3673 34.2126H14.4949C12.7445 34.2126 11.3262 32.7943 11.3262 31.0439V15.834C11.3262 14.0836 12.7445 12.6653 14.4949 12.6653H23.3673C25.1177 12.6653 26.536 14.0836 26.536 15.834Z" fill="#6C72FF"/>
<path d="M36.2547 23.1723L28.6751 36.4175C27.8006 37.9385 25.874 38.4708 24.353 37.5836L18.5732 34.2121H23.3643C25.1135 34.2121 26.5331 32.7925 26.5331 31.0434V15.8335C26.5331 15.1237 26.2922 14.4519 25.8993 13.9323C26.419 13.9449 26.9513 14.0844 27.433 14.3632L35.0886 18.8248C36.6096 19.6993 37.1166 21.6513 36.2547 23.1723Z" fill="#6C72FF"/>
</g>
<defs>
<clipPath id="clip0_4529_47767">
<rect width="48" height="48" fill="white"/>
</clipPath>
</defs>
</svg>
