<svg width="302" height="301" viewBox="0 0 302 301" fill="none" xmlns="http://www.w3.org/2000/svg">
<g filter="url(#filter0_d)">
<rect x="43" y="42" width="196" height="195" rx="4" fill="white"/>
</g>
<path d="M71.588 86.27C73.088 86.27 74.321 85.889 75.287 85.127C76.259 84.359 76.928 83.333 77.294 82.049L75.665 81.617C75.401 82.577 74.927 83.339 74.243 83.903C73.565 84.461 72.68 84.74 71.588 84.74C70.622 84.74 69.815 84.521 69.167 84.083C68.519 83.645 68.033 83.033 67.709 82.247C67.385 81.461 67.226 80.552 67.232 79.52C67.238 78.482 67.403 77.573 67.727 76.793C68.051 76.007 68.534 75.395 69.176 74.957C69.818 74.519 70.622 74.3 71.588 74.3C72.68 74.3 73.565 74.579 74.243 75.137C74.927 75.695 75.401 76.457 75.665 77.423L77.294 76.991C76.928 75.701 76.259 74.675 75.287 73.913C74.321 73.151 73.088 72.77 71.588 72.77C70.298 72.77 69.2 73.055 68.294 73.625C67.394 74.195 66.71 74.987 66.242 76.001C65.774 77.015 65.54 78.188 65.54 79.52C65.54 80.852 65.774 82.025 66.242 83.039C66.71 84.053 67.394 84.845 68.294 85.415C69.2 85.985 70.298 86.27 71.588 86.27ZM79.2588 86H80.8788V80.879C80.8788 79.751 81.1218 78.914 81.6078 78.368C82.0998 77.822 82.7478 77.549 83.5518 77.549C84.2358 77.549 84.7698 77.72 85.1538 78.062C85.5378 78.404 85.8048 78.848 85.9548 79.394C86.1108 79.94 86.1888 80.519 86.1888 81.131V86H87.8088V80.627C87.8088 80.165 87.7518 79.67 87.6378 79.142C87.5298 78.608 87.3318 78.107 87.0438 77.639C86.7618 77.165 86.3688 76.778 85.8648 76.478C85.3668 76.178 84.7248 76.028 83.9388 76.028C82.5228 76.028 81.4428 76.529 80.6988 77.531V73.04H79.2588V86ZM93.8387 86.252C95.2547 86.252 96.3347 85.751 97.0787 84.749V86H98.5097V76.28H96.8987V81.401C96.8987 82.523 96.6527 83.36 96.1607 83.912C95.6747 84.458 95.0297 84.731 94.2257 84.731C93.5417 84.731 93.0077 84.56 92.6237 84.218C92.2457 83.876 91.9787 83.432 91.8227 82.886C91.6667 82.334 91.5887 81.755 91.5887 81.149V76.28H89.9687V81.653C89.9687 82.115 90.0227 82.613 90.1307 83.147C90.2447 83.675 90.4427 84.176 90.7247 84.65C91.0127 85.118 91.4087 85.502 91.9127 85.802C92.4167 86.102 93.0587 86.252 93.8387 86.252ZM101.03 86H102.641V81.122C102.641 80.546 102.719 79.991 102.875 79.457C103.031 78.923 103.346 78.488 103.82 78.152C104.156 77.906 104.525 77.762 104.927 77.72C105.335 77.678 105.707 77.699 106.043 77.783V76.28C105.611 76.184 105.137 76.184 104.621 76.28C104.105 76.376 103.661 76.574 103.289 76.874C102.965 77.102 102.689 77.417 102.461 77.819V76.28H101.03V86ZM107.735 86H109.355V80.879C109.355 79.751 109.598 78.914 110.084 78.368C110.576 77.822 111.224 77.549 112.028 77.549C112.712 77.549 113.246 77.72 113.63 78.062C114.014 78.404 114.281 78.848 114.431 79.394C114.587 79.94 114.665 80.519 114.665 81.131V86H116.285V80.627C116.285 80.165 116.228 79.67 116.114 79.142C116.006 78.608 115.808 78.107 115.52 77.639C115.238 77.165 114.845 76.778 114.341 76.478C113.843 76.178 113.201 76.028 112.415 76.028C110.999 76.028 109.919 76.529 109.175 77.531V76.28H107.735V86ZM122.229 86H123.84V81.122C123.84 80.546 123.918 79.991 124.074 79.457C124.23 78.923 124.545 78.488 125.019 78.152C125.355 77.906 125.724 77.762 126.126 77.72C126.534 77.678 126.906 77.699 127.242 77.783V76.28C126.81 76.184 126.336 76.184 125.82 76.28C125.304 76.376 124.86 76.574 124.488 76.874C124.164 77.102 123.888 77.417 123.66 77.819V76.28H122.229V86ZM131.39 86.27C133.01 86.27 134.21 85.676 134.99 84.488V86H136.412V79.988C136.412 79.604 136.394 79.238 136.358 78.89C136.322 78.536 136.235 78.209 136.097 77.909C135.821 77.273 135.365 76.799 134.729 76.487C134.093 76.169 133.337 76.01 132.461 76.01C131.363 76.01 130.475 76.253 129.797 76.739C129.125 77.225 128.675 77.894 128.447 78.746L129.968 79.205C130.142 78.611 130.451 78.179 130.895 77.909C131.339 77.639 131.855 77.504 132.443 77.504C133.283 77.504 133.886 77.693 134.252 78.071C134.624 78.443 134.819 79.016 134.837 79.79C134.117 79.892 133.361 80 132.569 80.114C131.783 80.222 131.084 80.357 130.472 80.519C129.734 80.735 129.152 81.074 128.726 81.536C128.3 81.992 128.087 82.604 128.087 83.372C128.087 83.894 128.21 84.374 128.456 84.812C128.708 85.25 129.077 85.604 129.563 85.874C130.055 86.138 130.664 86.27 131.39 86.27ZM131.633 84.929C130.943 84.929 130.445 84.77 130.139 84.452C129.833 84.128 129.68 83.765 129.68 83.363C129.68 82.907 129.83 82.559 130.13 82.319C130.436 82.073 130.79 81.887 131.192 81.761C131.666 81.629 132.218 81.518 132.848 81.428C133.478 81.338 134.135 81.248 134.819 81.158C134.819 81.38 134.807 81.632 134.783 81.914C134.765 82.196 134.723 82.454 134.657 82.688C134.543 83.288 134.225 83.813 133.703 84.263C133.187 84.707 132.497 84.929 131.633 84.929ZM144.179 86V84.623C143.513 84.725 142.943 84.743 142.469 84.677C142.001 84.611 141.659 84.386 141.443 84.002C141.329 83.798 141.266 83.558 141.254 83.282C141.248 83 141.245 82.658 141.245 82.256V77.603H144.179V76.28H141.245V73.58H139.643V76.28H137.672V77.603H139.643V82.328C139.643 82.832 139.649 83.282 139.661 83.678C139.679 84.068 139.784 84.452 139.976 84.83C140.204 85.268 140.537 85.592 140.975 85.802C141.413 86.006 141.911 86.117 142.469 86.135C143.033 86.159 143.603 86.114 144.179 86ZM149.96 86.27C150.902 86.27 151.751 86.036 152.507 85.568C153.263 85.094 153.833 84.428 154.217 83.57L152.678 83.039C152.12 84.179 151.19 84.749 149.888 84.749C148.994 84.749 148.292 84.476 147.782 83.93C147.278 83.378 146.993 82.598 146.927 81.59H154.379C154.427 80.438 154.277 79.445 153.929 78.611C153.587 77.777 153.071 77.135 152.381 76.685C151.697 76.235 150.866 76.01 149.888 76.01C148.946 76.01 148.124 76.223 147.422 76.649C146.72 77.069 146.174 77.669 145.784 78.449C145.4 79.223 145.208 80.141 145.208 81.203C145.208 82.217 145.403 83.105 145.793 83.867C146.189 84.623 146.744 85.214 147.458 85.64C148.172 86.06 149.006 86.27 149.96 86.27ZM149.942 77.45C151.592 77.45 152.516 78.401 152.714 80.303H146.954C147.068 79.379 147.377 78.674 147.881 78.188C148.385 77.696 149.072 77.45 149.942 77.45Z" fill="#353535"/>
<path d="M80.024 169.72C82.264 169.72 84.264 169.216 86.024 168.208C87.784 167.2 89.168 165.816 90.176 164.056C91.184 162.296 91.688 160.296 91.688 158.056V145.384C91.688 143.144 91.184 141.144 90.176 139.384C89.168 137.624 87.784 136.24 86.024 135.232C84.264 134.224 82.264 133.72 80.024 133.72C77.784 133.72 75.784 134.224 74.024 135.232C72.264 136.24 70.88 137.624 69.872 139.384C68.864 141.144 68.36 143.144 68.36 145.384V158.056C68.36 160.296 68.864 162.296 69.872 164.056C70.88 165.816 72.264 167.2 74.024 168.208C75.784 169.216 77.784 169.72 80.024 169.72ZM80.024 165.616C78.68 165.616 77.448 165.288 76.328 164.632C75.224 163.976 74.344 163.096 73.688 161.992C73.032 160.872 72.704 159.64 72.704 158.296V145.12C72.704 143.76 73.032 142.528 73.688 141.424C74.344 140.32 75.224 139.44 76.328 138.784C77.448 138.128 78.68 137.8 80.024 137.8C81.384 137.8 82.616 138.128 83.72 138.784C84.824 139.44 85.704 140.32 86.36 141.424C87.016 142.528 87.344 143.76 87.344 145.12V158.296C87.344 159.64 87.016 160.872 86.36 161.992C85.704 163.096 84.824 163.976 83.72 164.632C82.616 165.288 81.384 165.616 80.024 165.616ZM99.1749 169H103.879V164.296H99.1749V169ZM122.144 169.72C124.352 169.72 126.304 169.28 128 168.4C129.712 167.52 131.048 166.288 132.008 164.704C132.984 163.104 133.472 161.248 133.472 159.136C133.472 157.344 133.088 155.696 132.32 154.192C131.552 152.688 130.424 151.456 128.936 150.496C130.152 149.648 131.064 148.592 131.672 147.328C132.28 146.064 132.584 144.68 132.584 143.176C132.584 141.224 132.136 139.544 131.24 138.136C130.344 136.728 129.112 135.64 127.544 134.872C125.976 134.104 124.176 133.72 122.144 133.72C120.112 133.72 118.312 134.104 116.744 134.872C115.176 135.64 113.944 136.728 113.048 138.136C112.152 139.544 111.704 141.224 111.704 143.176C111.704 144.664 112.016 146.048 112.64 147.328C113.264 148.592 114.176 149.64 115.376 150.472C113.856 151.448 112.72 152.688 111.968 154.192C111.232 155.68 110.864 157.328 110.864 159.136C110.864 161.248 111.344 163.096 112.304 164.68C113.264 166.264 114.592 167.504 116.288 168.4C117.984 169.28 119.936 169.72 122.144 169.72ZM122.144 148.504C120.4 148.504 118.976 148.064 117.872 147.184C116.784 146.288 116.24 144.952 116.24 143.176C116.24 141.4 116.784 140.072 117.872 139.192C118.976 138.296 120.4 137.848 122.144 137.848C123.904 137.848 125.328 138.296 126.416 139.192C127.504 140.072 128.048 141.4 128.048 143.176C128.048 144.952 127.504 146.288 126.416 147.184C125.328 148.064 123.904 148.504 122.144 148.504ZM122.144 165.64C120.128 165.64 118.496 165.088 117.248 163.984C116 162.864 115.376 161.248 115.376 159.136C115.376 157.008 115.992 155.392 117.224 154.288C118.472 153.168 120.112 152.608 122.144 152.608C124.192 152.608 125.832 153.168 127.064 154.288C128.312 155.392 128.936 157.008 128.936 159.136C128.936 161.248 128.304 162.864 127.04 163.984C125.792 165.088 124.16 165.64 122.144 165.64ZM147.864 151C149.448 151 150.888 150.616 152.184 149.848C153.496 149.064 154.544 148.024 155.328 146.728C156.112 145.416 156.504 143.96 156.504 142.36C156.504 140.76 156.112 139.312 155.328 138.016C154.544 136.704 153.496 135.664 152.184 134.896C150.888 134.112 149.448 133.72 147.864 133.72C146.328 133.72 144.904 134.112 143.592 134.896C142.28 135.68 141.224 136.728 140.424 138.04C139.624 139.352 139.224 140.792 139.224 142.36C139.224 143.96 139.616 145.416 140.4 146.728C141.184 148.024 142.224 149.064 143.52 149.848C144.832 150.616 146.28 151 147.864 151ZM143.544 169L175.272 137.32L172.392 134.44L140.664 166.12L143.544 169ZM147.864 147.232C146.552 147.232 145.408 146.752 144.432 145.792C143.472 144.816 142.992 143.672 142.992 142.36C142.992 141.032 143.472 139.888 144.432 138.928C145.408 137.968 146.552 137.488 147.864 137.488C149.192 137.488 150.336 137.968 151.296 138.928C152.256 139.888 152.736 141.032 152.736 142.36C152.736 143.672 152.256 144.816 151.296 145.792C150.336 146.752 149.192 147.232 147.864 147.232ZM168.072 169.72C169.656 169.72 171.096 169.336 172.392 168.568C173.704 167.784 174.752 166.744 175.536 165.448C176.32 164.136 176.712 162.68 176.712 161.08C176.712 159.48 176.32 158.032 175.536 156.736C174.752 155.424 173.704 154.384 172.392 153.616C171.096 152.832 169.656 152.44 168.072 152.44C166.536 152.44 165.112 152.832 163.8 153.616C162.488 154.4 161.432 155.448 160.632 156.76C159.832 158.072 159.432 159.512 159.432 161.08C159.432 162.68 159.816 164.136 160.584 165.448C161.368 166.744 162.416 167.784 163.728 168.568C165.04 169.336 166.488 169.72 168.072 169.72ZM168.072 165.952C166.76 165.952 165.616 165.472 164.64 164.512C163.68 163.536 163.2 162.392 163.2 161.08C163.2 159.752 163.68 158.608 164.64 157.648C165.616 156.688 166.76 156.208 168.072 156.208C169.4 156.208 170.544 156.688 171.504 157.648C172.464 158.608 172.944 159.752 172.944 161.08C172.944 162.392 172.464 163.536 171.504 164.512C170.544 165.472 169.4 165.952 168.072 165.952Z" fill="#404040"/>
<path d="M73 209.5L78.7735 199.5L67.2265 199.5L73 209.5ZM74 200.5L74 191.5L72 191.5L72 200.5L74 200.5Z" fill="#E72929"/>
<path d="M87.08 210.36C88.184 210.36 89.16 210.14 90.008 209.7C90.864 209.26 91.532 208.644 92.012 207.852C92.5 207.052 92.744 206.124 92.744 205.068C92.744 204.172 92.552 203.348 92.168 202.596C91.784 201.844 91.22 201.228 90.476 200.748C91.084 200.324 91.54 199.796 91.844 199.164C92.148 198.532 92.3 197.84 92.3 197.088C92.3 196.112 92.076 195.272 91.628 194.568C91.18 193.864 90.564 193.32 89.78 192.936C88.996 192.552 88.096 192.36 87.08 192.36C86.064 192.36 85.164 192.552 84.38 192.936C83.596 193.32 82.98 193.864 82.532 194.568C82.084 195.272 81.86 196.112 81.86 197.088C81.86 197.832 82.016 198.524 82.328 199.164C82.64 199.796 83.096 200.32 83.696 200.736C82.936 201.224 82.368 201.844 81.992 202.596C81.624 203.34 81.44 204.164 81.44 205.068C81.44 206.124 81.68 207.048 82.16 207.84C82.64 208.632 83.304 209.252 84.152 209.7C85 210.14 85.976 210.36 87.08 210.36ZM87.08 199.752C86.208 199.752 85.496 199.532 84.944 199.092C84.4 198.644 84.128 197.976 84.128 197.088C84.128 196.2 84.4 195.536 84.944 195.096C85.496 194.648 86.208 194.424 87.08 194.424C87.96 194.424 88.672 194.648 89.216 195.096C89.76 195.536 90.032 196.2 90.032 197.088C90.032 197.976 89.76 198.644 89.216 199.092C88.672 199.532 87.96 199.752 87.08 199.752ZM87.08 208.32C86.072 208.32 85.256 208.044 84.632 207.492C84.008 206.932 83.696 206.124 83.696 205.068C83.696 204.004 84.004 203.196 84.62 202.644C85.244 202.084 86.064 201.804 87.08 201.804C88.104 201.804 88.924 202.084 89.54 202.644C90.164 203.196 90.476 204.004 90.476 205.068C90.476 206.124 90.16 206.932 89.528 207.492C88.904 208.044 88.088 208.32 87.08 208.32ZM99.9397 201C100.732 201 101.452 200.808 102.1 200.424C102.756 200.032 103.28 199.512 103.672 198.864C104.064 198.208 104.26 197.48 104.26 196.68C104.26 195.88 104.064 195.156 103.672 194.508C103.28 193.852 102.756 193.332 102.1 192.948C101.452 192.556 100.732 192.36 99.9397 192.36C99.1717 192.36 98.4597 192.556 97.8037 192.948C97.1477 193.34 96.6197 193.864 96.2197 194.52C95.8197 195.176 95.6197 195.896 95.6197 196.68C95.6197 197.48 95.8157 198.208 96.2077 198.864C96.5997 199.512 97.1197 200.032 97.7677 200.424C98.4237 200.808 99.1477 201 99.9397 201ZM97.7797 210L113.644 194.16L112.204 192.72L96.3397 208.56L97.7797 210ZM99.9397 199.116C99.2837 199.116 98.7117 198.876 98.2237 198.396C97.7437 197.908 97.5037 197.336 97.5037 196.68C97.5037 196.016 97.7437 195.444 98.2237 194.964C98.7117 194.484 99.2837 194.244 99.9397 194.244C100.604 194.244 101.176 194.484 101.656 194.964C102.136 195.444 102.376 196.016 102.376 196.68C102.376 197.336 102.136 197.908 101.656 198.396C101.176 198.876 100.604 199.116 99.9397 199.116ZM110.044 210.36C110.836 210.36 111.556 210.168 112.204 209.784C112.86 209.392 113.384 208.872 113.776 208.224C114.168 207.568 114.364 206.84 114.364 206.04C114.364 205.24 114.168 204.516 113.776 203.868C113.384 203.212 112.86 202.692 112.204 202.308C111.556 201.916 110.836 201.72 110.044 201.72C109.276 201.72 108.564 201.916 107.908 202.308C107.252 202.7 106.724 203.224 106.324 203.88C105.924 204.536 105.724 205.256 105.724 206.04C105.724 206.84 105.916 207.568 106.3 208.224C106.692 208.872 107.216 209.392 107.872 209.784C108.528 210.168 109.252 210.36 110.044 210.36ZM110.044 208.476C109.388 208.476 108.816 208.236 108.328 207.756C107.848 207.268 107.608 206.696 107.608 206.04C107.608 205.376 107.848 204.804 108.328 204.324C108.816 203.844 109.388 203.604 110.044 203.604C110.708 203.604 111.28 203.844 111.76 204.324C112.24 204.804 112.48 205.376 112.48 206.04C112.48 206.696 112.24 207.268 111.76 207.756C111.28 208.236 110.708 208.476 110.044 208.476Z" fill="#E72929"/>
<defs>
<filter id="filter0_d" x="0" y="0" width="302" height="301" filterUnits="userSpaceOnUse" color-interpolation-filters="sRGB">
<feFlood flood-opacity="0" result="BackgroundImageFix"/>
<feColorMatrix in="SourceAlpha" type="matrix" values="0 0 0 0 0 0 0 0 0 0 0 0 0 0 0 0 0 0 127 0" result="hardAlpha"/>
<feOffset dx="10" dy="11"/>
<feGaussianBlur stdDeviation="26.5"/>
<feComposite in2="hardAlpha" operator="out"/>
<feColorMatrix type="matrix" values="0 0 0 0 0 0 0 0 0 0.0642233 0 0 0 0 0.766667 0 0 0 0.05 0"/>
<feBlend mode="normal" in2="BackgroundImageFix" result="effect1_dropShadow"/>
<feBlend mode="normal" in="SourceGraphic" in2="effect1_dropShadow" result="shape"/>
</filter>
</defs>
</svg>
