<svg width="10" height="10" viewBox="0 0 10 10" fill="none" xmlns="http://www.w3.org/2000/svg">
<g clip-path="url(#clip0_4502_46095)">
<path d="M0.673981 8.74212C0.673981 7.21036 1.91572 5.96863 3.44747 5.96863H6.55253C8.08428 5.96863 9.32602 7.21036 9.32602 8.74212V8.74212C9.32602 9.25271 8.91211 9.66662 8.40152 9.66662H1.59848C1.08789 9.66662 0.673981 9.25271 0.673981 8.74212V8.74212Z" fill="#AEB9E1"/>
<path d="M5.00165 5.26403C6.36322 5.26403 7.46698 4.16027 7.46698 2.7987C7.46698 1.43714 6.36322 0.333374 5.00165 0.333374C3.64009 0.333374 2.53632 1.43714 2.53632 2.7987C2.53632 4.16027 3.64009 5.26403 5.00165 5.26403Z" fill="#AEB9E1"/>
</g>
<defs>
<clipPath id="clip0_4502_46095">
<rect width="10" height="10" fill="white"/>
</clipPath>
</defs>
</svg>
