<svg width="10" height="10" viewBox="0 0 10 10" fill="none" xmlns="http://www.w3.org/2000/svg">
<g clip-path="url(#clip0_4502_46096)">
<path d="M5.0005 0C3.9589 0.00118162 2.9603 0.415479 2.22378 1.152C1.48726 1.88852 1.07296 2.88712 1.07178 3.92872C1.07178 7.29046 4.64334 9.83074 4.79514 9.93789C4.85597 9.97839 4.92742 10 5.0005 10C5.07358 10 5.14503 9.97839 5.20587 9.93789C5.35766 9.83074 8.92922 7.29046 8.92922 3.92872C8.92804 2.88712 8.51375 1.88852 7.77722 1.152C7.0407 0.415479 6.0421 0.00118162 5.0005 0V0ZM5.0005 2.5001C5.28306 2.5001 5.55927 2.58388 5.7942 2.74086C6.02914 2.89784 6.21225 3.12096 6.32038 3.38201C6.42851 3.64306 6.4568 3.93031 6.40168 4.20744C6.34655 4.48456 6.21049 4.73912 6.01069 4.93892C5.8109 5.13871 5.55634 5.27478 5.27921 5.3299C5.00209 5.38502 4.71484 5.35673 4.45379 5.2486C4.19274 5.14047 3.96962 4.95736 3.81264 4.72243C3.65566 4.48749 3.57187 4.21128 3.57187 3.92872C3.57187 3.54983 3.72239 3.18645 3.99031 2.91853C4.25823 2.65061 4.62161 2.5001 5.0005 2.5001V2.5001Z" fill="#AEB9E1"/>
</g>
<defs>
<clipPath id="clip0_4502_46096">
<rect width="10" height="10" fill="white"/>
</clipPath>
</defs>
</svg>
