<svg width="302" height="301" viewBox="0 0 302 301" fill="none" xmlns="http://www.w3.org/2000/svg">
<g filter="url(#filter0_d)">
<rect x="43" y="42" width="196" height="195" rx="4" fill="white"/>
</g>
<path d="M85.588 83.27C87.088 83.27 88.321 82.889 89.287 82.127C90.259 81.359 90.928 80.333 91.294 79.049L89.665 78.617C89.401 79.577 88.927 80.339 88.243 80.903C87.565 81.461 86.68 81.74 85.588 81.74C84.622 81.74 83.815 81.521 83.167 81.083C82.519 80.645 82.033 80.033 81.709 79.247C81.385 78.461 81.226 77.552 81.232 76.52C81.238 75.482 81.403 74.573 81.727 73.793C82.051 73.007 82.534 72.395 83.176 71.957C83.818 71.519 84.622 71.3 85.588 71.3C86.68 71.3 87.565 71.579 88.243 72.137C88.927 72.695 89.401 73.457 89.665 74.423L91.294 73.991C90.928 72.701 90.259 71.675 89.287 70.913C88.321 70.151 87.088 69.77 85.588 69.77C84.298 69.77 83.2 70.055 82.294 70.625C81.394 71.195 80.71 71.987 80.242 73.001C79.774 74.015 79.54 75.188 79.54 76.52C79.54 77.852 79.774 79.025 80.242 80.039C80.71 81.053 81.394 81.845 82.294 82.415C83.2 82.985 84.298 83.27 85.588 83.27ZM96.9578 83.252C98.3738 83.252 99.4538 82.751 100.198 81.749V83H101.629V73.28H100.018V78.401C100.018 79.523 99.7718 80.36 99.2798 80.912C98.7938 81.458 98.1488 81.731 97.3448 81.731C96.6608 81.731 96.1268 81.56 95.7428 81.218C95.3648 80.876 95.0978 80.432 94.9418 79.886C94.7858 79.334 94.7078 78.755 94.7078 78.149V73.28H93.0878V78.653C93.0878 79.115 93.1418 79.613 93.2498 80.147C93.3638 80.675 93.5618 81.176 93.8438 81.65C94.1318 82.118 94.5278 82.502 95.0318 82.802C95.5358 83.102 96.1778 83.252 96.9578 83.252ZM107.821 83.261C109.033 83.261 109.984 82.994 110.674 82.46C111.364 81.926 111.709 81.188 111.709 80.246C111.709 79.742 111.604 79.319 111.394 78.977C111.184 78.629 110.83 78.329 110.332 78.077C109.84 77.819 109.165 77.582 108.307 77.366C107.545 77.174 106.963 77.003 106.561 76.853C106.165 76.703 105.892 76.544 105.742 76.376C105.598 76.208 105.526 76.007 105.526 75.773C105.526 75.359 105.721 75.029 106.111 74.783C106.507 74.537 107.02 74.423 107.65 74.441C108.31 74.459 108.853 74.621 109.279 74.927C109.705 75.227 109.957 75.635 110.035 76.151L111.673 75.854C111.571 74.996 111.151 74.309 110.413 73.793C109.681 73.271 108.76 73.01 107.65 73.01C106.528 73.01 105.625 73.271 104.941 73.793C104.257 74.309 103.915 74.996 103.915 75.854C103.915 76.316 104.017 76.709 104.221 77.033C104.431 77.357 104.782 77.642 105.274 77.888C105.772 78.134 106.45 78.371 107.308 78.599C108.1 78.809 108.691 78.992 109.081 79.148C109.477 79.298 109.738 79.457 109.864 79.625C109.99 79.793 110.053 80.015 110.053 80.291C110.053 80.765 109.861 81.14 109.477 81.416C109.099 81.692 108.58 81.83 107.92 81.83C107.218 81.83 106.63 81.677 106.156 81.371C105.682 81.059 105.379 80.639 105.247 80.111L103.609 80.372C103.777 81.284 104.23 81.995 104.968 82.505C105.712 83.009 106.663 83.261 107.821 83.261ZM119.121 83V81.623C118.455 81.725 117.885 81.743 117.411 81.677C116.943 81.611 116.601 81.386 116.385 81.002C116.271 80.798 116.208 80.558 116.196 80.282C116.19 80 116.187 79.658 116.187 79.256V74.603H119.121V73.28H116.187V70.58H114.585V73.28H112.614V74.603H114.585V79.328C114.585 79.832 114.591 80.282 114.603 80.678C114.621 81.068 114.726 81.452 114.918 81.83C115.146 82.268 115.479 82.592 115.917 82.802C116.355 83.006 116.853 83.117 117.411 83.135C117.975 83.159 118.545 83.114 119.121 83ZM124.83 83.27C125.796 83.27 126.627 83.054 127.323 82.622C128.025 82.19 128.565 81.587 128.943 80.813C129.327 80.039 129.519 79.145 129.519 78.131C129.519 77.129 129.33 76.244 128.952 75.476C128.58 74.702 128.043 74.099 127.341 73.667C126.639 73.229 125.802 73.01 124.83 73.01C123.882 73.01 123.057 73.226 122.355 73.658C121.653 74.084 121.11 74.681 120.726 75.449C120.342 76.217 120.15 77.111 120.15 78.131C120.15 79.133 120.336 80.021 120.708 80.795C121.086 81.569 121.626 82.175 122.328 82.613C123.03 83.051 123.864 83.27 124.83 83.27ZM124.83 81.749C123.852 81.749 123.111 81.422 122.607 80.768C122.103 80.108 121.851 79.229 121.851 78.131C121.851 77.069 122.094 76.205 122.58 75.539C123.066 74.867 123.816 74.531 124.83 74.531C125.826 74.531 126.573 74.858 127.071 75.512C127.569 76.166 127.818 77.039 127.818 78.131C127.818 79.199 127.569 80.069 127.071 80.741C126.579 81.413 125.832 81.749 124.83 81.749ZM131.491 83H133.102V76.826C133.102 76.112 133.294 75.539 133.678 75.107C134.068 74.675 134.581 74.459 135.217 74.459C135.853 74.459 136.363 74.672 136.747 75.098C137.131 75.524 137.323 76.106 137.323 76.844L137.314 83H138.907L138.916 76.826C138.916 76.28 139.018 75.833 139.222 75.485C139.426 75.137 139.69 74.879 140.014 74.711C140.338 74.543 140.68 74.459 141.04 74.459C141.652 74.459 142.153 74.666 142.543 75.08C142.933 75.488 143.128 76.055 143.128 76.781L143.119 83H144.721L144.73 76.43C144.73 75.392 144.439 74.567 143.857 73.955C143.275 73.337 142.477 73.028 141.463 73.028C140.821 73.028 140.242 73.172 139.726 73.46C139.21 73.742 138.808 74.132 138.52 74.63C138.256 74.12 137.881 73.727 137.395 73.451C136.909 73.169 136.339 73.028 135.685 73.028C135.103 73.028 134.572 73.145 134.092 73.379C133.618 73.607 133.228 73.919 132.922 74.315V73.28H131.491V83ZM151.199 83.27C152.141 83.27 152.99 83.036 153.746 82.568C154.502 82.094 155.072 81.428 155.456 80.57L153.917 80.039C153.359 81.179 152.429 81.749 151.127 81.749C150.233 81.749 149.531 81.476 149.021 80.93C148.517 80.378 148.232 79.598 148.166 78.59H155.618C155.666 77.438 155.516 76.445 155.168 75.611C154.826 74.777 154.31 74.135 153.62 73.685C152.936 73.235 152.105 73.01 151.127 73.01C150.185 73.01 149.363 73.223 148.661 73.649C147.959 74.069 147.413 74.669 147.023 75.449C146.639 76.223 146.447 77.141 146.447 78.203C146.447 79.217 146.642 80.105 147.032 80.867C147.428 81.623 147.983 82.214 148.697 82.64C149.411 83.06 150.245 83.27 151.199 83.27ZM151.181 74.45C152.831 74.45 153.755 75.401 153.953 77.303H148.193C148.307 76.379 148.616 75.674 149.12 75.188C149.624 74.696 150.311 74.45 151.181 74.45ZM157.621 83H159.232V78.122C159.232 77.546 159.31 76.991 159.466 76.457C159.622 75.923 159.937 75.488 160.411 75.152C160.747 74.906 161.116 74.762 161.518 74.72C161.926 74.678 162.298 74.699 162.634 74.783V73.28C162.202 73.184 161.728 73.184 161.212 73.28C160.696 73.376 160.252 73.574 159.88 73.874C159.556 74.102 159.28 74.417 159.052 74.819V73.28H157.621V83ZM167.657 83.261C168.869 83.261 169.82 82.994 170.51 82.46C171.2 81.926 171.545 81.188 171.545 80.246C171.545 79.742 171.44 79.319 171.23 78.977C171.02 78.629 170.666 78.329 170.168 78.077C169.676 77.819 169.001 77.582 168.143 77.366C167.381 77.174 166.799 77.003 166.397 76.853C166.001 76.703 165.728 76.544 165.578 76.376C165.434 76.208 165.362 76.007 165.362 75.773C165.362 75.359 165.557 75.029 165.947 74.783C166.343 74.537 166.856 74.423 167.486 74.441C168.146 74.459 168.689 74.621 169.115 74.927C169.541 75.227 169.793 75.635 169.871 76.151L171.509 75.854C171.407 74.996 170.987 74.309 170.249 73.793C169.517 73.271 168.596 73.01 167.486 73.01C166.364 73.01 165.461 73.271 164.777 73.793C164.093 74.309 163.751 74.996 163.751 75.854C163.751 76.316 163.853 76.709 164.057 77.033C164.267 77.357 164.618 77.642 165.11 77.888C165.608 78.134 166.286 78.371 167.144 78.599C167.936 78.809 168.527 78.992 168.917 79.148C169.313 79.298 169.574 79.457 169.7 79.625C169.826 79.793 169.889 80.015 169.889 80.291C169.889 80.765 169.697 81.14 169.313 81.416C168.935 81.692 168.416 81.83 167.756 81.83C167.054 81.83 166.466 81.677 165.992 81.371C165.518 81.059 165.215 80.639 165.083 80.111L163.445 80.372C163.613 81.284 164.066 81.995 164.804 82.505C165.548 83.009 166.499 83.261 167.657 83.261Z" fill="#353535"/>
<path d="M93.664 130.744C91.52 130.744 89.552 131.264 87.76 132.304C85.984 133.328 84.56 134.72 83.488 136.48C82.416 138.224 81.88 140.168 81.88 142.312C81.88 144.456 82.368 146.392 83.344 148.12C84.336 149.832 85.68 151.192 87.376 152.2C89.088 153.208 91.016 153.712 93.16 153.712C94.712 153.712 96.168 153.392 97.528 152.752C98.904 152.112 100.096 151.24 101.104 150.136V154.84C101.104 156.216 100.768 157.504 100.096 158.704C99.44 159.888 98.52 160.848 97.336 161.584C96.152 162.304 94.8 162.664 93.28 162.664C92 162.664 90.808 162.368 89.704 161.776C88.6 161.168 87.704 160.368 87.016 159.376L83.824 162.208C84.944 163.664 86.32 164.784 87.952 165.568C89.6 166.336 91.376 166.72 93.28 166.72C95.648 166.72 97.744 166.192 99.568 165.136C101.392 164.08 102.824 162.624 103.864 160.768C104.92 158.912 105.448 156.776 105.448 154.36V142.864C105.448 140.56 104.92 138.496 103.864 136.672C102.824 134.832 101.408 133.384 99.616 132.328C97.84 131.272 95.856 130.744 93.664 130.744ZM93.664 134.872C95.04 134.872 96.288 135.208 97.408 135.88C98.544 136.552 99.44 137.456 100.096 138.592C100.768 139.712 101.104 140.952 101.104 142.312C101.104 143.688 100.768 144.944 100.096 146.08C99.424 147.2 98.52 148.096 97.384 148.768C96.264 149.44 95.016 149.776 93.64 149.776C92.264 149.776 91.008 149.44 89.872 148.768C88.752 148.096 87.856 147.2 87.184 146.08C86.528 144.944 86.2 143.688 86.2 142.312C86.2 140.936 86.536 139.688 87.208 138.568C87.88 137.432 88.776 136.536 89.896 135.88C91.032 135.208 92.288 134.872 93.664 134.872ZM122.973 166.72C125.181 166.72 127.133 166.28 128.829 165.4C130.541 164.52 131.877 163.288 132.837 161.704C133.813 160.104 134.301 158.248 134.301 156.136C134.301 154.344 133.917 152.696 133.149 151.192C132.381 149.688 131.253 148.456 129.765 147.496C130.981 146.648 131.893 145.592 132.501 144.328C133.109 143.064 133.413 141.68 133.413 140.176C133.413 138.224 132.965 136.544 132.069 135.136C131.173 133.728 129.941 132.64 128.373 131.872C126.805 131.104 125.005 130.72 122.973 130.72C120.941 130.72 119.141 131.104 117.573 131.872C116.005 132.64 114.773 133.728 113.877 135.136C112.981 136.544 112.533 138.224 112.533 140.176C112.533 141.664 112.845 143.048 113.469 144.328C114.093 145.592 115.005 146.64 116.205 147.472C114.685 148.448 113.549 149.688 112.797 151.192C112.061 152.68 111.693 154.328 111.693 156.136C111.693 158.248 112.173 160.096 113.133 161.68C114.093 163.264 115.421 164.504 117.117 165.4C118.813 166.28 120.765 166.72 122.973 166.72ZM122.973 145.504C121.229 145.504 119.805 145.064 118.701 144.184C117.613 143.288 117.069 141.952 117.069 140.176C117.069 138.4 117.613 137.072 118.701 136.192C119.805 135.296 121.229 134.848 122.973 134.848C124.733 134.848 126.157 135.296 127.245 136.192C128.333 137.072 128.877 138.4 128.877 140.176C128.877 141.952 128.333 143.288 127.245 144.184C126.157 145.064 124.733 145.504 122.973 145.504ZM122.973 162.64C120.957 162.64 119.325 162.088 118.077 160.984C116.829 159.864 116.205 158.248 116.205 156.136C116.205 154.008 116.821 152.392 118.053 151.288C119.301 150.168 120.941 149.608 122.973 149.608C125.021 149.608 126.661 150.168 127.893 151.288C129.141 152.392 129.765 154.008 129.765 156.136C129.765 158.248 129.133 159.864 127.869 160.984C126.621 162.088 124.989 162.64 122.973 162.64ZM155.46 166H159.78V159.64H163.38V155.584H159.78V145.864H155.46V155.584H144.42L155.82 131.44H150.972L139.572 155.584V159.64H155.46V166Z" fill="#404040"/>
<path d="M87 188.5L81.2265 198.5L92.7735 198.5L87 188.5ZM88 206.5L88 197.5L86 197.5L86 206.5L88 206.5Z" fill="#2CD228"/>
<path d="M98.692 207H100.864V189.72H98.692L95.44 191.664V194.052L98.692 192.084V207ZM111.262 207.36C112.382 207.36 113.382 207.108 114.262 206.604C115.142 206.1 115.834 205.408 116.338 204.528C116.842 203.648 117.094 202.648 117.094 201.528V195.192C117.094 194.072 116.842 193.072 116.338 192.192C115.834 191.312 115.142 190.62 114.262 190.116C113.382 189.612 112.382 189.36 111.262 189.36C110.142 189.36 109.142 189.612 108.262 190.116C107.382 190.62 106.69 191.312 106.186 192.192C105.682 193.072 105.43 194.072 105.43 195.192V201.528C105.43 202.648 105.682 203.648 106.186 204.528C106.69 205.408 107.382 206.1 108.262 206.604C109.142 207.108 110.142 207.36 111.262 207.36ZM111.262 205.308C110.59 205.308 109.974 205.144 109.414 204.816C108.862 204.488 108.422 204.048 108.094 203.496C107.766 202.936 107.602 202.32 107.602 201.648V195.06C107.602 194.38 107.766 193.764 108.094 193.212C108.422 192.66 108.862 192.22 109.414 191.892C109.974 191.564 110.59 191.4 111.262 191.4C111.942 191.4 112.558 191.564 113.11 191.892C113.662 192.22 114.102 192.66 114.43 193.212C114.758 193.764 114.922 194.38 114.922 195.06V201.648C114.922 202.32 114.758 202.936 114.43 203.496C114.102 204.048 113.662 204.488 113.11 204.816C112.558 205.144 111.942 205.308 111.262 205.308ZM124.533 198C125.325 198 126.045 197.808 126.693 197.424C127.349 197.032 127.873 196.512 128.265 195.864C128.657 195.208 128.853 194.48 128.853 193.68C128.853 192.88 128.657 192.156 128.265 191.508C127.873 190.852 127.349 190.332 126.693 189.948C126.045 189.556 125.325 189.36 124.533 189.36C123.765 189.36 123.053 189.556 122.397 189.948C121.741 190.34 121.213 190.864 120.813 191.52C120.413 192.176 120.213 192.896 120.213 193.68C120.213 194.48 120.409 195.208 120.801 195.864C121.193 196.512 121.713 197.032 122.361 197.424C123.017 197.808 123.741 198 124.533 198ZM122.373 207L138.237 191.16L136.797 189.72L120.933 205.56L122.373 207ZM124.533 196.116C123.877 196.116 123.305 195.876 122.817 195.396C122.337 194.908 122.097 194.336 122.097 193.68C122.097 193.016 122.337 192.444 122.817 191.964C123.305 191.484 123.877 191.244 124.533 191.244C125.197 191.244 125.769 191.484 126.249 191.964C126.729 192.444 126.969 193.016 126.969 193.68C126.969 194.336 126.729 194.908 126.249 195.396C125.769 195.876 125.197 196.116 124.533 196.116ZM134.637 207.36C135.429 207.36 136.149 207.168 136.797 206.784C137.453 206.392 137.977 205.872 138.369 205.224C138.761 204.568 138.957 203.84 138.957 203.04C138.957 202.24 138.761 201.516 138.369 200.868C137.977 200.212 137.453 199.692 136.797 199.308C136.149 198.916 135.429 198.72 134.637 198.72C133.869 198.72 133.157 198.916 132.501 199.308C131.845 199.7 131.317 200.224 130.917 200.88C130.517 201.536 130.317 202.256 130.317 203.04C130.317 203.84 130.509 204.568 130.893 205.224C131.285 205.872 131.809 206.392 132.465 206.784C133.121 207.168 133.845 207.36 134.637 207.36ZM134.637 205.476C133.981 205.476 133.409 205.236 132.921 204.756C132.441 204.268 132.201 203.696 132.201 203.04C132.201 202.376 132.441 201.804 132.921 201.324C133.409 200.844 133.981 200.604 134.637 200.604C135.301 200.604 135.873 200.844 136.353 201.324C136.833 201.804 137.073 202.376 137.073 203.04C137.073 203.696 136.833 204.268 136.353 204.756C135.873 205.236 135.301 205.476 134.637 205.476Z" fill="#2CD228"/>
<defs>
<filter id="filter0_d" x="0" y="0" width="302" height="301" filterUnits="userSpaceOnUse" color-interpolation-filters="sRGB">
<feFlood flood-opacity="0" result="BackgroundImageFix"/>
<feColorMatrix in="SourceAlpha" type="matrix" values="0 0 0 0 0 0 0 0 0 0 0 0 0 0 0 0 0 0 127 0" result="hardAlpha"/>
<feOffset dx="10" dy="11"/>
<feGaussianBlur stdDeviation="26.5"/>
<feComposite in2="hardAlpha" operator="out"/>
<feColorMatrix type="matrix" values="0 0 0 0 0 0 0 0 0 0.0642233 0 0 0 0 0.766667 0 0 0 0.05 0"/>
<feBlend mode="normal" in2="BackgroundImageFix" result="effect1_dropShadow"/>
<feBlend mode="normal" in="SourceGraphic" in2="effect1_dropShadow" result="shape"/>
</filter>
</defs>
</svg>
