<svg width="117" height="57" viewBox="0 0 117 57" fill="none" xmlns="http://www.w3.org/2000/svg">
<path d="M4.53871 52.887C2.62294 48.4263 -0.0591407 37.8615 4.53871 31.2879C10.286 23.0708 13.3992 22.1317 20.8228 23.5404C28.2465 24.949 35.4306 28.9402 33.7543 39.505C32.4133 47.9568 27.9272 53.3566 25.8517 55" stroke="#232323" stroke-width="4" stroke-linecap="round"/>
<path d="M112.461 52.887C114.377 48.4263 117.059 37.8615 112.461 31.2879C106.714 23.0708 103.601 22.1317 96.1772 23.5404C88.7535 24.949 81.5694 28.9402 83.2457 39.505C84.5867 47.9568 89.0728 53.3566 91.1483 55" stroke="#232323" stroke-width="4" stroke-linecap="round"/>
<path d="M17.2235 11.6417C15.3827 15.9445 14.9225 20.9646 20.9052 23.355C28.0387 25.7454 31.4899 20.9647 32.6405 17.618C33.791 14.2713 32.1802 8.29502 27.8082 7.33883C23.4362 6.38263 19.0644 7.33883 17.2235 11.6417Z" stroke="#232323" stroke-width="4" stroke-linecap="round"/>
<path d="M51.2235 6.64169C49.3827 10.9445 48.9225 15.9646 54.9052 18.355C62.0387 20.7454 65.4899 15.9647 66.6405 12.618C67.791 9.27135 66.1802 3.29502 61.8082 2.33883C57.4362 1.38263 53.0644 2.33883 51.2235 6.64169Z" stroke="#232323" stroke-width="4" stroke-linecap="round"/>
<path d="M99.7765 11.6417C101.617 15.9445 102.078 20.9646 96.0948 23.355C88.9613 25.7454 85.5101 20.9647 84.3595 17.618C83.209 14.2713 84.8198 8.29502 89.1918 7.33883C93.5638 6.38263 97.9356 7.33883 99.7765 11.6417Z" stroke="#232323" stroke-width="4" stroke-linecap="round"/>
<path d="M50.5286 54.9377C48.5286 50.1044 44.6286 38.6377 45.0286 31.4377C45.5286 22.4377 53.0283 17.4377 59.0283 19.4377C65.0283 19.4377 70.5283 22.4381 72.0283 31.4377C73.0283 37.4375 71.5283 49.438 68.5283 54.9377" stroke="#232323" stroke-width="4" stroke-linecap="round"/>
</svg>
