<svg width="83" height="93" viewBox="0 0 83 93" fill="none" xmlns="http://www.w3.org/2000/svg">
<path d="M36.6507 33.5179C34.9055 30.1719 27.9893 18.0041 28.1396 14.1198C28.2899 10.2355 35.7687 10.1698 37.8577 13.281C39.9467 16.3922 38.8554 26.7178 42.3882 20.7753C45.9211 14.8329 42.9508 8.54188 50.55 9.40239C58.1492 10.2629 46.2696 25.4356 52.7555 22.7706C59.2413 20.1057 62.5507 15.3243 64.9277 18.4909C67.3047 21.6576 62.9339 31.954 53.6414 36.788C65.1393 45.3223 67.7272 55.1519 68.8578 61.6909C69.9885 68.2299 69.0262 80.9884 64.4445 84.6219C59.8628 88.2554 7.93224 81.873 6.27283 73.4261C4.61341 64.9793 5.95417 58.0129 10.2392 52.8172C14.5243 47.6216 31.4671 32.5203 36.6507 33.5179Z" fill="#FF9356"/>
<path d="M36.6507 33.5179C34.9055 30.1719 27.9893 18.0041 28.1396 14.1198C28.2899 10.2355 35.7687 10.1698 37.8577 13.281C39.9467 16.3922 38.8554 26.7178 42.3882 20.7753C45.9211 14.8329 42.9508 8.54188 50.55 9.40239C58.1492 10.2629 46.2696 25.4356 52.7555 22.7706C59.2413 20.1057 62.5507 15.3243 64.9277 18.4909C67.3047 21.6576 62.9339 31.954 53.6414 36.788M36.6507 33.5179C31.4671 32.5203 14.5243 47.6216 10.2392 52.8172C5.95417 58.0129 4.61341 64.9793 6.27283 73.4261C7.93224 81.873 59.8628 88.2554 64.4445 84.6219C69.0262 80.9884 69.9885 68.2299 68.8578 61.6909C67.7272 55.1519 65.1393 45.3223 53.6414 36.788M36.6507 33.5179L53.6414 36.788" stroke="#C85210" stroke-width="4" stroke-linecap="round"/>
<path d="M50.1978 56.1693C46.2327 50.3728 42.1534 49.0586 38.4841 49.98C34.8147 50.9015 35.1164 55.0988 38.8128 57.3885C42.5093 59.6781 46.8271 62.5485 45.5415 64.9817C44.2558 67.415 41.2768 69.0377 36.9914 67.1099C32.7059 65.182 29.3969 59.9004 29.2945 59.3415" stroke="white" stroke-width="2" stroke-linecap="round"/>
<path d="M44.1338 45.814C41.5375 51.4806 35.3799 64.1883 31.5201 69.6864M48.1766 47.9501C45.5803 53.6167 39.4227 66.3244 35.5628 71.8225" stroke="white" stroke-width="2" stroke-linecap="round"/>
</svg>
