<svg width="507" height="507" viewBox="0 0 507 507" fill="none" xmlns="http://www.w3.org/2000/svg">
<g clip-path="url(#clip0_93_27)">
<path d="M506.86 253.43C506.86 113.46 393.39 0 253.43 0C113.47 0 0 113.46 0 253.43C0 379.92 92.68 484.77 213.83 503.78V326.69H149.48V253.43H213.83V197.6C213.83 134.08 251.67 99 309.55 99C337.28 99 366.28 104 366.28 104V166.36H334.33C302.84 166.36 293.03 185.9 293.03 205.94V253.48H363.31L352.08 326.74H293V503.78C414.18 484.77 506.86 379.92 506.86 253.43Z" fill="white"/>
<mask id="mask0_93_27" style="mask-type:alpha" maskUnits="userSpaceOnUse" x="149" y="99" width="218" height="408">
<path d="M352.08 326.69L363.31 253.43H293V205.89C293 185.89 302.81 166.31 334.3 166.31H366.25V104C366.25 104 337.25 99 309.52 99C251.64 99 213.8 134.08 213.8 197.6V253.43H149.48V326.69H213.83V503.78C240.07 507.887 266.79 507.887 293.03 503.78V326.69H352.08Z" fill="white"/>
</mask>
<g mask="url(#mask0_93_27)">
</g>
</g>
<defs>
<clipPath id="clip0_93_27">
<rect width="506.86" height="506.86" fill="white"/>
</clipPath>
</defs>
</svg>
