<svg width="32" height="32" viewBox="0 0 32 32" fill="none" xmlns="http://www.w3.org/2000/svg">
<g clip-path="url(#clip0_4444_42508)">
<path fill-rule="evenodd" clip-rule="evenodd" d="M11.6825 0C11.1215 0 10.6667 0.454823 10.6667 1.01587L10.6667 10.6667C4.77563 10.6667 0 15.4423 0 21.3333C0 27.2244 4.77563 32 10.6667 32H20.3175C20.8785 32 21.3333 31.5452 21.3333 30.9841L21.3333 21.3333C27.2244 21.3333 32 16.5577 32 10.6667C32 4.77563 27.2244 0 21.3333 0H11.6825ZM21.3333 21.3333H11.6825C11.1215 21.3333 10.6667 20.8785 10.6667 20.3175L10.6667 10.6667H20.3175C20.8785 10.6667 21.3333 11.1215 21.3333 11.6825L21.3333 21.3333Z" fill="#6C72FF"/>
<path d="M11.5681 0C11.0703 0 10.6667 0.403574 10.6667 0.901408L10.6667 10.6667H20.432C20.9298 10.6667 21.3334 11.0702 21.3334 11.5681L21.3334 21.3333C27.2244 21.3333 32.0001 16.5577 32.0001 10.6667C32.0001 4.77563 27.2244 0 21.3334 0H11.5681Z" fill="#57C3FF"/>
</g>
<defs>
<clipPath id="clip0_4444_42508">
<rect width="32" height="32" fill="white"/>
</clipPath>
</defs>
</svg>
