<svg width="68" height="68" viewBox="0 0 68 68" fill="none" xmlns="http://www.w3.org/2000/svg">
<g clip-path="url(#clip0_4506_53527)">
<rect width="68" height="68" fill="#979BFF" fill-opacity="0.18"/>
<path fill-rule="evenodd" clip-rule="evenodd" d="M28.5036 13.6318C27.7894 13.6318 27.2104 14.2108 27.2104 14.9251V27.2106C19.7111 27.2107 13.6318 33.2901 13.6318 40.7894C13.6318 48.2887 19.7113 54.3682 27.2106 54.3682H39.4962C40.2104 54.3682 40.7894 53.7892 40.7894 53.075V40.7894C48.2886 40.7893 54.368 34.7099 54.368 27.2106C54.368 19.7113 48.2885 13.6318 40.7892 13.6318H28.5036ZM40.7894 40.7894V28.5038C40.7894 27.7896 40.2104 27.2106 39.4962 27.2106H27.2106C27.2105 27.2106 27.2105 27.2106 27.2104 27.2106V39.4962C27.2104 40.2104 27.7894 40.7894 28.5036 40.7894H40.7892C40.7893 40.7894 40.7893 40.7894 40.7894 40.7894Z" fill="#6C72FF"/>
<path d="M28.3575 13.6318C27.7237 13.6318 27.21 14.1456 27.21 14.7793L27.21 27.2106H39.6412C40.275 27.2106 40.7887 27.7244 40.7887 28.3581L40.7887 40.7894C48.2881 40.7894 54.3675 34.71 54.3675 27.2106C54.3675 19.7113 48.2881 13.6318 40.7887 13.6318H28.3575Z" fill="#57C3FF"/>
</g>
<defs>
<clipPath id="clip0_4506_53527">
<rect width="68" height="68" fill="white"/>
</clipPath>
</defs>
</svg>
