<svg width="52" height="54" viewBox="0 0 52 54" fill="none" xmlns="http://www.w3.org/2000/svg">
<path d="M50.9308 20.517C50.0273 17.7696 31.9192 19.3722 22.9781 20.517C21.284 27.3856 22.131 47.9902 22.9781 51.4244C23.8251 54.8585 49.2367 54.8585 50.9308 51.4244C52.6249 47.9902 52.0602 23.9511 50.9308 20.517Z" fill="#055FFB"/>
<path d="M14.4654 20.517C14.0136 17.7696 4.9596 19.3722 0.489046 20.517C-0.358006 27.3856 0.0655197 47.9902 0.489046 51.4244C0.912571 54.8585 13.6183 54.8585 14.4654 51.4244C15.3125 47.9902 15.0301 23.9511 14.4654 20.517Z" fill="#69A0FF"/>
<path d="M50.9308 0.563439C50.0273 -0.457004 31.9192 0.138255 22.9781 0.563439C21.284 3.11464 22.131 10.7678 22.9781 12.0433C23.8251 13.3189 49.2367 13.3189 50.9308 12.0433C52.6249 10.7678 52.0602 1.83899 50.9308 0.563439Z" fill="#69A0FF"/>
<path d="M15 8.11111C15 4.55556 13.0645 1 7.5 1C1.93548 1 0 4.55556 0 9C0 11.2222 2.66129 15 7.5 15C12.3387 15 15 11.6667 15 8.11111Z" fill="#FF9D2A"/>
</svg>
