<svg width="66" height="48" viewBox="0 0 66 48" fill="none" xmlns="http://www.w3.org/2000/svg">
<path d="M31.7953 0C28.1762 0.00012741 14.1309 9.42117 14.1309 15.3091C15.701 16.8795 46.4763 15.9372 48.6746 15.3091C51.4224 14.5241 36.1132 -0.000152015 31.7953 0Z" fill="#FF9D2A"/>
<path d="M50.6203 19.9992C49.0507 17.9332 17.2675 17.9332 12.1664 19.9992C9.81213 20.5704 7.06543 26.6105 7.06543 28.6765C7.06543 30.7425 56.8985 30.7425 57.2908 28.6765C57.6832 26.6105 52.1898 22.0652 50.6203 19.9992Z" fill="#055FFB"/>
<path d="M60.059 35.3291C57.7782 33.2631 11.8235 33.1124 6.28068 35.3291C2.35525 36.899 0 43.8825 0 45.9485C0 48.0145 65.3769 48.0145 65.9471 45.9485C66.5173 43.8824 62.3397 37.3952 60.059 35.3291Z" fill="#69A0FF"/>
</svg>
