<svg width="46" height="61" viewBox="0 0 46 61" fill="none" xmlns="http://www.w3.org/2000/svg">
<path d="M45.2159 27.517C44.5533 24.7696 31.2741 26.3722 24.7173 27.517C23.4749 34.3856 24.0961 54.9902 24.7173 58.4244C25.3384 61.8585 43.9736 61.8585 45.2159 58.4244C46.4583 54.9902 46.0441 30.9511 45.2159 27.517Z" fill="#055FFB"/>
<path d="M19.2872 27.517C18.6849 24.7696 6.6128 26.3722 0.652061 27.517C-0.477342 34.3856 0.0873596 54.9902 0.652061 58.4244C1.21676 61.8585 18.1578 61.8585 19.2872 58.4244C20.4166 54.9902 20.0401 30.9511 19.2872 27.517Z" fill="#69A0FF"/>
<path d="M23 0.5C18.3902 0.500162 0.5 12.5002 0.5 20C2.5 22.0002 41.7 20.8 44.5 20C48 19 28.5 0.499806 23 0.5Z" fill="#FF9D2A"/>
</svg>
