<svg width="38" height="53" viewBox="0 0 38 53" fill="none" xmlns="http://www.w3.org/2000/svg">
<path d="M14.4654 19.517C14.0136 16.7696 4.9596 18.3722 0.489046 19.517C-0.358006 26.3856 0.0655197 46.9902 0.489046 50.4244C0.912571 53.8585 13.6183 53.8585 14.4654 50.4244C15.3125 46.9902 15.0301 22.9511 14.4654 19.517Z" fill="#055FFB"/>
<path d="M37.4654 33.483C37.0136 36.2304 27.9596 34.6278 23.489 33.483C22.642 26.6144 23.0655 6.00982 23.489 2.57564C23.9126 -0.858547 36.6183 -0.858547 37.4654 2.57564C38.3125 6.00982 38.0301 30.0489 37.4654 33.483Z" fill="#055FFB"/>
<path d="M15 7.11111C15 3.55556 13.0645 0 7.5 0C1.93548 0 0 3.55556 0 8C0 10.2222 2.66129 14 7.5 14C12.3387 14 15 10.6667 15 7.11111Z" fill="#FF9D2A"/>
<path d="M38 45.8889C38 49.4444 36.0645 53 30.5 53C24.9355 53 23 49.4444 23 45C23 42.7778 25.6613 39 30.5 39C35.3387 39 38 42.3333 38 45.8889Z" fill="#FF9D2A"/>
</svg>
