<svg width="12" height="12" viewBox="0 0 12 12" fill="none" xmlns="http://www.w3.org/2000/svg">
<g clip-path="url(#clip0_4517_47807)">
<path d="M9.56615 1.24426H2.433C1.77641 1.24426 1.24414 1.77653 1.24414 2.43312V9.56627C1.24414 10.2229 1.77641 10.7551 2.433 10.7551H9.56615C10.2227 10.7551 10.755 10.2229 10.755 9.56627V2.43312C10.755 1.77653 10.2227 1.24426 9.56615 1.24426Z" stroke="white" stroke-width="1.2" stroke-linecap="round" stroke-linejoin="round"/>
<path d="M4.77197 3.25208C4.95555 3.25208 5.13501 3.30651 5.28765 3.40851C5.4403 3.5105 5.55927 3.65547 5.62952 3.82508C5.69978 3.99469 5.71816 4.18132 5.68234 4.36138C5.64653 4.54143 5.55813 4.70683 5.42831 4.83664C5.2985 4.96645 5.13311 5.05485 4.95305 5.09067C4.773 5.12648 4.58636 5.1081 4.41675 5.03785C4.24714 4.96759 4.10218 4.84862 4.00018 4.69598C3.89819 4.54333 3.84375 4.36387 3.84375 4.18029C3.84375 3.93411 3.94154 3.69802 4.11562 3.52394C4.28969 3.34987 4.52579 3.25208 4.77197 3.25208Z" fill="white"/>
<path d="M10.7556 8.97254L8.85977 6.13037C8.80623 6.04982 8.7338 5.98356 8.64881 5.93738C8.56382 5.8912 8.46883 5.86649 8.3721 5.86539C8.27538 5.8643 8.17985 5.88686 8.09384 5.93111C8.00782 5.97535 7.93392 6.03995 7.87857 6.11928L7.01447 7.35062C6.62375 7.90739 5.84427 8.019 5.31301 7.59425V7.59425C5.24866 7.54287 5.17433 7.50541 5.09473 7.48426C5.01514 7.46312 4.93203 7.45874 4.85065 7.4714C4.76928 7.48407 4.69143 7.51351 4.62203 7.55785C4.55263 7.60219 4.49321 7.66047 4.44752 7.72899L2.43359 10.7558" stroke="white" stroke-width="1.2" stroke-linecap="round" stroke-linejoin="round"/>
</g>
<defs>
<clipPath id="clip0_4517_47807">
<rect width="12" height="12" fill="white"/>
</clipPath>
</defs>
</svg>
