<svg width="62" height="62" viewBox="0 0 62 62" fill="none" xmlns="http://www.w3.org/2000/svg">
<g clip-path="url(#clip0_4506_52772)">
<circle opacity="0.2" cx="30.998" cy="30.998" r="30.998" fill="#9A91FB"/>
<path d="M35.8285 16.3888C35.8285 15.4979 34.7514 15.0518 34.1214 15.6817L18.078 31.7251C17.9046 31.8988 17.7865 32.12 17.7386 32.3607C17.6908 32.6015 17.7154 32.851 17.8093 33.0778C17.9032 33.3046 18.0622 33.4985 18.2662 33.6349C18.4703 33.7714 18.7102 33.8444 18.9556 33.8446H24.8936C25.4458 33.8446 25.8936 34.2923 25.8936 34.8446V46.3325C25.8936 47.2235 26.9708 47.6696 27.6007 47.0396L43.6408 30.9966C43.8142 30.8229 43.9323 30.6017 43.9802 30.3609C44.028 30.1202 44.0034 29.8707 43.9095 29.6439C43.8156 29.4171 43.6566 29.2232 43.4525 29.0867C43.2485 28.9503 43.0086 28.8773 42.7632 28.8771H36.8286C36.2763 28.8771 35.8285 28.4294 35.8285 27.8771V16.3888Z" fill="#6C72FF"/>
</g>
<defs>
<clipPath id="clip0_4506_52772">
<rect width="61.9961" height="61.9961" fill="white"/>
</clipPath>
</defs>
</svg>
