<svg width="129" height="38" viewBox="0 0 129 38" fill="none" xmlns="http://www.w3.org/2000/svg">
<path d="M86.6254 37.3547H83.2181C82.5259 37.3547 81.9953 36.9792 81.9434 36.2822L81.8892 34.9382C79.439 36.9278 76.5114 38.0001 73.4239 38.0001C67.4629 38.0001 65.0156 34.19 65.0156 28.3875V12.504C65.0156 11.5906 65.5475 11.2681 66.3965 11.2681H70.1244C70.9769 11.2681 71.4565 11.5352 71.4565 12.504V27.2589C71.4565 30.2137 72.2013 32.2531 75.3963 32.2531C77.4159 32.2531 79.9728 31.1269 81.5698 29.6768V12.504C81.5698 11.5906 82.0498 11.2681 82.8988 11.2681H86.6783C87.5311 11.2681 88.0111 11.5352 88.0111 12.504V35.8523C88.0104 36.9792 87.6888 37.3547 86.6254 37.3547Z" fill="#365EBF"/>
<path d="M0 12.3392C0 11.6965 0.319982 11.2666 0.957687 11.2666H5.46065C6.099 11.2666 6.47156 11.6428 6.47156 12.3392V36.0122C6.47156 36.979 6.04385 37.3546 5.14099 37.3546H1.38444C0.42933 37.3546 0 36.979 0 36.0122V12.3392Z" fill="#365EBF"/>
<path d="M94.6699 12.3392C94.6699 11.6965 94.9915 11.2666 95.6286 11.2666H100.131C100.771 11.2666 101.143 11.6428 101.143 12.3392V36.0122C101.143 36.979 100.717 37.3546 99.8109 37.3546H96.0544C95.0989 37.3546 94.6699 36.979 94.6699 36.0122V12.3392Z" fill="#365EBF"/>
<path d="M35.0044 37.3549H31.1724C30.2147 37.3549 29.8957 36.8723 29.8957 35.9582V21.351C29.8957 18.3991 29.0986 16.3041 25.8498 16.3041C23.7731 16.3041 21.2194 17.4339 19.5695 18.8817V36.0122C19.5695 36.9276 19.1966 37.3545 18.2934 37.3545H14.4062C13.6076 37.3545 13.1279 36.9276 13.1279 36.0662V12.6158C13.1279 11.756 13.5031 11.2734 14.4598 11.2734H17.918C18.6628 11.2734 19.1447 11.4872 19.1963 12.2926L19.2489 13.7261C21.6994 11.7407 24.7866 10.6138 27.8742 10.6138C33.8358 10.6138 36.2837 14.372 36.2837 20.2254V35.9582C36.2834 36.8723 35.965 37.3549 35.0044 37.3549Z" fill="#365EBF"/>
<path d="M53.9749 3.93921C53.9749 1.76378 52.2283 0 50.0716 0C47.9162 0 46.167 1.76378 46.167 3.93921C46.167 6.11465 47.9166 7.87648 50.0716 7.87648C52.2283 7.87648 53.9749 6.11465 53.9749 3.93921Z" fill="#365EBF"/>
<path d="M59.5307 11.2666C60.1691 11.2666 60.542 11.4804 60.542 12.1794V15.9611C60.542 16.6051 60.1168 16.9813 59.4769 16.9813H53.3079V36.0119C53.3079 36.9787 52.8824 37.3543 51.9234 37.3543H48.2195C47.2611 37.3543 46.8363 36.9787 46.8363 36.0119V16.9813H40.6657C40.0273 16.9813 39.6016 16.6051 39.6016 15.9611V12.1794C39.6016 11.4804 39.9738 11.2666 40.6131 11.2666H59.5307Z" fill="#365EBF"/>
<path d="M120.03 3.93921C120.03 1.76378 118.282 0 116.125 0C113.97 0 112.222 1.76378 112.222 3.93921C112.222 6.11465 113.97 7.87648 116.125 7.87648C118.282 7.87648 120.03 6.11465 120.03 3.93921Z" fill="#365EBF"/>
<path d="M125.585 11.2666C126.222 11.2666 126.594 11.4804 126.594 12.1794V15.9611C126.594 16.6051 126.17 16.9813 125.529 16.9813H119.36V36.0119C119.36 36.9787 118.936 37.3543 117.977 37.3543H114.272C113.314 37.3543 112.889 36.9787 112.889 36.0119L112.888 16.9813H106.72C106.08 16.9813 105.654 16.6051 105.654 15.9611V12.1794C105.654 11.4804 106.028 11.2666 106.665 11.2666H125.585Z" fill="#365EBF"/>
<path d="M127.272 34.0449C128.213 34.0449 129 34.7931 129 35.7745C129 36.7732 128.213 37.5233 127.272 37.5233C126.327 37.5233 125.534 36.7732 125.534 35.7745C125.535 34.7931 126.327 34.0449 127.272 34.0449ZM127.272 37.2682C128.07 37.2682 128.687 36.6268 128.687 35.7745C128.687 34.9428 128.07 34.3001 127.272 34.3001C126.465 34.3001 125.847 34.9431 125.847 35.7745C125.847 36.6271 126.465 37.2682 127.272 37.2682ZM126.599 34.7654H127.377C127.857 34.7654 128.083 34.9561 128.083 35.3476C128.083 35.713 127.854 35.8689 127.553 35.9005L128.13 36.7986H127.792L127.244 35.9229H126.912V36.7986H126.599V34.7654H126.599ZM126.912 35.6675H127.24C127.517 35.6675 127.77 35.6545 127.77 35.3336C127.77 35.0632 127.54 35.0222 127.328 35.0222H126.912V35.6675H126.912Z" fill="#365EBF"/>
</svg>
