<svg width="148" height="28" viewBox="0 0 148 28" fill="none" xmlns="http://www.w3.org/2000/svg">
<g clip-path="url(#clip0_4444_42507)">
<path fill-rule="evenodd" clip-rule="evenodd" d="M9.85388 0.915388C9.39506 0.915388 9.02311 1.28734 9.02311 1.74616V9.63845H9.02308C4.20546 9.63845 0.300003 13.5439 0.300003 18.3615C0.300003 23.1791 4.20546 27.0846 9.02308 27.0846H16.9154C17.3742 27.0846 17.7462 26.7127 17.7462 26.2538V18.3615H17.7462C22.5638 18.3615 26.4693 14.4561 26.4693 9.63846C26.4693 4.82084 22.5638 0.915388 17.7462 0.915388H9.85388ZM17.7462 18.3615V10.4692C17.7462 10.0104 17.3742 9.63845 16.9154 9.63845H9.02311V17.5308C9.02311 17.9896 9.39506 18.3615 9.85388 18.3615H17.7462Z" fill="#6C72FF"/>
<path d="M9.76028 0.915388C9.35316 0.915388 9.02312 1.24543 9.02312 1.65255L9.02312 9.63846H17.009C17.4162 9.63846 17.7462 9.9685 17.7462 10.3756L17.7462 18.3615C22.5638 18.3615 26.4693 14.4561 26.4693 9.63846C26.4693 4.82084 22.5638 0.915388 17.7462 0.915388H9.76028Z" fill="#57C3FF"/>
<path d="M34.38 20H40.42C41.8467 20 43.0533 19.7 44.04 19.1C45.0267 18.4867 45.78 17.6333 46.3 16.54C46.82 15.4467 47.08 14.1733 47.08 12.72C47.08 11.2533 46.82 9.97333 46.3 8.88C45.7933 7.78667 45.04 6.94 44.04 6.34C43.0533 5.72667 41.8467 5.42 40.42 5.42H34.38V20ZM37.02 17.72V7.68H40.02C40.8867 7.68 41.6467 7.84667 42.3 8.18C42.9533 8.51333 43.46 9.04667 43.82 9.78C44.1933 10.5133 44.38 11.4733 44.38 12.66C44.38 13.86 44.1933 14.8333 43.82 15.58C43.46 16.3267 42.9533 16.8733 42.3 17.22C41.6467 17.5533 40.8867 17.72 40.02 17.72H37.02ZM52.9139 20.18C53.7806 20.18 54.5206 19.9867 55.1339 19.6C55.7472 19.2 56.1806 18.6733 56.4339 18.02H56.5739V20H59.0739V9.36H56.6739L56.5739 11.32H56.4339C56.1806 10.6667 55.7472 10.1467 55.1339 9.76C54.5206 9.36 53.7806 9.16 52.9139 9.16C51.6339 9.16 50.6006 9.62667 49.8139 10.56C49.0272 11.4933 48.6339 12.8667 48.6339 14.68C48.6339 16.48 49.0272 17.8467 49.8139 18.78C50.6006 19.7133 51.6339 20.18 52.9139 20.18ZM53.8539 18.14C53.0539 18.14 52.4072 17.8533 51.9139 17.28C51.4206 16.7067 51.1739 15.84 51.1739 14.68C51.1739 13.5067 51.4206 12.6333 51.9139 12.06C52.4072 11.4867 53.0539 11.2 53.8539 11.2C54.4539 11.2 54.9472 11.34 55.3339 11.62C55.7339 11.8867 56.0339 12.2467 56.2339 12.7C56.4339 13.14 56.5339 13.6133 56.5339 14.12V15.22C56.5339 15.7133 56.4339 16.1867 56.2339 16.64C56.0339 17.08 55.7339 17.44 55.3339 17.72C54.9472 18 54.4539 18.14 53.8539 18.14ZM65.8948 20.2C67.3348 20.2 68.4682 19.9333 69.2948 19.4C70.1348 18.8533 70.5548 18.0133 70.5548 16.88C70.5548 16.04 70.3615 15.4067 69.9748 14.98C69.6015 14.5533 69.1015 14.2467 68.4748 14.06C67.8482 13.86 67.1615 13.7133 66.4148 13.62C65.5748 13.5133 64.9548 13.36 64.5548 13.16C64.1682 12.96 63.9748 12.6333 63.9748 12.18C63.9748 11.7933 64.1348 11.48 64.4548 11.24C64.7882 11 65.2682 10.88 65.8948 10.88C66.4948 10.88 66.9748 11.0133 67.3348 11.28C67.6948 11.5467 67.8815 11.9533 67.8948 12.5H70.3348C70.3215 11.4467 69.9215 10.6267 69.1348 10.04C68.3615 9.45333 67.3015 9.16 65.9548 9.16C64.6215 9.16 63.5415 9.44 62.7148 10C61.8882 10.56 61.4748 11.3733 61.4748 12.44C61.4748 13.1867 61.6548 13.7733 62.0148 14.2C62.3882 14.6133 62.8882 14.92 63.5148 15.12C64.1415 15.32 64.8548 15.48 65.6548 15.6C66.4815 15.72 67.0815 15.8667 67.4548 16.04C67.8415 16.2133 68.0348 16.5733 68.0348 17.12C68.0348 17.5467 67.8548 17.88 67.4948 18.12C67.1482 18.36 66.6348 18.48 65.9548 18.48C65.3015 18.48 64.7548 18.34 64.3148 18.06C63.8882 17.7667 63.6682 17.3 63.6548 16.66H61.1948C61.1815 17.7133 61.5815 18.5667 62.3948 19.22C63.2215 19.8733 64.3882 20.2 65.8948 20.2ZM72.6923 20H75.1923V14.14C75.1923 13.34 75.4257 12.6533 75.8923 12.08C76.359 11.5067 77.0123 11.22 77.8523 11.22C78.639 11.22 79.2057 11.46 79.5523 11.94C79.9123 12.42 80.0923 13.16 80.0923 14.16V20H82.5923V13.62C82.5923 12.54 82.4257 11.6733 82.0923 11.02C81.7723 10.3667 81.3257 9.89333 80.7523 9.6C80.179 9.30667 79.5323 9.16 78.8123 9.16C78.039 9.16 77.339 9.34667 76.7123 9.72C76.0857 10.0933 75.619 10.6467 75.3123 11.38H75.1923V5.42H72.6923V20ZM88.7928 20.18C89.6595 20.18 90.3995 19.9867 91.0128 19.6C91.6261 19.2 92.0595 18.6733 92.3128 18.02H92.4528L92.5328 20H94.9328L94.9528 5.42H92.4528V11.32H92.3128C92.0595 10.6667 91.6261 10.1467 91.0128 9.76C90.3995 9.36 89.6595 9.16 88.7928 9.16C87.5128 9.16 86.4795 9.62667 85.6928 10.56C84.9061 11.4933 84.5128 12.8667 84.5128 14.68C84.5128 16.48 84.9061 17.8467 85.6928 18.78C86.4795 19.7133 87.5128 20.18 88.7928 20.18ZM89.7328 18.14C88.9328 18.14 88.2861 17.8533 87.7928 17.28C87.2995 16.7067 87.0528 15.84 87.0528 14.68C87.0528 13.5067 87.2995 12.6333 87.7928 12.06C88.2861 11.4867 88.9328 11.2 89.7328 11.2C90.3328 11.2 90.8261 11.34 91.2128 11.62C91.6128 11.8867 91.9128 12.2467 92.1128 12.7C92.3128 13.14 92.4128 13.6133 92.4128 14.12V15.22C92.4128 15.7133 92.3128 16.1867 92.1128 16.64C91.9128 17.08 91.6128 17.44 91.2128 17.72C90.8261 18 90.3328 18.14 89.7328 18.14ZM101.254 20.18C102.12 20.18 102.86 19.9867 103.474 19.6C104.087 19.2 104.52 18.6733 104.774 18.02H104.914V20H107.414V9.36H105.014L104.914 11.32H104.774C104.52 10.6667 104.087 10.1467 103.474 9.76C102.86 9.36 102.12 9.16 101.254 9.16C99.9737 9.16 98.9404 9.62667 98.1537 10.56C97.3671 11.4933 96.9737 12.8667 96.9737 14.68C96.9737 16.48 97.3671 17.8467 98.1537 18.78C98.9404 19.7133 99.9737 20.18 101.254 20.18ZM102.194 18.14C101.394 18.14 100.747 17.8533 100.254 17.28C99.7604 16.7067 99.5137 15.84 99.5137 14.68C99.5137 13.5067 99.7604 12.6333 100.254 12.06C100.747 11.4867 101.394 11.2 102.194 11.2C102.794 11.2 103.287 11.34 103.674 11.62C104.074 11.8867 104.374 12.2467 104.574 12.7C104.774 13.14 104.874 13.6133 104.874 14.12V15.22C104.874 15.7133 104.774 16.1867 104.574 16.64C104.374 17.08 104.074 17.44 103.674 17.72C103.287 18 102.794 18.14 102.194 18.14ZM110.095 20H112.595V14.18C112.635 13.3533 112.888 12.7133 113.355 12.26C113.835 11.7933 114.561 11.56 115.535 11.56C115.668 11.56 115.788 11.5667 115.895 11.58C116.015 11.58 116.115 11.58 116.195 11.58V9.22H115.575C114.881 9.22 114.261 9.37333 113.715 9.68C113.181 9.97333 112.795 10.46 112.555 11.14H112.475L112.355 9.36H110.095V20ZM117.829 20H120.369V16.86L122.049 15.2L122.689 16.3L125.089 20H128.029L123.809 13.54L127.929 9.36H124.829L121.269 13.08L120.369 14.1V5.42H117.829V20ZM132.934 20H135.994L139.974 14.06H140.054L144.014 20H147.154L141.794 12.16L146.454 5.42H143.354L140.054 10.46H139.974L136.674 5.42H133.574L138.294 12.18L132.934 20Z" fill="white"/>
</g>
<defs>
<clipPath id="clip0_4444_42507">
<rect width="148" height="28" fill="white"/>
</clipPath>
</defs>
</svg>
