<svg width="174" height="47" viewBox="0 0 174 47" fill="none" xmlns="http://www.w3.org/2000/svg">
<path d="M67.4139 17.939C65.182 17.939 64.0779 19.7024 63.5713 20.8398C63.2883 21.4749 63.2091 21.9771 62.9796 21.9771C62.6561 21.9771 62.8878 21.5407 62.6231 20.5728C62.2748 19.2993 61.2251 17.939 58.9948 17.939C56.65 17.939 55.6461 19.9281 55.17 21.0211C54.8444 21.7683 54.844 21.9771 54.5937 21.9771C54.2309 21.9771 54.5315 21.3836 54.6946 20.6858C55.0161 19.3119 54.7717 18.262 54.7717 18.262H51.0547V32.2952H56.1283C56.1283 32.2952 56.1283 26.4304 56.1283 25.3131C56.1283 23.9359 56.7021 22.1884 57.6856 22.1884C58.8219 22.1884 59.0494 23.0646 59.0494 24.6872C59.0494 26.1582 59.0494 32.2983 59.0494 32.2983H64.1434C64.1434 32.2983 64.1434 26.3979 64.1434 25.3131C64.1434 24.0873 64.6416 22.1884 65.7081 22.1884C66.8603 22.1884 67.0643 23.4194 67.0643 24.6872C67.0643 25.9549 67.0643 32.2952 67.0643 32.2952H72.0667C72.0667 32.2952 72.0667 26.7349 72.0667 24.0428C72.0667 20.3806 70.7809 17.939 67.4139 17.939Z" fill="#100F0D"/>
<path d="M153.53 17.939C151.298 17.939 150.194 19.7024 149.688 20.8398C149.405 21.4749 149.326 21.9771 149.096 21.9771C148.772 21.9771 148.989 21.4226 148.74 20.5728C148.368 19.306 147.443 17.939 145.111 17.939C142.766 17.939 141.762 19.9281 141.286 21.0211C140.961 21.7683 140.96 21.9771 140.71 21.9771C140.347 21.9771 140.648 21.3836 140.811 20.6858C141.133 19.3119 140.888 18.262 140.888 18.262H137.171V32.2952H142.245C142.245 32.2952 142.245 26.4304 142.245 25.3131C142.245 23.9359 142.818 22.1884 143.802 22.1884C144.938 22.1884 145.166 23.0646 145.166 24.6872C145.166 26.1582 145.166 32.2983 145.166 32.2983H150.26C150.26 32.2983 150.26 26.3979 150.26 25.3131C150.26 24.0873 150.758 22.1884 151.825 22.1884C152.977 22.1884 153.181 23.4194 153.181 24.6872C153.181 25.9549 153.181 32.2952 153.181 32.2952H158.183C158.183 32.2952 158.183 26.7349 158.183 24.0428C158.183 20.3806 156.897 17.939 153.53 17.939Z" fill="#100F0D"/>
<path d="M79.4941 29.0157C78.2809 29.297 77.6519 28.9218 77.6519 28.1145C77.6519 27.0084 78.7913 26.5655 80.4177 26.5655C81.1346 26.5655 81.8088 26.6277 81.8088 26.6277C81.8088 27.1012 80.7852 28.7166 79.4941 29.0157ZM80.7293 17.9424C76.8429 17.9424 74.0542 19.377 74.0542 19.377V23.5939C74.0542 23.5939 77.1339 21.8161 79.6321 21.8161C81.6262 21.8161 81.8712 22.8959 81.7804 23.7922C81.7804 23.7922 81.2054 23.6393 79.4502 23.6393C75.3151 23.6393 73.2275 25.5263 73.2275 28.5521C73.2275 31.4221 75.5737 32.6219 77.5502 32.6219C80.4345 32.6219 81.7023 30.6759 82.092 29.7526C82.3624 29.1121 82.4116 28.6804 82.6545 28.6804C82.9312 28.6804 82.8381 28.99 82.8247 29.6275C82.8013 30.7439 82.8536 31.5878 83.0299 32.2986H86.854V25.3924C86.854 21.0804 85.3344 17.9424 80.7293 17.9424Z" fill="#100F0D"/>
<path d="M95.2109 32.2982H100.285V14.0137H95.2109V32.2982Z" fill="#100F0D"/>
<path d="M105.87 25.282C105.87 24.0202 107.038 22.8722 109.181 22.8722C111.517 22.8722 113.395 24.0012 113.816 24.2576V19.377C113.816 19.377 112.332 17.9424 108.685 17.9424C104.84 17.9424 101.638 20.2014 101.638 25.0636C101.638 29.9257 104.544 32.6219 108.674 32.6219C111.901 32.6219 113.825 30.8418 113.825 30.8418V26.206C113.216 26.548 111.52 27.7294 109.204 27.7294C106.752 27.7294 105.87 26.5967 105.87 25.282Z" fill="#100F0D"/>
<path d="M124.094 17.942C121.157 17.942 120.039 20.7366 119.814 21.2219C119.588 21.707 119.477 21.9861 119.292 21.9802C118.971 21.9697 119.195 21.3845 119.32 21.0056C119.556 20.2898 120.057 18.4116 120.057 16.1033C120.057 14.5377 119.846 14.0137 119.846 14.0137H115.466V32.2983H120.54C120.54 32.2983 120.54 26.4534 120.54 25.3163C120.54 24.1789 120.992 22.1915 122.27 22.1915C123.328 22.1915 123.66 22.9791 123.66 24.5651C123.66 26.1509 123.66 32.2983 123.66 32.2983H128.734C128.734 32.2983 128.734 28.0214 128.734 24.8703C128.734 21.268 128.139 17.942 124.094 17.942Z" fill="#100F0D"/>
<path d="M130.383 18.2812V32.2984H135.457V18.2812C135.457 18.2812 134.604 18.7821 132.925 18.7821C131.246 18.7821 130.383 18.2812 130.383 18.2812Z" fill="#100F0D"/>
<path d="M132.905 13.8721C131.189 13.8721 129.799 14.7833 129.799 15.9073C129.799 17.0312 131.189 17.9424 132.905 17.9424C134.62 17.9424 136.01 17.0312 136.01 15.9073C136.01 14.7833 134.62 13.8721 132.905 13.8721Z" fill="#100F0D"/>
<path d="M88.4961 18.2812V32.2984H93.5697V18.2812C93.5697 18.2812 92.7169 18.7821 91.038 18.7821C89.3594 18.7821 88.4961 18.2812 88.4961 18.2812Z" fill="#100F0D"/>
<path d="M91.0177 13.8721C89.3026 13.8721 87.9121 14.7833 87.9121 15.9073C87.9121 17.0312 89.3026 17.9424 91.0177 17.9424C92.7331 17.9424 94.1236 17.0312 94.1236 15.9073C94.1236 14.7833 92.7331 13.8721 91.0177 13.8721Z" fill="#100F0D"/>
<path d="M166.871 29.2827C165.707 29.2827 164.851 27.8011 164.851 25.7367C164.851 23.7319 165.731 22.1915 166.831 22.1915C168.243 22.1915 168.845 23.4914 168.845 25.7367C168.845 28.0723 168.29 29.2827 166.871 29.2827ZM168.264 17.939C165.656 17.939 164.46 19.9026 163.941 21.0211C163.597 21.7602 163.615 21.9771 163.364 21.9771C163.001 21.9771 163.302 21.3836 163.466 20.6858C163.787 19.3119 163.542 18.262 163.542 18.262H159.825V36.1709H164.899C164.899 36.1709 164.899 33.2404 164.899 30.4929C165.499 31.5154 166.611 32.6081 168.326 32.6081C171.995 32.6081 173.841 29.4915 173.841 25.2805C173.841 20.5078 171.631 17.939 168.264 17.939Z" fill="#100F0D"/>
<path d="M33.13 22.1779C33.4711 22.1371 33.798 22.1352 34.0984 22.1779C34.2722 21.7777 34.3022 21.0876 34.1457 20.3361C33.9133 19.2192 33.5988 18.5432 32.9487 18.6484C32.2987 18.7536 32.2747 19.5629 32.5071 20.6799C32.6378 21.3081 32.8706 21.8451 33.13 22.1779Z" fill="#231F20"/>
<path d="M27.5491 23.0618C28.0141 23.2668 28.3 23.4027 28.4118 23.2839C28.4837 23.2099 28.4624 23.0687 28.3513 22.8865C28.1217 22.5102 27.6495 22.1288 27.1486 21.9144C26.124 21.4716 24.9022 21.619 23.9595 22.2989C23.6485 22.5279 23.3535 22.8449 23.3956 23.0375C23.4094 23.0998 23.4559 23.1467 23.5651 23.162C23.8218 23.1915 24.7182 22.7363 25.751 22.6729C26.4799 22.6281 27.0839 22.857 27.5491 23.0618Z" fill="#231F20"/>
<path d="M26.6137 23.5979C26.0079 23.6939 25.6738 23.8945 25.4593 24.0809C25.2763 24.2415 25.1631 24.4191 25.1641 24.544C25.1645 24.6034 25.1902 24.6377 25.2104 24.6549C25.2381 24.6793 25.2707 24.6929 25.31 24.6929C25.4469 24.6929 25.7533 24.5693 25.7533 24.5693C26.5964 24.2664 27.1524 24.3032 27.7035 24.3662C28.0081 24.4005 28.152 24.4195 28.2187 24.3147C28.2386 24.2846 28.2624 24.2194 28.2015 24.1202C28.0596 23.8891 27.448 23.4985 26.6137 23.5979" fill="#231F20"/>
<path d="M31.2453 25.5652C31.6565 25.7681 32.1093 25.6884 32.2568 25.3872C32.4041 25.0862 32.1902 24.6776 31.7788 24.4745C31.3676 24.2718 30.9148 24.3513 30.7673 24.6525C30.6199 24.9536 30.8339 25.3621 31.2453 25.5652Z" fill="#231F20"/>
<path d="M33.8897 23.2452C33.5556 23.2394 33.2785 23.6079 33.2707 24.0679C33.2628 24.5281 33.5275 24.9055 33.8617 24.9113C34.1958 24.917 34.4731 24.5486 34.4807 24.0886C34.4885 23.6284 34.2238 23.2507 33.8897 23.2452Z" fill="#231F20"/>
<path d="M11.446 31.541C11.3629 31.4365 11.2263 31.4683 11.0941 31.4993C11.0017 31.521 10.8971 31.5453 10.7823 31.5434C10.5366 31.5385 10.3285 31.4332 10.2116 31.2529C10.0594 31.0182 10.0682 30.6682 10.2363 30.2678C10.2589 30.2135 10.2856 30.1536 10.3147 30.0882C10.5826 29.4845 11.0312 28.4741 10.5276 27.5113C10.1485 26.7867 9.53037 26.3354 8.78714 26.2407C8.07363 26.1499 7.33904 26.4154 6.87048 26.9345C6.13126 27.7533 6.01573 28.8676 6.1587 29.2613C6.21111 29.4054 6.29302 29.4453 6.35259 29.4535C6.47832 29.4703 6.6643 29.3786 6.78082 29.0638C6.78915 29.0412 6.80024 29.0061 6.81414 28.9615C6.86612 28.7952 6.96277 28.4854 7.12109 28.2371C7.31199 27.9376 7.60933 27.7315 7.95832 27.6564C8.31388 27.5799 8.67727 27.6481 8.98146 27.8481C9.49937 28.1882 9.69876 28.8252 9.47767 29.4332C9.36341 29.7476 9.17772 30.3486 9.21873 30.8427C9.30147 31.8423 9.91387 32.2438 10.4641 32.2865C10.9991 32.3066 11.373 32.0053 11.4676 31.7848C11.5234 31.6545 11.4763 31.5752 11.446 31.541" fill="#231F20"/>
<path d="M16.5316 13.18C18.2764 11.1557 20.4245 9.39572 22.3485 8.4075C22.4151 8.37318 22.4857 8.44584 22.4497 8.51135C22.2968 8.78915 22.0028 9.38404 21.9094 9.83523C21.8949 9.90555 21.9711 9.95843 22.0302 9.918C23.2273 9.09876 25.3097 8.22089 27.1363 8.10805C27.2147 8.10316 27.2527 8.20422 27.1902 8.25231C26.9124 8.46632 26.6086 8.76232 26.3867 9.06178C26.3489 9.11273 26.3845 9.18612 26.4477 9.18651C27.7303 9.19568 29.5383 9.64632 30.7168 10.31C30.7966 10.3548 30.7397 10.5098 30.6506 10.4893C28.8676 10.0791 25.9489 9.76779 22.9172 10.5102C20.2105 11.1731 18.1447 12.1964 16.6377 13.2969C16.5615 13.3527 16.47 13.2517 16.5316 13.18L16.5316 13.18ZM25.2217 32.7939C25.2219 32.7942 25.2221 32.7949 25.2223 32.7949C25.2227 32.7955 25.2228 32.7966 25.2234 32.7971C25.2228 32.796 25.2223 32.7949 25.2217 32.7939ZM32.4173 33.6467C32.469 33.6248 32.5047 33.5656 32.4986 33.5068C32.4913 33.4343 32.427 33.3817 32.3549 33.3891C32.3549 33.3891 28.6312 33.9424 25.1135 32.6496C25.4967 31.3993 26.5155 31.8507 28.0554 31.9756C30.8312 32.1417 33.3187 31.7346 35.1573 31.2046C36.7505 30.7458 38.8428 29.8407 40.4681 28.5527C41.0163 29.7618 41.2098 31.0922 41.2098 31.0922C41.2098 31.0922 41.6342 31.0161 41.9887 31.2351C42.3238 31.4422 42.5696 31.8725 42.4017 32.9853C42.0599 35.0642 41.1798 36.7514 39.7008 38.3036C38.8003 39.2767 37.7072 40.1228 36.4566 40.738C35.7923 41.0882 35.0851 41.3913 34.3381 41.6361C28.7619 43.4647 23.0542 41.4545 21.2143 37.1376C21.0675 36.8131 20.9433 36.4734 20.8454 36.1179C20.0613 33.2732 20.7269 29.8603 22.8076 27.7119C22.8078 27.7118 22.8075 27.7109 22.8076 27.7109C22.9359 27.5741 23.0668 27.4129 23.0668 27.2102C23.0668 27.0407 22.9595 26.8617 22.8664 26.7349C22.1384 25.6748 19.6169 23.8683 20.123 20.3724C20.4865 17.8608 22.6741 16.0921 24.7138 16.1969C24.8861 16.2059 25.0588 16.2164 25.2307 16.2266C26.1146 16.2792 26.8857 16.3931 27.6133 16.4235C28.8311 16.4764 29.9263 16.2986 31.2233 15.2136C31.6609 14.8475 32.0116 14.5302 32.6052 14.4293C32.6676 14.4185 32.8228 14.3626 33.133 14.3773C33.4496 14.3942 33.7511 14.4816 34.0219 14.6626C35.0619 15.3573 35.2092 17.0399 35.2632 18.2708C35.2939 18.9734 35.3786 20.6734 35.4075 21.1614C35.4737 22.2772 35.7658 22.4345 36.3568 22.6299C36.6892 22.7399 36.9978 22.8217 37.4525 22.9499C38.8289 23.3378 39.645 23.7315 40.1593 24.2372C40.4662 24.5531 40.6089 24.8889 40.653 25.2091C40.8152 26.3979 39.7336 27.8665 36.8705 29.2009C33.7406 30.6593 29.9436 31.0286 27.3202 30.7353C27.1191 30.7129 26.4035 30.6315 26.401 30.6311C24.3025 30.3474 23.1055 33.0702 24.3649 34.9357C25.1767 36.1379 27.3876 36.9205 29.5996 36.9208C34.6714 36.9214 38.5698 34.7468 40.0198 32.8689C40.0633 32.8127 40.0675 32.8066 40.1358 32.7028C40.2072 32.5949 40.1484 32.5353 40.0595 32.5964C38.8747 33.4103 33.6124 36.6417 27.9835 35.6695C27.9835 35.6695 27.2996 35.5566 26.6752 35.3128C26.1791 35.1191 25.1406 34.6393 25.0145 33.5697C29.557 34.9802 32.4173 33.6468 32.4173 33.6468V33.6467ZM7.4668 22.8078C5.887 23.1163 4.49459 24.0152 3.6432 25.2569C3.13424 24.8308 2.18616 24.0058 2.01875 23.6843C0.659362 21.0929 3.50224 16.0543 5.4882 13.2088C10.3962 6.17663 18.0832 0.853861 21.6417 1.81967C22.2203 1.98405 24.1362 4.21435 24.1362 4.21435C24.1362 4.21435 20.5792 6.19598 17.2804 8.95813C12.8357 12.3943 9.47818 17.3885 7.4668 22.8078ZM10.1215 34.6998C9.88235 34.7408 9.63846 34.7571 9.39247 34.7511C7.01547 34.6871 4.44786 32.5385 4.19271 29.9905C3.91071 27.1741 5.34398 25.0067 7.88169 24.4926C8.18508 24.4313 8.55173 24.3959 8.94709 24.4166C10.3689 24.4948 12.4643 25.5908 12.943 28.7009C13.3669 31.4553 12.6935 34.2594 10.1215 34.6998V34.6998ZM42.3213 29.7127C42.3009 29.6405 42.1683 29.1536 41.9861 28.5671C41.8038 27.9802 41.6151 27.5673 41.6151 27.5673C42.3461 26.4683 42.3591 25.4857 42.262 24.9289C42.1582 24.239 41.8721 23.651 41.2955 23.0433C40.7188 22.4356 39.5395 21.8131 37.882 21.3458C37.6925 21.2923 37.0674 21.1201 37.0125 21.1034C37.0081 21.0674 36.9666 19.045 36.9291 18.1769C36.9016 17.5492 36.848 16.5694 36.5451 15.6044C36.1843 14.2981 35.5555 13.1551 34.7709 12.4238C36.9365 10.1699 38.2885 7.68693 38.2852 5.55683C38.279 1.46044 33.2683 0.22104 27.0935 2.78816C27.087 2.79082 25.7946 3.34109 25.7852 3.34568C25.7793 3.34013 23.42 1.01576 23.3845 0.984721C16.3444 -5.18066 -5.66729 19.3843 1.37025 25.3504L2.90823 26.6586C2.5093 27.6962 2.35253 28.8851 2.48059 30.1635C2.64495 31.8054 3.48852 33.3794 4.85582 34.5954C6.15378 35.7501 7.8603 36.4808 9.51635 36.4795C12.255 42.816 18.5124 46.7032 25.8492 46.9219C33.7192 47.1566 40.3257 43.4488 43.094 36.7885C43.2751 36.3211 44.0435 34.2149 44.0435 32.3558C44.0435 30.4872 42.9913 29.7127 42.3213 29.7127Z" fill="#231F20"/>
</svg>
