<svg width="14" height="14" viewBox="0 0 14 14" fill="none" xmlns="http://www.w3.org/2000/svg">
<g clip-path="url(#clip0_4462_45458)">
<path d="M0.943573 12.2389C0.943573 10.0945 2.682 8.35605 4.82647 8.35605H9.17354C11.318 8.35605 13.0564 10.0945 13.0564 12.2389V12.2389C13.0564 12.9538 12.477 13.5332 11.7621 13.5332H2.23787C1.52305 13.5332 0.943573 12.9538 0.943573 12.2389V12.2389Z" fill="#AEB9E1"/>
<path d="M7.00232 7.36963C8.90851 7.36963 10.4538 5.82435 10.4538 3.91817C10.4538 2.01198 8.90851 0.466705 7.00232 0.466705C5.09613 0.466705 3.55086 2.01198 3.55086 3.91817C3.55086 5.82435 5.09613 7.36963 7.00232 7.36963Z" fill="#AEB9E1"/>
</g>
<defs>
<clipPath id="clip0_4462_45458">
<rect width="14" height="14" fill="white"/>
</clipPath>
</defs>
</svg>
