<svg width="14" height="14" viewBox="0 0 14 14" fill="none" xmlns="http://www.w3.org/2000/svg">
<g clip-path="url(#clip0_4462_45459)">
<path fill-rule="evenodd" clip-rule="evenodd" d="M14 7C14 10.866 10.866 14 7 14C3.13401 14 0 10.866 0 7C0 3.13401 3.13401 0 7 0C10.866 0 14 3.13401 14 7ZM7.0018 2.99987C7.37871 2.99987 7.68426 3.30542 7.68426 3.68233V6.31825H10.3166C10.6935 6.31825 10.999 6.6238 10.999 7.00072C10.999 7.37763 10.6935 7.68318 10.3166 7.68318H7.68426V10.3174C7.68426 10.6943 7.37871 10.9999 7.0018 10.9999C6.62488 10.9999 6.31933 10.6943 6.31933 10.3174V7.68318H3.68149C3.30457 7.68318 2.99902 7.37763 2.99902 7.00072C2.99902 6.6238 3.30457 6.31825 3.68149 6.31825H6.31933V3.68233C6.31933 3.30542 6.62488 2.99987 7.0018 2.99987Z" fill="#AEB9E1"/>
</g>
<defs>
<clipPath id="clip0_4462_45459">
<rect width="14" height="14" fill="white"/>
</clipPath>
</defs>
</svg>
