<svg width="14" height="14" viewBox="0 0 14 14" fill="none" xmlns="http://www.w3.org/2000/svg">
<g clip-path="url(#clip0_4462_45457)">
<path fill-rule="evenodd" clip-rule="evenodd" d="M0.102731 6.6077C0.72996 5.50113 2.84235 2.43616 6.99806 2.43616C11.1538 2.43616 13.2662 5.50113 13.8934 6.6077C14.0329 6.85386 14.0329 7.14651 13.8934 7.39267C13.2662 8.49924 11.1538 11.5642 6.99806 11.5642C2.84235 11.5642 0.72996 8.49924 0.102732 7.39267C-0.036797 7.14651 -0.0367972 6.85386 0.102731 6.6077ZM9.53494 7.00055C9.53494 8.40091 8.39973 9.53612 6.99937 9.53612C5.59901 9.53612 4.4638 8.40091 4.4638 7.00055C4.4638 5.60019 5.59901 4.46498 6.99937 4.46498C8.39973 4.46498 9.53494 5.60019 9.53494 7.00055Z" fill="#AEB9E1"/>
</g>
<defs>
<clipPath id="clip0_4462_45457">
<rect width="14" height="14" fill="white"/>
</clipPath>
</defs>
</svg>
