<svg width="12" height="12" viewBox="0 0 12 12" fill="none" xmlns="http://www.w3.org/2000/svg">
<g clip-path="url(#clip0_4506_54366)">
<path d="M7.55999 0C6.85803 0.000845787 6.16622 0.167547 5.54101 0.486499C4.9158 0.805452 4.37489 1.26762 3.96244 1.83529C3.54999 2.40296 3.27768 3.06004 3.16772 3.75293C3.05776 4.44581 3.11328 5.15486 3.32974 5.82222L0.12786 9.01667C0.0452681 9.10133 -0.000659868 9.21509 7.16537e-06 9.33333V11.5556C7.16537e-06 11.6734 0.0468599 11.7865 0.130258 11.8698C0.213657 11.9532 0.326769 12 0.444712 12H2.66824C2.78618 12 2.89929 11.9532 2.98269 11.8698C3.06609 11.7865 3.11294 11.6734 3.11294 11.5556V10.6667H4.00235C4.12029 10.6667 4.23341 10.6198 4.31681 10.5365C4.4002 10.4531 4.44706 10.3401 4.44706 10.2222V9.33333H5.33647C5.45478 9.334 5.5686 9.2881 5.65332 9.20556L6.18141 8.67222C6.7925 8.87024 7.43927 8.93358 8.07721 8.85789C8.71514 8.7822 9.3291 8.56928 9.87682 8.23377C10.4245 7.89826 10.893 7.44814 11.25 6.91438C11.6071 6.38061 11.8441 5.77588 11.9449 5.14179C12.0457 4.50771 12.0079 3.85932 11.8339 3.24126C11.66 2.62319 11.3542 2.05012 10.9375 1.56148C10.5208 1.07284 10.0031 0.680238 9.42003 0.410681C8.83697 0.141124 8.2024 0.00101634 7.55999 0V0ZM8.67175 4.22222C8.49584 4.22222 8.32389 4.17009 8.17762 4.07242C8.03136 3.97475 7.91736 3.83592 7.85005 3.6735C7.78273 3.51107 7.76511 3.33235 7.79943 3.15992C7.83375 2.98749 7.91846 2.82911 8.04285 2.70479C8.16723 2.58048 8.32571 2.49582 8.49824 2.46152C8.67077 2.42723 8.8496 2.44483 9.01212 2.51211C9.17463 2.57938 9.31354 2.69332 9.41127 2.83949C9.509 2.98567 9.56116 3.15753 9.56116 3.33333C9.56116 3.56908 9.46746 3.79517 9.30066 3.96187C9.13386 4.12857 8.90764 4.22222 8.67175 4.22222Z" fill="#AEB9E1"/>
</g>
<defs>
<clipPath id="clip0_4506_54366">
<rect width="12" height="12" fill="white"/>
</clipPath>
</defs>
</svg>
