<svg width="48" height="48" viewBox="0 0 48 48" fill="none" xmlns="http://www.w3.org/2000/svg">
<g clip-path="url(#clip0_4506_54361)">
<circle opacity="0.2" cx="24" cy="24" r="24" fill="#6C72FF"/>
<path d="M31.4076 20.6667H28.0743V18.0741C28.0743 16.9936 27.6451 15.9573 26.881 15.1933C26.117 14.4292 25.0807 14 24.0002 14C22.9197 14 21.8834 14.4292 21.1194 15.1933C20.3554 15.9573 19.9261 16.9936 19.9261 18.0741V20.6667H16.5928C16.1999 20.6667 15.8231 20.8228 15.5452 21.1006C15.2674 21.3784 15.1113 21.7552 15.1113 22.1481V32.5185C15.1113 32.9114 15.2674 33.2883 15.5452 33.5661C15.8231 33.8439 16.1999 34 16.5928 34H31.4076C31.8005 34 32.1774 33.8439 32.4552 33.5661C32.733 33.2883 32.8891 32.9114 32.8891 32.5185V22.1481C32.8891 21.7552 32.733 21.3784 32.4552 21.1006C32.1774 20.8228 31.8005 20.6667 31.4076 20.6667ZM24.0002 28.4444C23.7805 28.4444 23.5656 28.3793 23.3829 28.2572C23.2002 28.1351 23.0578 27.9616 22.9737 27.7585C22.8896 27.5555 22.8676 27.3321 22.9105 27.1166C22.9533 26.901 23.0592 26.7031 23.2145 26.5477C23.3699 26.3923 23.5679 26.2864 23.7835 26.2436C23.999 26.2007 24.2224 26.2227 24.4254 26.3068C24.6284 26.3909 24.802 26.5333 24.9241 26.716C25.0462 26.8988 25.1113 27.1136 25.1113 27.3333C25.1113 27.628 24.9943 27.9106 24.7859 28.119C24.5775 28.3274 24.2949 28.4444 24.0002 28.4444ZM26.5928 20.6667H21.4076V18.0741C21.4076 17.3865 21.6808 16.727 22.167 16.2408C22.6532 15.7546 23.3126 15.4815 24.0002 15.4815C24.6878 15.4815 25.3473 15.7546 25.8335 16.2408C26.3197 16.727 26.5928 17.3865 26.5928 18.0741V20.6667Z" fill="#6C72FF"/>
</g>
<defs>
<clipPath id="clip0_4506_54361">
<rect width="48" height="48" fill="white"/>
</clipPath>
</defs>
</svg>
