<svg width="211" height="211" viewBox="0 0 211 211" fill="none" xmlns="http://www.w3.org/2000/svg">
<g clip-path="url(#clip0_4470_48528)">
<path d="M210.005 105.002C210.005 162.994 162.994 210.005 105.002 210.005C47.0112 210.005 0 162.994 0 105.002C0 47.0112 47.0112 0 105.002 0C162.994 0 210.005 47.0112 210.005 105.002ZM6.30015 105.002C6.30015 159.514 50.4907 203.705 105.002 203.705C159.514 203.705 203.705 159.514 203.705 105.002C203.705 50.4907 159.514 6.30015 105.002 6.30015C50.4907 6.30015 6.30015 50.4907 6.30015 105.002Z" fill="#37446B"/>
<path d="M0.670764 105.002C0.300312 105.002 -0.000222743 104.702 0.00214365 104.331C0.148288 81.4531 7.76334 59.2415 21.6984 41.081C35.7697 22.7429 55.4988 9.56037 77.8258 3.57787C100.153 -2.40464 123.83 -0.852749 145.185 7.99284C166.54 16.8384 184.38 32.4834 195.937 52.5012C207.495 72.5191 212.124 95.7911 209.107 118.708C206.09 141.625 195.595 162.906 179.25 179.25C162.906 195.595 141.625 206.09 118.708 209.107C96.013 212.094 72.9696 207.583 53.0835 196.271C52.7615 196.088 52.6514 195.677 52.8366 195.356L55.3159 191.062C55.5011 190.741 55.9116 190.632 56.2336 190.815C74.9186 201.434 96.5657 205.667 117.886 202.86C139.428 200.024 159.432 190.159 174.795 174.796C190.159 159.432 200.024 139.428 202.86 117.886C205.696 96.3438 201.345 74.4681 190.481 55.6513C179.617 36.8345 162.848 22.1283 142.774 13.8134C122.7 5.49856 100.444 4.03979 79.4564 9.66334C58.469 15.2869 39.9237 27.6785 26.6967 44.9163C13.6059 61.9765 6.44848 82.84 6.30243 104.331C6.29991 104.702 5.99984 105.002 5.62938 105.002L0.670764 105.002Z" fill="#6C72FF"/>
<path d="M199.523 105.002C199.523 157.205 157.204 199.524 105.002 199.524C52.7986 199.524 10.4797 157.205 10.4797 105.002C10.4797 52.7995 52.7986 10.4807 105.002 10.4807C157.204 10.4807 199.523 52.7995 199.523 105.002ZM17.0963 105.002C17.0963 153.551 56.4528 192.908 105.002 192.908C153.55 192.908 192.907 153.551 192.907 105.002C192.907 56.4538 153.55 17.0972 105.002 17.0972C56.4528 17.0972 17.0963 56.4538 17.0963 105.002Z" fill="#37446B"/>
<path d="M11.1505 105.002C10.78 105.002 10.4795 104.702 10.4821 104.332C10.5908 89.0181 14.4187 73.9567 21.6408 60.4452C28.9682 46.7365 39.5635 35.0464 52.488 26.4105C65.4126 17.7746 80.2674 12.4595 95.7368 10.9359C111.206 9.41226 126.812 11.7272 141.173 17.6758C155.534 23.6243 168.207 33.0227 178.068 45.0385C187.929 57.0543 194.675 71.3167 197.707 86.5622C200.74 101.808 199.965 117.566 195.453 132.441C191.006 147.102 183.063 160.458 172.311 171.363C172.051 171.627 171.626 171.627 171.364 171.365L167.634 167.635C167.372 167.373 167.373 166.949 167.632 166.685C177.615 156.549 184.99 144.14 189.122 130.52C193.318 116.686 194.038 102.031 191.218 87.853C188.397 73.6747 182.124 60.4107 172.953 49.236C163.782 38.0613 151.997 29.3207 138.641 23.7886C125.286 18.2565 110.772 16.1036 96.3853 17.5205C81.9988 18.9375 68.1838 23.8806 56.164 31.9119C44.1442 39.9433 34.2906 50.8151 27.476 63.5642C20.7669 76.1161 17.2074 90.1062 17.0988 104.332C17.096 104.702 16.7959 105.002 16.4255 105.002L11.1505 105.002Z" fill="#9A91FB"/>
<path d="M187.784 105.003C187.784 150.723 150.721 187.786 105.001 187.786C59.281 187.786 22.2177 150.723 22.2177 105.003C22.2177 59.283 59.281 22.2196 105.001 22.2196C150.721 22.2196 187.784 59.283 187.784 105.003ZM28.8403 105.003C28.8403 147.065 62.9387 181.164 105.001 181.164C147.063 181.164 181.162 147.065 181.162 105.003C181.162 62.9406 147.063 28.8423 105.001 28.8423C62.9387 28.8423 28.8403 62.9406 28.8403 105.003Z" fill="#37446B"/>
<path d="M22.8884 105.003C22.518 105.003 22.2174 104.702 22.2204 104.332C22.3962 82.6187 31.0978 61.8329 46.4644 46.4663C61.9893 30.9414 83.0455 22.2196 105.001 22.2196C126.957 22.2196 148.013 30.9414 163.538 46.4663C178.904 61.8329 187.606 82.6186 187.782 104.332C187.785 104.702 187.484 105.003 187.114 105.003L181.833 105.003C181.462 105.003 181.162 104.702 181.159 104.332C180.983 84.3751 172.979 65.2738 158.855 51.1492C144.572 36.8663 125.2 28.8423 105.001 28.8423C84.802 28.8423 65.4302 36.8663 51.1473 51.1492C37.0227 65.2738 29.019 84.3752 28.8433 104.332C28.84 104.702 28.54 105.003 28.1696 105.003L22.8884 105.003Z" fill="#57C3FF"/>
<path d="M75.8514 105.932H77.7324V104.075C79.6616 103.93 81.1246 103.392 82.1214 102.459C83.1182 101.511 83.6165 100.329 83.6165 98.9144C83.6165 97.8694 83.4558 97.0254 83.1342 96.3823C82.8127 95.7232 82.3706 95.2087 81.8079 94.8389C81.2613 94.4531 80.6343 94.1637 79.9269 93.9708C79.2356 93.7779 78.5202 93.6171 77.7806 93.4885C76.7678 93.3116 75.9559 93.1348 75.345 92.9579C74.734 92.7811 74.2919 92.5399 74.0186 92.2345C73.7453 91.9129 73.6087 91.4547 73.6087 90.8599C73.6087 90.1525 73.8739 89.5818 74.4045 89.1477C74.9511 88.7136 75.6987 88.4966 76.6472 88.4966C77.5636 88.4966 78.3192 88.7217 78.914 89.1718C79.525 89.622 79.8545 90.3213 79.9028 91.2699H83.086C83.0699 89.8551 82.5876 88.6895 81.6391 87.7731C80.7066 86.8407 79.4044 86.294 77.7324 86.1333V84.2282H75.8514V86.1092C74.1151 86.2538 72.7566 86.7844 71.7759 87.7008C70.7952 88.6172 70.3048 89.8068 70.3048 91.2699C70.3048 92.3309 70.546 93.191 71.0283 93.8502C71.5106 94.5094 72.1858 95.0238 73.054 95.3936C73.9382 95.7634 74.9832 96.0608 76.189 96.2859C77.2179 96.4627 78.0298 96.6556 78.6247 96.8646C79.2356 97.0736 79.6697 97.355 79.9269 97.7087C80.1841 98.0624 80.3127 98.5607 80.3127 99.2038C80.3127 100.04 79.9992 100.659 79.3722 101.061C78.7613 101.463 77.9414 101.664 76.9125 101.664C75.6263 101.664 74.6858 101.366 74.091 100.771C73.5122 100.176 73.2067 99.3807 73.1746 98.3839H69.9431C69.9592 99.9434 70.4576 101.246 71.4383 102.291C72.419 103.32 73.89 103.914 75.8514 104.075V105.932ZM89.5365 103.882H92.5509V86.495H89.6812C89.6008 87.3792 89.2471 88.0947 88.6201 88.6413C87.9931 89.1879 87.1008 89.4612 85.9433 89.4612H85.244V91.7522H89.5365V103.882ZM101.952 104.099C104.058 104.099 105.674 103.368 106.799 101.905C107.94 100.426 108.511 98.0141 108.511 94.6701C108.511 91.8567 107.948 89.7586 106.823 88.376C105.714 86.9773 104.122 86.278 102.048 86.278C100.826 86.278 99.7492 86.5111 98.8168 86.9773C97.8843 87.4435 97.1528 88.1188 96.6223 89.003C96.1078 89.8872 95.8506 90.9563 95.8506 92.2104C95.8506 93.3518 96.0757 94.3566 96.5258 95.2248C96.976 96.0769 97.603 96.744 98.4068 97.2264C99.2267 97.6926 100.167 97.9257 101.228 97.9257C102.257 97.9257 103.125 97.7087 103.833 97.2746C104.54 96.8405 105.039 96.2778 105.328 95.5865H105.473C105.489 96.7923 105.392 97.8373 105.183 98.7215C104.974 99.6057 104.613 100.289 104.098 100.771C103.584 101.238 102.876 101.471 101.976 101.471C101.188 101.471 100.529 101.294 99.9984 100.94C99.484 100.57 99.1785 100.072 99.082 99.445H96.14C96.2847 100.844 96.8634 101.969 97.8763 102.821C98.9052 103.673 100.264 104.099 101.952 104.099ZM101.976 95.6347C101.043 95.6347 100.288 95.3373 99.709 94.7425C99.1464 94.1476 98.865 93.3357 98.865 92.3068C98.865 91.2618 99.1464 90.4339 99.709 89.8229C100.288 89.212 101.043 88.9065 101.976 88.9065C102.941 88.9065 103.712 89.204 104.291 89.7988C104.87 90.3937 105.159 91.1975 105.159 92.2104C105.159 93.2071 104.878 94.027 104.315 94.6701C103.752 95.3132 102.973 95.6347 101.976 95.6347ZM117.199 104.099C118.421 104.099 119.498 103.866 120.431 103.4C121.363 102.918 122.095 102.234 122.625 101.35C123.156 100.466 123.421 99.3967 123.421 98.1427C123.421 97.0013 123.196 96.0045 122.746 95.1524C122.296 94.2843 121.661 93.6171 120.841 93.1509C120.037 92.6685 119.097 92.4274 118.019 92.4274C117.007 92.4274 116.138 92.6444 115.415 93.0785C114.708 93.5126 114.209 94.0833 113.92 94.7907H113.775C113.775 93.5849 113.88 92.5399 114.089 91.6557C114.314 90.7715 114.691 90.0882 115.222 89.6059C115.753 89.1236 116.476 88.8824 117.392 88.8824C118.164 88.8824 118.815 89.0593 119.346 89.413C119.876 89.7667 120.198 90.2731 120.31 90.9322H123.228C123.1 89.5175 122.521 88.3921 121.492 87.5561C120.479 86.704 119.121 86.278 117.417 86.278C115.246 86.278 113.59 87.0497 112.449 88.593C111.307 90.1364 110.737 92.5158 110.737 95.7312C110.737 98.5286 111.299 100.627 112.425 102.025C113.55 103.408 115.142 104.099 117.199 104.099ZM117.248 101.471C116.299 101.471 115.536 101.173 114.957 100.578C114.378 99.9835 114.089 99.1717 114.089 98.1427C114.089 97.146 114.37 96.326 114.933 95.683C115.511 95.0399 116.291 94.7184 117.272 94.7184C118.22 94.7184 118.976 95.0158 119.539 95.6106C120.101 96.2055 120.383 97.0254 120.383 98.0704C120.383 99.0993 120.093 99.9273 119.515 100.554C118.952 101.165 118.196 101.471 117.248 101.471ZM126.442 103.882H129.626V98.8421L132.327 95.9L137.463 103.882H141.249L134.521 93.609L141.129 86.3021H137.294L129.626 95.0801V86.3021H126.442V103.882Z" fill="white"/>
<path d="M91.0998 125.172C92.4128 125.172 93.4069 124.9 94.0821 124.356C94.7667 123.812 95.109 123.1 95.109 122.218C95.109 121.627 95.0106 121.144 94.8136 120.769C94.6261 120.394 94.3635 120.099 94.0258 119.883C93.6976 119.667 93.3225 119.503 92.9005 119.391C92.4784 119.278 92.0424 119.184 91.5922 119.109C90.9357 118.987 90.4059 118.87 90.0026 118.758C89.5993 118.636 89.3039 118.472 89.1164 118.265C88.9382 118.059 88.8491 117.768 88.8491 117.393C88.8491 116.924 89.0319 116.554 89.3977 116.282C89.7728 116 90.298 115.86 90.9732 115.86C91.6391 115.86 92.1736 116.01 92.5769 116.31C92.9896 116.61 93.2053 117.065 93.224 117.674H94.7855C94.7761 116.774 94.4385 116.052 93.7726 115.508C93.1162 114.955 92.2018 114.678 91.0295 114.678C89.8572 114.678 88.9335 114.941 88.2582 115.466C87.5924 115.991 87.2595 116.704 87.2595 117.604C87.2595 118.185 87.3908 118.664 87.6534 119.039C87.9253 119.405 88.3239 119.7 88.8491 119.925C89.3743 120.141 90.0307 120.319 90.8185 120.46C91.4937 120.572 92.0283 120.699 92.4222 120.84C92.8161 120.971 93.0974 121.154 93.2662 121.388C93.435 121.623 93.5194 121.946 93.5194 122.359C93.5194 122.903 93.299 123.306 92.8583 123.569C92.4269 123.831 91.8501 123.962 91.128 123.962C90.2558 123.962 89.6181 123.775 89.2148 123.4C88.8209 123.015 88.6146 122.495 88.5959 121.838H87.0203C87.0297 122.495 87.1844 123.076 87.4845 123.583C87.7846 124.08 88.2348 124.469 88.835 124.75C89.4352 125.032 90.1902 125.172 91.0998 125.172ZM99.2748 125.172C99.9032 125.172 100.438 125.027 100.878 124.736C101.319 124.436 101.629 124.047 101.807 123.569H101.891V125.046H103.34V117.604H101.948L101.891 119.067H101.807C101.629 118.589 101.319 118.204 100.878 117.914C100.438 117.623 99.9032 117.477 99.2748 117.477C98.3651 117.477 97.6289 117.806 97.0663 118.462C96.5129 119.119 96.2363 120.071 96.2363 121.318C96.2363 122.565 96.5129 123.522 97.0663 124.188C97.6289 124.844 98.3651 125.172 99.2748 125.172ZM99.7812 123.977C99.1623 123.977 98.6652 123.751 98.2901 123.301C97.915 122.851 97.7274 122.19 97.7274 121.318C97.7274 120.436 97.915 119.775 98.2901 119.334C98.6652 118.884 99.1623 118.659 99.7812 118.659C100.241 118.659 100.625 118.767 100.935 118.983C101.244 119.198 101.479 119.475 101.638 119.813C101.798 120.15 101.877 120.511 101.877 120.896V121.74C101.877 122.124 101.798 122.49 101.638 122.837C101.479 123.175 101.244 123.451 100.935 123.667C100.625 123.873 100.241 123.977 99.7812 123.977ZM105.37 125.046H106.819V114.791H105.37V125.046ZM111.927 125.172C112.517 125.172 113.047 125.074 113.516 124.877C113.995 124.671 114.384 124.389 114.684 124.033C114.984 123.667 115.167 123.24 115.232 122.753H113.854C113.76 123.137 113.54 123.447 113.193 123.681C112.846 123.906 112.424 124.019 111.927 124.019C111.28 124.019 110.759 123.812 110.365 123.4C109.981 122.978 109.779 122.382 109.76 121.613H115.275C115.35 120.835 115.27 120.136 115.035 119.517C114.801 118.889 114.417 118.397 113.882 118.04C113.357 117.674 112.686 117.492 111.87 117.492C111.148 117.492 110.52 117.651 109.985 117.97C109.451 118.289 109.038 118.739 108.747 119.32C108.466 119.892 108.325 120.572 108.325 121.36C108.325 122.12 108.471 122.786 108.761 123.358C109.052 123.93 109.465 124.375 109.999 124.694C110.543 125.013 111.186 125.172 111.927 125.172ZM111.856 118.631C112.41 118.631 112.874 118.786 113.249 119.095C113.633 119.405 113.835 119.902 113.854 120.586H109.788C109.845 119.977 110.056 119.498 110.421 119.151C110.797 118.804 111.275 118.631 111.856 118.631ZM119.612 125.186C120.587 125.186 121.356 125.003 121.919 124.638C122.482 124.263 122.763 123.695 122.763 122.936C122.763 122.363 122.632 121.932 122.369 121.641C122.116 121.341 121.774 121.126 121.342 120.994C120.911 120.854 120.437 120.75 119.922 120.685C119.293 120.6 118.829 120.483 118.529 120.333C118.238 120.183 118.093 119.925 118.093 119.559C118.093 119.241 118.224 118.983 118.487 118.786C118.749 118.589 119.124 118.49 119.612 118.49C120.09 118.49 120.47 118.598 120.752 118.814C121.033 119.02 121.178 119.348 121.188 119.799H122.608C122.599 119.076 122.332 118.509 121.807 118.096C121.281 117.674 120.559 117.463 119.64 117.463C118.74 117.463 118.013 117.66 117.46 118.054C116.916 118.439 116.644 118.987 116.644 119.7C116.644 120.206 116.766 120.6 117.01 120.882C117.253 121.163 117.586 121.374 118.008 121.515C118.44 121.655 118.937 121.768 119.5 121.852C120.128 121.946 120.583 122.068 120.864 122.218C121.145 122.368 121.286 122.65 121.286 123.062C121.286 123.409 121.145 123.681 120.864 123.878C120.592 124.066 120.189 124.159 119.654 124.159C119.138 124.159 118.712 124.047 118.374 123.822C118.037 123.587 117.868 123.217 117.868 122.71H116.433C116.433 123.451 116.705 124.052 117.249 124.511C117.802 124.961 118.59 125.186 119.612 125.186Z" fill="#7E89AC"/>
</g>
<defs>
<clipPath id="clip0_4470_48528">
<rect width="210.005" height="210.005" fill="white"/>
</clipPath>
</defs>
</svg>
