<svg width="624" height="318" viewBox="0 0 624 318" fill="none" xmlns="http://www.w3.org/2000/svg">
<g clip-path="url(#clip0_4502_46013)">
<path d="M42.2656 285.864L623.143 285.864" stroke="#37446B" stroke-width="0.6"/>
<path d="M42.2656 216.835L623.143 216.835" stroke="#37446B" stroke-width="0.6"/>
<path d="M42.2656 147.808L623.143 147.807" stroke="#37446B" stroke-width="0.6"/>
<path d="M42.2656 78.7783L623.143 78.7782" stroke="#37446B" stroke-width="0.6"/>
<path d="M42.2656 9.74915L623.143 9.74907" stroke="#37446B" stroke-width="0.6"/>
<path d="M309.443 285.977L309.443 11.124" stroke="#37446B" stroke-width="0.6" stroke-dasharray="5 5"/>
<path d="M355.02 285.977L355.02 11.124" stroke="#37446B" stroke-width="0.6" stroke-dasharray="5 5"/>
<path d="M401.565 284.602L401.565 9.74902" stroke="#37446B" stroke-width="0.6" stroke-dasharray="5 5"/>
<path d="M451.02 284.602L451.02 9.74902" stroke="#37446B" stroke-width="0.6" stroke-dasharray="5 5"/>
<path d="M64.1074 285.977L64.1074 11.124" stroke="#37446B" stroke-width="0.6" stroke-dasharray="5 5"/>
<path d="M112.107 284.604L112.107 9.75097" stroke="#37446B" stroke-width="0.6" stroke-dasharray="5 5"/>
<path d="M161.562 284.604L161.563 9.75097" stroke="#37446B" stroke-width="0.6" stroke-dasharray="5 5"/>
<path d="M211.018 284.604L211.018 9.75097" stroke="#37446B" stroke-width="0.6" stroke-dasharray="5 5"/>
<path d="M260.473 284.604L260.473 9.75097" stroke="#37446B" stroke-width="0.6" stroke-dasharray="5 5"/>
<path d="M499.99 284.604L499.99 9.75097" stroke="#37446B" stroke-width="0.6" stroke-dasharray="5 5"/>
<path d="M548.961 284.604L548.961 9.75097" stroke="#37446B" stroke-width="0.6" stroke-dasharray="5 5"/>
<path d="M598.9 284.604L598.9 9.75097" stroke="#37446B" stroke-width="0.6" stroke-dasharray="5 5"/>
<path d="M57.0033 314.057C58.2533 314.057 59.0533 313.477 59.0533 312.077V306.687H57.9733V311.987C57.9733 312.797 57.5633 313.147 56.8033 313.147C56.4733 313.147 56.2033 313.067 56.0133 312.957V313.847C56.2333 313.967 56.6033 314.057 57.0033 314.057ZM62.4555 314.067C63.3455 314.067 64.0055 313.607 64.2555 312.927H64.3155V313.977H65.3455V308.687H64.3555L64.3155 309.727H64.2555C64.0055 309.047 63.3455 308.597 62.4555 308.597C61.1655 308.597 60.2955 309.557 60.2955 311.327C60.2955 313.097 61.1655 314.067 62.4555 314.067ZM62.8155 313.217C61.9355 313.217 61.3555 312.567 61.3555 311.327C61.3555 310.077 61.9355 309.437 62.8155 309.437C63.7955 309.437 64.3055 310.217 64.3055 311.027V311.627C64.3055 312.447 63.7955 313.217 62.8155 313.217ZM66.7884 313.977H67.8084V311.087C67.8084 310.177 68.3784 309.457 69.2884 309.457C70.1284 309.457 70.5184 309.967 70.5184 311.047V313.977H71.5484V310.837C71.5484 309.217 70.7384 308.607 69.6584 308.607C68.8784 308.607 68.1784 308.987 67.8684 309.737H67.8084L67.7684 308.687H66.7884V313.977Z" fill="#AEB9E1"/>
<path d="M104.743 313.977H105.833V310.867H109.433V309.967H105.833V307.627H109.833V306.687H104.743V313.977ZM112.945 314.067C114.195 314.067 115.155 313.387 115.295 312.347H114.315C114.185 312.897 113.655 313.247 112.945 313.247C112.025 313.247 111.425 312.627 111.405 311.537H115.325C115.485 309.877 114.645 308.607 112.905 308.607C111.355 308.607 110.385 309.687 110.385 311.357C110.385 312.987 111.355 314.067 112.945 314.067ZM112.895 309.417C113.675 309.417 114.285 309.827 114.315 310.807H111.425C111.505 309.947 112.065 309.417 112.895 309.417ZM119.329 314.067C120.619 314.067 121.489 313.107 121.489 311.337C121.489 309.567 120.619 308.597 119.329 308.597C118.439 308.597 117.779 309.057 117.529 309.727H117.469V306.687H116.439V313.977H117.429L117.469 312.937H117.529C117.779 313.617 118.439 314.067 119.329 314.067ZM118.969 313.217C117.989 313.217 117.479 312.447 117.479 311.627V311.037C117.479 310.217 117.989 309.447 118.969 309.447C119.849 309.447 120.429 310.087 120.429 311.337C120.429 312.577 119.849 313.217 118.969 313.217Z" fill="#AEB9E1"/>
<path d="M153.743 313.977H154.813V310.577L154.793 307.837H154.863L157.033 313.977H157.903L160.073 307.837H160.143L160.113 310.567V313.977H161.173V306.687H159.513L157.483 312.267H157.443L155.413 306.687H153.743V313.977ZM164.583 314.067C165.473 314.067 166.133 313.607 166.383 312.927H166.443V313.977H167.473V308.687H166.483L166.443 309.727H166.383C166.133 309.047 165.473 308.597 164.583 308.597C163.293 308.597 162.423 309.557 162.423 311.327C162.423 313.097 163.293 314.067 164.583 314.067ZM164.943 313.217C164.063 313.217 163.483 312.567 163.483 311.327C163.483 310.077 164.063 309.437 164.943 309.437C165.923 309.437 166.433 310.217 166.433 311.027V311.627C166.433 312.447 165.923 313.217 164.943 313.217ZM168.915 313.977H169.935V310.957C169.985 310.087 170.515 309.597 171.455 309.597C171.575 309.597 171.695 309.597 171.775 309.607V308.637C171.685 308.627 171.585 308.617 171.465 308.617C170.765 308.617 170.165 308.947 169.935 309.627H169.885L169.835 308.687H168.915V313.977Z" fill="#AEB9E1"/>
<path d="M203.893 313.977H205.033L205.633 312.277H208.863L209.463 313.977H210.603L208.013 306.687H206.483L203.893 313.977ZM205.893 311.427L206.713 309.177L207.223 307.687H207.283L207.793 309.177L208.593 311.427H205.893ZM211.341 315.647H212.371V312.937H212.431C212.691 313.617 213.351 314.067 214.231 314.067C215.521 314.067 216.391 313.107 216.391 311.337C216.391 309.567 215.521 308.597 214.231 308.597C213.351 308.597 212.691 309.057 212.431 309.727H212.371L212.331 308.687H211.341V315.647ZM213.871 313.217C212.891 313.217 212.381 312.447 212.381 311.627V311.037C212.381 310.217 212.891 309.447 213.871 309.447C214.751 309.447 215.341 310.087 215.341 311.337C215.341 312.577 214.751 313.217 213.871 313.217ZM217.484 313.977H218.504V310.957C218.554 310.087 219.084 309.597 220.024 309.597C220.144 309.597 220.264 309.597 220.344 309.607V308.637C220.254 308.627 220.154 308.617 220.034 308.617C219.334 308.617 218.734 308.947 218.504 309.627H218.454L218.404 308.687H217.484V313.977Z" fill="#AEB9E1"/>
<path d="M252.743 313.977H253.813V310.577L253.793 307.837H253.863L256.033 313.977H256.903L259.073 307.837H259.143L259.113 310.567V313.977H260.173V306.687H258.513L256.483 312.267H256.443L254.413 306.687H252.743V313.977ZM263.583 314.067C264.473 314.067 265.133 313.607 265.383 312.927H265.443V313.977H266.473V308.687H265.483L265.443 309.727H265.383C265.133 309.047 264.473 308.597 263.583 308.597C262.293 308.597 261.423 309.557 261.423 311.327C261.423 313.097 262.293 314.067 263.583 314.067ZM263.943 313.217C263.063 313.217 262.483 312.567 262.483 311.327C262.483 310.077 263.063 309.437 263.943 309.437C264.923 309.437 265.433 310.217 265.433 311.027V311.627C265.433 312.447 264.923 313.217 263.943 313.217ZM267.565 315.647H268.305C269.135 315.647 269.665 315.357 270.005 314.437L272.205 308.687H271.115L269.975 311.907L269.765 312.537H269.725L269.505 311.907L268.295 308.687H267.165L269.245 313.597L269.015 314.187C268.845 314.607 268.605 314.797 268.135 314.797H267.565V315.647Z" fill="#AEB9E1"/>
<path d="M305.003 314.057C306.253 314.057 307.053 313.477 307.053 312.077V306.687H305.973V311.987C305.973 312.797 305.563 313.147 304.803 313.147C304.473 313.147 304.203 313.067 304.013 312.957V313.847C304.233 313.967 304.603 314.057 305.003 314.057ZM310.506 314.067C311.326 314.067 312.016 313.637 312.276 312.907H312.336L312.386 313.977H313.366V308.687H312.336V311.547C312.336 312.517 311.756 313.207 310.886 313.207C309.996 313.207 309.636 312.667 309.636 311.687V308.687H308.606V311.947C308.606 313.347 309.306 314.067 310.506 314.067ZM314.759 313.977H315.779V311.087C315.779 310.177 316.349 309.457 317.259 309.457C318.099 309.457 318.489 309.967 318.489 311.047V313.977H319.519V310.837C319.519 309.217 318.709 308.607 317.629 308.607C316.849 308.607 316.149 308.987 315.839 309.737H315.779L315.739 308.687H314.759V313.977Z" fill="#AEB9E1"/>
<path d="M353.003 314.057C354.253 314.057 355.053 313.477 355.053 312.077V306.687H353.973V311.987C353.973 312.797 353.563 313.147 352.803 313.147C352.473 313.147 352.203 313.067 352.013 312.957V313.847C352.233 313.967 352.603 314.057 353.003 314.057ZM358.506 314.067C359.326 314.067 360.016 313.637 360.276 312.907H360.336L360.386 313.977H361.366V308.687H360.336V311.547C360.336 312.517 359.756 313.207 358.886 313.207C357.996 313.207 357.636 312.667 357.636 311.687V308.687H356.606V311.947C356.606 313.347 357.306 314.067 358.506 314.067ZM362.759 313.977H363.789V306.687H362.759V313.977Z" fill="#AEB9E1"/>
<path d="M395.893 313.977H397.033L397.633 312.277H400.863L401.463 313.977H402.603L400.013 306.687H398.483L395.893 313.977ZM397.893 311.427L398.713 309.177L399.223 307.687H399.283L399.793 309.177L400.593 311.427H397.893ZM404.996 314.067C405.816 314.067 406.506 313.637 406.766 312.907H406.826L406.876 313.977H407.856V308.687H406.826V311.547C406.826 312.517 406.246 313.207 405.376 313.207C404.486 313.207 404.126 312.667 404.126 311.687V308.687H403.096V311.947C403.096 313.347 403.796 314.067 404.996 314.067ZM411.3 315.747C412.79 315.747 413.8 315.147 413.8 313.487V308.687H412.8L412.78 309.667H412.71C412.47 309.027 411.83 308.597 410.99 308.597C409.71 308.597 408.85 309.517 408.85 311.137C408.85 312.747 409.69 313.667 410.98 313.667C411.82 313.667 412.47 313.237 412.71 312.597H412.78V313.627C412.78 314.607 412.27 314.987 411.32 314.987C410.65 314.987 410.19 314.697 410.11 314.227H409.11C409.22 315.167 410.03 315.747 411.3 315.747ZM411.33 312.867C410.47 312.867 409.91 312.257 409.91 311.137C409.91 310.037 410.46 309.407 411.34 309.407C412.27 309.407 412.76 310.117 412.77 310.807L412.78 311.447C412.76 312.147 412.25 312.867 411.33 312.867Z" fill="#AEB9E1"/>
<path d="M449.183 314.067C451.043 314.067 452.033 313.217 452.033 311.967C452.033 310.287 450.823 309.967 449.533 309.757C448.133 309.507 447.583 309.347 447.583 308.537C447.583 307.877 448.133 307.447 449.093 307.447C450.033 307.447 450.663 307.867 450.693 308.737H451.803C451.783 307.457 450.803 306.607 449.133 306.607C447.463 306.607 446.453 307.407 446.453 308.687C446.453 309.937 447.313 310.427 448.983 310.717C450.413 310.957 450.903 311.197 450.903 312.067C450.903 312.837 450.223 313.207 449.203 313.207C447.963 313.207 447.423 312.627 447.403 311.697H446.283C446.303 313.097 447.243 314.067 449.183 314.067ZM455.395 314.067C456.645 314.067 457.605 313.387 457.745 312.347H456.765C456.635 312.897 456.105 313.247 455.395 313.247C454.475 313.247 453.875 312.627 453.855 311.537H457.775C457.935 309.877 457.095 308.607 455.355 308.607C453.805 308.607 452.835 309.687 452.835 311.357C452.835 312.987 453.805 314.067 455.395 314.067ZM455.345 309.417C456.125 309.417 456.735 309.827 456.765 310.807H453.875C453.955 309.947 454.515 309.417 455.345 309.417ZM458.888 315.647H459.918V312.937H459.978C460.238 313.617 460.898 314.067 461.778 314.067C463.068 314.067 463.938 313.107 463.938 311.337C463.938 309.567 463.068 308.597 461.778 308.597C460.898 308.597 460.238 309.057 459.978 309.727H459.918L459.878 308.687H458.888V315.647ZM461.418 313.217C460.438 313.217 459.928 312.447 459.928 311.627V311.037C459.928 310.217 460.438 309.447 461.418 309.447C462.298 309.447 462.888 310.087 462.888 311.337C462.888 312.577 462.298 313.217 461.418 313.217Z" fill="#AEB9E1"/>
<path d="M499.853 314.067C502.013 314.067 503.453 312.657 503.453 310.337C503.453 308.017 502.023 306.607 499.853 306.607C497.693 306.607 496.263 308.017 496.263 310.337C496.263 312.647 497.683 314.067 499.853 314.067ZM499.853 313.127C498.343 313.127 497.383 312.107 497.383 310.337C497.383 308.567 498.333 307.547 499.853 307.547C501.373 307.547 502.333 308.567 502.333 310.337C502.333 312.097 501.373 313.127 499.853 313.127ZM506.85 314.067C508.17 314.067 509.13 313.287 509.21 312.087H508.21C508.13 312.757 507.62 313.207 506.85 313.207C505.93 313.207 505.33 312.537 505.33 311.347C505.33 310.217 505.88 309.467 506.86 309.467C507.54 309.467 508.07 309.827 508.19 310.517H509.19C509.11 309.377 508.17 308.607 506.89 308.607C505.3 308.607 504.28 309.697 504.28 311.337C504.28 312.977 505.3 314.067 506.85 314.067ZM511.765 313.977H512.825V313.127H512.105C511.775 313.127 511.655 313.037 511.655 312.687V309.527H512.825V308.687H511.655V307.037L510.625 307.157V308.687H509.625V309.527H510.625V312.877C510.625 313.587 510.895 313.977 511.765 313.977Z" fill="#AEB9E1"/>
<path d="M545.743 313.977H546.853V310.477L546.813 308.207H546.873L550.643 313.977H551.923V306.687H550.863V310.087L550.923 312.527H550.853L547.083 306.687H545.743V313.977ZM555.753 314.067C557.343 314.067 558.333 312.957 558.333 311.337C558.333 309.657 557.293 308.607 555.753 308.607C554.153 308.607 553.163 309.717 553.163 311.347C553.163 313.007 554.203 314.067 555.753 314.067ZM555.753 313.207C554.813 313.207 554.213 312.527 554.213 311.347C554.213 310.127 554.833 309.457 555.753 309.457C556.703 309.457 557.283 310.147 557.283 311.337C557.283 312.537 556.673 313.207 555.753 313.207ZM560.444 313.977H561.704L563.584 308.687H562.474L561.414 311.947L561.094 313.087H561.054L560.714 311.947L559.654 308.687H558.544L560.444 313.977Z" fill="#AEB9E1"/>
<path d="M595.743 313.977H598.693C600.793 313.977 601.993 312.527 601.993 310.337C601.993 308.147 600.793 306.687 598.693 306.687H595.743V313.977ZM596.833 313.037V307.627H598.533C599.933 307.627 600.873 308.467 600.873 310.317C600.873 312.167 599.943 313.037 598.533 313.037H596.833ZM605.381 314.067C606.631 314.067 607.591 313.387 607.731 312.347H606.751C606.621 312.897 606.091 313.247 605.381 313.247C604.461 313.247 603.861 312.627 603.841 311.537H607.761C607.921 309.877 607.081 308.607 605.341 308.607C603.791 308.607 602.821 309.687 602.821 311.357C602.821 312.987 603.791 314.067 605.381 314.067ZM605.331 309.417C606.111 309.417 606.721 309.827 606.751 310.807H603.861C603.941 309.947 604.501 309.417 605.331 309.417ZM611.182 314.067C612.502 314.067 613.462 313.287 613.542 312.087H612.542C612.462 312.757 611.952 313.207 611.182 313.207C610.262 313.207 609.662 312.537 609.662 311.347C609.662 310.217 610.212 309.467 611.192 309.467C611.872 309.467 612.402 309.827 612.522 310.517H613.522C613.442 309.377 612.502 308.607 611.222 308.607C609.632 308.607 608.612 309.697 608.612 311.337C608.612 312.977 609.632 314.067 611.182 314.067Z" fill="#AEB9E1"/>
<path d="M19.1227 78.8483C20.6727 78.8483 21.7227 78.0783 21.7227 76.8583C21.7227 75.9783 21.2027 75.2683 20.2727 75.1583V75.1083C21.1827 74.9483 21.6027 74.2383 21.6027 73.4483C21.6027 72.2783 20.6627 71.4883 19.1227 71.4883C17.5927 71.4883 16.6527 72.2683 16.6527 73.4383C16.6527 74.2383 17.0927 74.9383 17.9927 75.1083V75.1583C17.0527 75.2883 16.5227 76.0283 16.5227 76.8683C16.5227 78.0883 17.5727 78.8483 19.1227 78.8483ZM19.1227 74.7283C18.1627 74.7283 17.7127 74.2383 17.7127 73.5383C17.7127 72.8083 18.2427 72.3483 19.1227 72.3483C19.9927 72.3483 20.5527 72.7983 20.5527 73.5383C20.5527 74.2083 20.1227 74.7283 19.1227 74.7283ZM19.1227 77.9583C18.2327 77.9583 17.6327 77.5083 17.6327 76.7283C17.6327 76.0783 18.0927 75.5583 19.1227 75.5583C20.1427 75.5583 20.6227 76.0483 20.6227 76.7283C20.6227 77.4883 20.0427 77.9583 19.1227 77.9583ZM25.1467 78.8583C26.6967 78.8583 27.7467 77.5683 27.7467 75.1683C27.7467 72.8283 26.7467 71.4883 25.1567 71.4883C23.5767 71.4883 22.5167 72.7683 22.5167 75.1583C22.5167 77.5083 23.5367 78.8583 25.1467 78.8583ZM25.1367 77.9783C24.1567 77.9783 23.5567 77.1483 23.5567 75.1683C23.5567 73.1783 24.1567 72.3583 25.1367 72.3583C26.1167 72.3583 26.7167 73.1883 26.7167 75.1683C26.7167 77.1483 26.1167 77.9783 25.1367 77.9783ZM28.9842 78.7783H30.0742V76.6083L31.3042 75.3083L33.6142 78.7783H34.9042L32.0442 74.5183L34.8542 71.4883H33.5342L30.0742 75.3083V71.4883H28.9842V78.7783Z" fill="#AEB9E1"/>
<path d="M19.6621 148.551H20.6921V146.781H21.6721V145.931H20.6921V141.341H19.3521L16.1221 145.981V146.781H19.6621V148.551ZM17.1721 145.931L19.6621 142.381V145.931H17.1721ZM25.1467 148.631C26.6967 148.631 27.7467 147.341 27.7467 144.941C27.7467 142.601 26.7467 141.261 25.1567 141.261C23.5767 141.261 22.5167 142.541 22.5167 144.931C22.5167 147.281 23.5367 148.631 25.1467 148.631ZM25.1367 147.751C24.1567 147.751 23.5567 146.921 23.5567 144.941C23.5567 142.951 24.1567 142.131 25.1367 142.131C26.1167 142.131 26.7167 142.961 26.7167 144.941C26.7167 146.921 26.1167 147.751 25.1367 147.751ZM28.9842 148.551H30.0742V146.381L31.3042 145.081L33.6142 148.551H34.9042L32.0442 144.291L34.8542 141.261H33.5342L30.0742 145.081V141.261H28.9842V148.551Z" fill="#AEB9E1"/>
<path d="M16.8448 217.264H21.6848V216.354H18.1348C18.4948 214.794 21.6048 214.254 21.6048 212.054C21.6048 210.794 20.6848 209.964 19.2848 209.964C17.8148 209.964 16.8248 210.884 16.8648 212.294H17.8748C17.8248 211.394 18.3948 210.854 19.2248 210.854C20.0148 210.854 20.5348 211.344 20.5348 212.104C20.5348 213.944 16.8448 214.274 16.8448 217.084V217.264ZM25.1467 217.344C26.6967 217.344 27.7467 216.054 27.7467 213.654C27.7467 211.314 26.7467 209.974 25.1567 209.974C23.5767 209.974 22.5167 211.254 22.5167 213.644C22.5167 215.994 23.5367 217.344 25.1467 217.344ZM25.1367 216.464C24.1567 216.464 23.5567 215.634 23.5567 213.654C23.5567 211.664 24.1567 210.844 25.1367 210.844C26.1167 210.844 26.7167 211.674 26.7167 213.654C26.7167 215.634 26.1167 216.464 25.1367 216.464ZM28.9842 217.264H30.0742V215.094L31.3042 213.794L33.6142 217.264H34.9042L32.0442 213.004L34.8542 209.974H33.5342L30.0742 213.794V209.974H28.9842V217.264Z" fill="#AEB9E1"/>
<path d="M25.1467 286.057C26.6967 286.057 27.7467 284.767 27.7467 282.367C27.7467 280.027 26.7467 278.687 25.1567 278.687C23.5767 278.687 22.5167 279.967 22.5167 282.357C22.5167 284.707 23.5367 286.057 25.1467 286.057ZM25.1367 285.177C24.1567 285.177 23.5567 284.347 23.5567 282.367C23.5567 280.377 24.1567 279.557 25.1367 279.557C26.1167 279.557 26.7167 280.387 26.7167 282.367C26.7167 284.347 26.1167 285.177 25.1367 285.177ZM28.9842 285.977H30.0742V283.807L31.3042 282.507L33.6142 285.977H34.9042L32.0442 281.717L34.8542 278.687H33.5342L30.0742 282.507V278.687H28.9842V285.977Z" fill="#AEB9E1"/>
<path d="M14.197 10H15.227V2.79H14.237C14.167 3.51 13.697 3.99 12.737 3.99H12.457V4.78H14.197V10ZM19.2092 10.08C20.7592 10.08 21.8092 8.79 21.8092 6.39C21.8092 4.05 20.8092 2.71 19.2192 2.71C17.6392 2.71 16.5792 3.99 16.5792 6.38C16.5792 8.73 17.5992 10.08 19.2092 10.08ZM19.1992 9.2C18.2192 9.2 17.6192 8.37 17.6192 6.39C17.6192 4.4 18.2192 3.58 19.1992 3.58C20.1792 3.58 20.7792 4.41 20.7792 6.39C20.7792 8.37 20.1792 9.2 19.1992 9.2ZM25.1467 10.08C26.6967 10.08 27.7467 8.79 27.7467 6.39C27.7467 4.05 26.7467 2.71 25.1567 2.71C23.5767 2.71 22.5167 3.99 22.5167 6.38C22.5167 8.73 23.5367 10.08 25.1467 10.08ZM25.1367 9.2C24.1567 9.2 23.5567 8.37 23.5567 6.39C23.5567 4.4 24.1567 3.58 25.1367 3.58C26.1167 3.58 26.7167 4.41 26.7167 6.39C26.7167 8.37 26.1167 9.2 25.1367 9.2ZM28.9842 10H30.0742V7.83L31.3042 6.53L33.6142 10H34.9042L32.0442 5.74L34.8542 2.71H33.5342L30.0742 6.53V2.71H28.9842V10Z" fill="#AEB9E1"/>
<rect x="60.4766" y="216.836" width="7.25989" height="69.1402" fill="#6C72FF"/>
<rect x="60.4766" y="198.596" width="7.25989" height="38.5" fill="#9A91FB"/>
<rect width="7.25989" height="41.75" transform="matrix(1 0 0 -1 60.4766 198.596)" fill="#57C3FF"/>
<rect x="110.234" y="179.186" width="7.25989" height="106.791" fill="#6C72FF"/>
<rect width="7.25989" height="26.6348" transform="matrix(1 0 0 -1 110.234 179.186)" fill="#9A91FB"/>
<rect x="110.234" y="90.3457" width="7.25989" height="62.2051" fill="#57C3FF"/>
<rect x="157.605" y="152.551" width="7.25989" height="133.425" fill="#6C72FF"/>
<rect width="7.25989" height="62.2051" transform="matrix(1 0 0 -1 157.605 152.551)" fill="#9A91FB"/>
<path d="M157.605 47.8457C157.605 46.7411 158.501 45.8457 159.605 45.8457H162.865C163.97 45.8457 164.865 46.7411 164.865 47.8457V90.3457H157.605V47.8457Z" fill="#57C3FF"/>
<rect x="207.387" y="136.346" width="7.25989" height="149.63" fill="#6C72FF"/>
<rect x="207.387" y="136.346" width="7.25989" height="20.5" fill="#9A91FB"/>
<path d="M207.387 136.346H214.647V95.8457C214.647 94.7411 213.751 93.8457 212.647 93.8457H209.387C208.282 93.8457 207.387 94.7411 207.387 95.8457V136.346Z" fill="#57C3FF"/>
<rect x="256.844" y="179.186" width="7.25989" height="106.791" fill="#6C72FF"/>
<rect x="256.844" y="179.186" width="7.25989" height="54.4102" fill="#9A91FB"/>
<rect x="256.844" y="179.186" width="7.25989" height="20.6602" fill="#57C3FF"/>
<rect x="305.812" y="109.939" width="7.25989" height="176.037" fill="#6C72FF"/>
<rect x="305.812" y="112.814" width="7.25989" height="83.0312" fill="#9A91FB"/>
<path d="M305.812 102.846C305.812 101.741 306.708 100.846 307.812 100.846H311.072C312.177 100.846 313.072 101.741 313.072 102.846V126.346H305.812V102.846Z" fill="#57C3FF"/>
<rect x="351.391" y="225.644" width="7.25989" height="60.2216" fill="#6C72FF"/>
<rect x="351.391" y="225.644" width="7.25989" height="23.2021" fill="#9A91FB"/>
<rect x="397.934" y="131.846" width="7.25989" height="154.13" fill="#6C72FF"/>
<rect x="397.934" y="131.846" width="7.25989" height="13.5" fill="#9A91FB"/>
<path d="M397.934 42.3457C397.934 41.2411 398.829 40.3457 399.934 40.3457H403.193C404.298 40.3457 405.193 41.2411 405.193 42.3457V131.846H397.934V42.3457Z" fill="#57C3FF"/>
<rect x="447.391" y="199.846" width="7.25989" height="86.0191" fill="#6C72FF"/>
<rect x="447.391" y="199.846" width="7.25989" height="38.75" fill="#9A91FB"/>
<path d="M447.391 199.846H454.651V154.551C454.651 153.446 453.755 152.551 452.651 152.551H449.391C448.286 152.551 447.391 153.446 447.391 154.551V199.846Z" fill="#57C3FF"/>
<rect x="496.359" y="259.846" width="7.25989" height="26.1305" fill="#6C72FF"/>
<rect x="496.359" y="208.846" width="7.25989" height="58" fill="#9A91FB"/>
<path d="M496.359 208.846H503.619V121.346C503.619 120.241 502.724 119.346 501.619 119.346H498.359C497.255 119.346 496.359 120.241 496.359 121.346V208.846Z" fill="#57C3FF"/>
<rect x="545.331" y="156.064" width="7.25989" height="129.801" fill="#6C72FF"/>
<rect x="545.331" y="152.551" width="7.25989" height="78.5449" fill="#9A91FB"/>
<path d="M545.332 138.346C545.332 137.241 546.227 136.346 547.332 136.346H550.592C551.696 136.346 552.592 137.241 552.592 138.346V176.346H545.332V138.346Z" fill="#57C3FF"/>
<rect x="595.27" y="179.186" width="7.25989" height="106.791" fill="#6C72FF"/>
<rect x="595.27" y="179.186" width="7.25989" height="17.4102" fill="#9A91FB"/>
<path d="M595.27 179.186H602.529V102.846C602.529 101.741 601.634 100.846 600.529 100.846H597.27C596.165 100.846 595.27 101.741 595.27 102.846V179.186Z" fill="#57C3FF"/>
</g>
<defs>
<clipPath id="clip0_4502_46013">
<rect width="624" height="318" fill="white"/>
</clipPath>
</defs>
</svg>
