<svg width="12" height="12" viewBox="0 0 12 12" fill="none" xmlns="http://www.w3.org/2000/svg">
<g clip-path="url(#clip0_4518_47844)">
<path d="M6.55078 8.75073H10.9525" stroke="white" stroke-width="1.2" stroke-linecap="round" stroke-linejoin="round"/>
<path d="M1.04883 8.75073H3.24971" stroke="white" stroke-width="1.2" stroke-linecap="round" stroke-linejoin="round"/>
<path fill-rule="evenodd" clip-rule="evenodd" d="M6.54937 8.751C6.54937 9.07744 6.45258 9.39655 6.27123 9.66798C6.08989 9.93942 5.83213 10.151 5.53056 10.2759C5.22898 10.4009 4.89713 10.4336 4.57695 10.37C4.25677 10.3064 3.96265 10.1492 3.73177 9.91845C3.5009 9.68768 3.34363 9.39363 3.27985 9.07348C3.21608 8.75333 3.24866 8.42146 3.37349 8.11983C3.49831 7.8182 3.70976 7.56035 3.98112 7.37889C4.25247 7.19742 4.57154 7.10049 4.89797 7.10034C5.1148 7.10025 5.32953 7.14287 5.52988 7.22578C5.73023 7.30869 5.91229 7.43026 6.06564 7.58355C6.219 7.73684 6.34065 7.91884 6.42365 8.11915C6.50665 8.31947 6.54937 8.53417 6.54937 8.751Z" stroke="white" stroke-width="1.2" stroke-linecap="round" stroke-linejoin="round"/>
<path d="M7.65147 3.2489H1.04883" stroke="white" stroke-width="1.2" stroke-linecap="round" stroke-linejoin="round"/>
<path fill-rule="evenodd" clip-rule="evenodd" d="M10.9517 3.24905C10.9517 2.92261 10.8549 2.6035 10.6736 2.33207C10.4922 2.06063 10.2345 1.84906 9.9329 1.72411C9.63132 1.59915 9.29947 1.56642 8.97929 1.63005C8.65912 1.69368 8.365 1.85082 8.13412 2.0816C7.90324 2.31237 7.74597 2.60642 7.6822 2.92657C7.61842 3.24672 7.65101 3.57859 7.77583 3.88022C7.90065 4.18185 8.11211 4.4397 8.38346 4.62117C8.65481 4.80263 8.97388 4.89956 9.30032 4.89971C9.73817 4.89971 10.1581 4.72582 10.4678 4.41629C10.7774 4.10675 10.9515 3.6869 10.9517 3.24905Z" stroke="white" stroke-width="1.2" stroke-linecap="round" stroke-linejoin="round"/>
</g>
<defs>
<clipPath id="clip0_4518_47844">
<rect width="12" height="12" fill="white"/>
</clipPath>
</defs>
</svg>
