<svg width="357" height="357" viewBox="0 0 357 357" fill="none" xmlns="http://www.w3.org/2000/svg">
<g filter="url(#filter0_d)">
<rect width="269" height="269" transform="translate(38 31)" fill="white"/>
<rect x="38" y="31" width="269" height="269" fill="white"/>
<path d="M78.812 89.36C80.012 89.36 81.1 89.16 82.076 88.76C83.052 88.36 83.828 87.776 84.404 87.008C84.988 86.232 85.28 85.288 85.28 84.176C85.28 83.344 85.128 82.656 84.824 82.112C84.52 81.56 84.136 81.12 83.672 80.792C83.208 80.456 82.728 80.196 82.232 80.012C81.744 79.828 81.312 79.684 80.936 79.58L77.648 78.632C77.224 78.512 76.788 78.36 76.34 78.176C75.892 77.984 75.516 77.728 75.212 77.408C74.916 77.08 74.768 76.652 74.768 76.124C74.768 75.588 74.932 75.116 75.26 74.708C75.596 74.292 76.048 73.968 76.616 73.736C77.192 73.504 77.832 73.392 78.536 73.4C79.632 73.408 80.588 73.72 81.404 74.336C82.228 74.944 82.728 75.772 82.904 76.82L85.172 76.424C84.852 74.848 84.104 73.616 82.928 72.728C81.76 71.832 80.304 71.38 78.56 71.372C77.416 71.364 76.384 71.552 75.464 71.936C74.552 72.32 73.832 72.876 73.304 73.604C72.776 74.324 72.512 75.196 72.512 76.22C72.512 77.068 72.688 77.772 73.04 78.332C73.4 78.892 73.864 79.34 74.432 79.676C75.008 80.004 75.616 80.264 76.256 80.456L80.66 81.764C81.276 81.948 81.832 82.228 82.328 82.604C82.824 82.972 83.072 83.536 83.072 84.296C83.072 84.92 82.884 85.46 82.508 85.916C82.14 86.372 81.644 86.724 81.02 86.972C80.396 87.212 79.696 87.332 78.92 87.332C77.712 87.332 76.668 87.028 75.788 86.42C74.908 85.804 74.328 84.952 74.048 83.864L71.84 84.212C72.032 85.268 72.444 86.184 73.076 86.96C73.716 87.728 74.524 88.32 75.5 88.736C76.484 89.152 77.588 89.36 78.812 89.36ZM86.9572 89H89.1772L90.5332 84.956H97.9132L99.2812 89H101.501L95.7172 71.72H92.7412L86.9572 89ZM91.2052 82.952L94.2052 73.964L97.2412 82.952H91.2052ZM104.249 89H114.401V86.972H106.385V71.72H104.249V89ZM116.791 89H127.711V86.972H118.927V81.188H126.271V79.16H118.927V73.748H127.711V71.72H116.791V89ZM136.619 89.36C137.819 89.36 138.907 89.16 139.883 88.76C140.859 88.36 141.635 87.776 142.211 87.008C142.795 86.232 143.087 85.288 143.087 84.176C143.087 83.344 142.935 82.656 142.631 82.112C142.327 81.56 141.943 81.12 141.479 80.792C141.015 80.456 140.535 80.196 140.039 80.012C139.551 79.828 139.119 79.684 138.743 79.58L135.455 78.632C135.031 78.512 134.595 78.36 134.147 78.176C133.699 77.984 133.323 77.728 133.019 77.408C132.723 77.08 132.575 76.652 132.575 76.124C132.575 75.588 132.739 75.116 133.067 74.708C133.403 74.292 133.855 73.968 134.423 73.736C134.999 73.504 135.639 73.392 136.343 73.4C137.439 73.408 138.395 73.72 139.211 74.336C140.035 74.944 140.535 75.772 140.711 76.82L142.979 76.424C142.659 74.848 141.911 73.616 140.735 72.728C139.567 71.832 138.111 71.38 136.367 71.372C135.223 71.364 134.191 71.552 133.271 71.936C132.359 72.32 131.639 72.876 131.111 73.604C130.583 74.324 130.319 75.196 130.319 76.22C130.319 77.068 130.495 77.772 130.847 78.332C131.207 78.892 131.671 79.34 132.239 79.676C132.815 80.004 133.423 80.264 134.063 80.456L138.467 81.764C139.083 81.948 139.639 82.228 140.135 82.604C140.631 82.972 140.879 83.536 140.879 84.296C140.879 84.92 140.691 85.46 140.315 85.916C139.947 86.372 139.451 86.724 138.827 86.972C138.203 87.212 137.503 87.332 136.727 87.332C135.519 87.332 134.475 87.028 133.595 86.42C132.715 85.804 132.135 84.952 131.855 83.864L129.647 84.212C129.839 85.268 130.251 86.184 130.883 86.96C131.523 87.728 132.331 88.32 133.307 88.736C134.291 89.152 135.395 89.36 136.619 89.36Z" fill="black"/>
<path d="M104.275 219.467C80.3137 219.467 95.098 207.311 64 193.636V300H272V144C267.922 150.247 257.827 163.854 250.078 168.311C240.392 173.883 229.686 163.753 211.333 168.311C192.98 172.87 197.569 187.558 180.235 193.636C162.902 199.714 159.333 193.636 142 201.233C124.667 208.831 128.235 219.467 104.275 219.467Z" fill="url(#paint0_linear)"/>
<path d="M66 193C96.5 206.5 82 218.5 105.5 218.5C129 218.5 125.5 208 142.5 200.5C159.5 193 163 199 180 193C197 187 192.5 172.5 210.5 168C228.5 163.5 239 173.5 248.5 168C256.1 163.6 266 150.167 270 144" stroke="#FF7527" stroke-width="4" stroke-linecap="round"/>
<circle cx="272" cy="141" r="7" fill="white" stroke="#FF7527" stroke-width="4"/>
</g>
<defs>
<filter id="filter0_d" x="0" y="0" width="357" height="357" filterUnits="userSpaceOnUse" color-interpolation-filters="sRGB">
<feFlood flood-opacity="0" result="BackgroundImageFix"/>
<feColorMatrix in="SourceAlpha" type="matrix" values="0 0 0 0 0 0 0 0 0 0 0 0 0 0 0 0 0 0 127 0" result="hardAlpha"/>
<feOffset dx="6" dy="13"/>
<feGaussianBlur stdDeviation="22"/>
<feComposite in2="hardAlpha" operator="out"/>
<feColorMatrix type="matrix" values="0 0 0 0 0 0 0 0 0 0.285073 0 0 0 0 0.654167 0 0 0 0.07 0"/>
<feBlend mode="normal" in2="BackgroundImageFix" result="effect1_dropShadow"/>
<feBlend mode="normal" in="SourceGraphic" in2="effect1_dropShadow" result="shape"/>
</filter>
<linearGradient id="paint0_linear" x1="168" y1="166.286" x2="168" y2="300" gradientUnits="userSpaceOnUse">
<stop stop-color="#FFB68C"/>
<stop offset="1" stop-color="#FFC9AB" stop-opacity="0.37"/>
</linearGradient>
</defs>
</svg>
