<svg width="28" height="28" viewBox="0 0 28 28" fill="none" xmlns="http://www.w3.org/2000/svg">
<g clip-path="url(#clip0_4444_42528)">
<path fill-rule="evenodd" clip-rule="evenodd" d="M10.4692 0.91539C10.0104 0.91539 9.63846 1.28734 9.63846 1.74616L9.63846 9.63846C4.82084 9.63846 0.91539 13.5439 0.91539 18.3615C0.91539 23.1792 4.82085 27.0846 9.63847 27.0846H17.5308C17.9896 27.0846 18.3615 26.7127 18.3615 26.2538V18.3615C23.1792 18.3615 27.0846 14.4561 27.0846 9.63846C27.0846 4.82084 23.1792 0.91539 18.3615 0.91539H10.4692ZM18.3615 18.3615V10.4692C18.3615 10.0104 17.9896 9.63846 17.5308 9.63846H9.63846L9.63846 17.5308C9.63846 17.9896 10.0104 18.3615 10.4692 18.3615H18.3615Z" fill="#6C72FF"/>
<path d="M10.3757 0.91539C9.96853 0.91539 9.63849 1.24543 9.63849 1.65255L9.63849 9.63846H17.6244C18.0315 9.63846 18.3616 9.9685 18.3616 10.3756L18.3616 18.3615C23.1792 18.3615 27.0846 14.4561 27.0846 9.63846C27.0846 4.82084 23.1792 0.91539 18.3616 0.91539H10.3757Z" fill="#57C3FF"/>
</g>
<defs>
<clipPath id="clip0_4444_42528">
<rect width="28" height="28" fill="white"/>
</clipPath>
</defs>
</svg>
