<svg width="8" height="8" viewBox="0 0 8 8" fill="none" xmlns="http://www.w3.org/2000/svg">
<g clip-path="url(#clip0_4502_46089)">
<path d="M3.75925 0.320794C3.86694 0.135907 4.13404 0.135907 4.24172 0.320794L5.38259 2.27954C5.42204 2.34727 5.48814 2.3953 5.56474 2.41188L7.78017 2.89163C7.98929 2.93691 8.07183 3.19094 7.92927 3.35049L6.41893 5.0408C6.36671 5.09925 6.34146 5.17696 6.34936 5.25493L6.5777 7.51018C6.59925 7.72305 6.38316 7.88005 6.18737 7.79377L4.11306 6.8797C4.04134 6.84809 3.95964 6.84809 3.88791 6.8797L1.81361 7.79377C1.61781 7.88005 1.40172 7.72305 1.42328 7.51018L1.65162 5.25493C1.65952 5.17696 1.63427 5.09925 1.58204 5.0408L0.0717113 3.35049C-0.0708493 3.19094 0.0116885 2.93691 0.220803 2.89163L2.43623 2.41188C2.51283 2.3953 2.57894 2.34727 2.61838 2.27954L3.75925 0.320794Z" fill="#FDB52A"/>
</g>
<defs>
<clipPath id="clip0_4502_46089">
<rect width="8" height="8" fill="white"/>
</clipPath>
</defs>
</svg>
