<svg width="10" height="10" viewBox="0 0 10 10" fill="none" xmlns="http://www.w3.org/2000/svg">
<g clip-path="url(#clip0_4502_46038)">
<path d="M9.16667 0H0.833333C0.61232 0 0.400358 0.0877973 0.244078 0.244078C0.0877973 0.400358 0 0.61232 0 0.833333V9.16667C0 9.38768 0.0877973 9.59964 0.244078 9.75592C0.400358 9.9122 0.61232 10 0.833333 10H9.16667C9.38768 10 9.59964 9.9122 9.75592 9.75592C9.9122 9.59964 10 9.38768 10 9.16667V0.833333C10 0.61232 9.9122 0.400358 9.75592 0.244078C9.59964 0.0877973 9.38768 0 9.16667 0V0ZM7.57812 4.05208L4.52604 6.96875C4.44714 7.04298 4.3427 7.084 4.23438 7.08333C4.12764 7.08374 4.02493 7.04265 3.94792 6.96875L2.42187 5.51042C2.37955 5.47349 2.34513 5.42838 2.32067 5.37781C2.29622 5.32724 2.28225 5.27225 2.2796 5.21614C2.27694 5.16003 2.28566 5.10396 2.30523 5.05131C2.32479 4.99866 2.3548 4.9505 2.39346 4.90974C2.43211 4.86898 2.4786 4.83646 2.53014 4.81413C2.58168 4.79179 2.63721 4.78011 2.69338 4.77979C2.74955 4.77946 2.80521 4.7905 2.857 4.81223C2.9088 4.83396 2.95567 4.86594 2.99479 4.90625L4.23438 6.08854L7.00521 3.44792C7.08622 3.37723 7.19143 3.3406 7.29882 3.34568C7.40622 3.35077 7.50749 3.39716 7.58148 3.47518C7.65546 3.5532 7.69642 3.65679 7.69579 3.76431C7.69517 3.87182 7.65301 3.97493 7.57812 4.05208Z" fill="#AEB9E1"/>
</g>
<defs>
<clipPath id="clip0_4502_46038">
<rect width="10" height="10" fill="white"/>
</clipPath>
</defs>
</svg>
