<svg width="92" height="97" viewBox="0 0 92 97" fill="none" xmlns="http://www.w3.org/2000/svg">
<path d="M80.4934 2C24.5599 13.6484 2.76737 43.8613 2.04096 58.4217C1.31455 72.9822 10.0318 92.6388 45.6257 94.8228C81.2195 97.0069 86.0736 78.4423 88.8472 69.7061C90.8118 63.5179 93.5685 42.0412 65.9652 24.5687C44.8607 11.2097 22.8649 6.36813 17.2958 5.64011" stroke="#FF7527" stroke-width="4" stroke-linecap="round"/>
<path d="M33 49.0228C41.3029 41.5635 54.7457 43.1339 57.118 49.0228C59.4902 54.9117 41.6983 57.6599 47.2336 59.2302C52.7688 60.8006 61.0717 61.1932 59.8856 66.2969C58.6995 71.4006 40.1168 77.2895 33 71.7932" stroke="#FF7527" stroke-width="4" stroke-linecap="round"/>
</svg>
