<svg width="63" height="62" viewBox="0 0 63 62" fill="none" xmlns="http://www.w3.org/2000/svg">
<g clip-path="url(#clip0_4506_52773)">
<circle opacity="0.2" cx="31.9961" cy="31" r="31" fill="#9A91FB"/>
<path d="M26.169 34.8848H16.4575V44.5962" stroke="#6C72FF" stroke-width="4.51" stroke-linecap="round" stroke-linejoin="round"/>
<path d="M46.0261 36.783C44.9974 39.789 43.0055 42.3715 40.3593 44.1299C37.7131 45.8882 34.5605 46.724 31.3907 46.5077C28.221 46.2914 25.2112 45.0349 22.8284 42.9334C20.4457 40.8319 18.8231 38.0027 18.2124 34.8848" stroke="#6C72FF" stroke-width="4.51" stroke-linecap="round" stroke-linejoin="round"/>
<path d="M37.8232 27.1148H47.5347V17.4033" stroke="#6C72FF" stroke-width="4.51" stroke-linecap="round" stroke-linejoin="round"/>
<path d="M17.9644 25.2171C18.993 22.2111 20.9849 19.6286 23.6311 17.8703C26.2774 16.112 29.4299 15.2762 32.5997 15.4925C35.7694 15.7088 38.7792 16.9652 41.162 19.0668C43.5447 21.1683 45.1673 23.9975 45.778 27.1154" stroke="#6C72FF" stroke-width="4.51" stroke-linecap="round" stroke-linejoin="round"/>
</g>
<defs>
<clipPath id="clip0_4506_52773">
<rect width="62" height="62" fill="white" transform="translate(0.996094)"/>
</clipPath>
</defs>
</svg>
