<svg width="14" height="14" viewBox="0 0 14 14" fill="none" xmlns="http://www.w3.org/2000/svg">
<path d="M5.7154 1.85715H8.28685C8.40051 1.85715 8.50952 1.812 8.5899 1.73162C8.67027 1.65125 8.71542 1.54224 8.71542 1.42857C8.71542 1.31491 8.67027 1.2059 8.5899 1.12553C8.50952 1.04515 8.40051 1 8.28685 1H5.7154C5.60174 1 5.49273 1.04515 5.41235 1.12553C5.33198 1.2059 5.28683 1.31491 5.28683 1.42857C5.28683 1.54224 5.33198 1.65125 5.41235 1.73162C5.49273 1.812 5.60174 1.85715 5.7154 1.85715V1.85715Z" fill="#AEB9E1"/>
<path d="M7.00129 2.7142C5.98413 2.7142 4.9898 3.01583 4.14406 3.58094C3.29831 4.14604 2.63913 4.94925 2.24988 5.889C1.86063 6.82874 1.75878 7.8628 1.95722 8.86042C2.15566 9.85805 2.64547 10.7744 3.36472 11.4937C4.08397 12.2129 5.00034 12.7027 5.99797 12.9012C6.99559 13.0996 8.02965 12.9978 8.96939 12.6085C9.90913 12.2193 10.7123 11.5601 11.2775 10.7143C11.8426 9.86859 12.1442 8.87426 12.1442 7.8571C12.1414 6.49399 11.5986 5.18751 10.6347 4.22365C9.67087 3.25978 8.3644 2.71703 7.00129 2.7142V2.7142ZM9.4281 6.04101L7.30665 8.16245C7.22473 8.24166 7.11524 8.28594 7.00129 8.28594C6.88734 8.28594 6.77785 8.24166 6.69593 8.16245C6.61546 8.0812 6.57031 7.97146 6.57031 7.8571C6.57031 7.74273 6.61546 7.63299 6.69593 7.55174L8.81738 5.43029C8.8558 5.38347 8.90361 5.34522 8.95771 5.31798C9.01181 5.29075 9.07102 5.27515 9.13152 5.27218C9.19201 5.2692 9.25246 5.27893 9.30898 5.30073C9.36549 5.32253 9.41681 5.35592 9.45964 5.39875C9.50247 5.44158 9.53586 5.4929 9.55766 5.54941C9.57946 5.60592 9.58918 5.66637 9.58621 5.72687C9.58324 5.78737 9.56764 5.84657 9.54041 5.90068C9.51317 5.95478 9.47492 6.00258 9.4281 6.04101V6.04101Z" fill="#AEB9E1"/>
</svg>
