<svg width="320" height="104" viewBox="0 0 320 104" fill="none" xmlns="http://www.w3.org/2000/svg">
<g clip-path="url(#clip0_4467_45686)">
<path d="M23.4115 81L318.706 81" stroke="#37446B" stroke-width="0.6"/>
<path d="M23.4115 57L318.706 57" stroke="#37446B" stroke-width="0.6"/>
<path d="M23.4115 33L318.706 33" stroke="#37446B" stroke-width="0.6"/>
<path d="M23.4115 9.00003L318.706 9" stroke="#37446B" stroke-width="0.6"/>
<path d="M93.23 81L93.23 9" stroke="#37446B" stroke-width="0.6" stroke-dasharray="5 5"/>
<path d="M39.316 81L39.316 9" stroke="#37446B" stroke-width="0.6" stroke-dasharray="5 5"/>
<path d="M147.143 81L147.143 9" stroke="#37446B" stroke-width="0.6" stroke-dasharray="5 5"/>
<path d="M201.057 81L201.057 9" stroke="#37446B" stroke-width="0.6" stroke-dasharray="5 5"/>
<path d="M254.969 81L254.969 9" stroke="#37446B" stroke-width="0.6" stroke-dasharray="5 5"/>
<path d="M308.883 81L308.883 9" stroke="#37446B" stroke-width="0.6" stroke-dasharray="5 5"/>
<path d="M10.5414 87.064C10.9574 87.064 11.3201 86.952 11.6294 86.728C11.9441 86.4987 12.1868 86.1653 12.3574 85.728C12.5334 85.2907 12.6214 84.752 12.6214 84.112C12.6214 83.1733 12.4348 82.448 12.0614 81.936C11.6881 81.424 11.1841 81.168 10.5494 81.168C10.1281 81.168 9.75742 81.28 9.43742 81.504C9.12276 81.728 8.87742 82.0587 8.70142 82.496C8.52542 82.928 8.43742 83.464 8.43742 84.104C8.43742 84.728 8.52276 85.2613 8.69342 85.704C8.86409 86.1467 9.10676 86.4853 9.42142 86.72C9.74142 86.9493 10.1148 87.064 10.5414 87.064ZM10.5334 86.36C10.1441 86.36 9.83476 86.184 9.60542 85.832C9.38142 85.4747 9.26942 84.9013 9.26942 84.112C9.26942 83.3173 9.38142 82.744 9.60542 82.392C9.83476 82.04 10.1441 81.864 10.5334 81.864C10.9281 81.864 11.2374 82.04 11.4614 82.392C11.6854 82.744 11.7974 83.3173 11.7974 84.112C11.7974 84.9013 11.6854 85.4747 11.4614 85.832C11.2374 86.184 10.9281 86.36 10.5334 86.36Z" fill="#AEB9E1"/>
<path d="M2.80593 61H3.62993V55.232H2.83793C2.81126 55.52 2.69926 55.752 2.50193 55.928C2.30993 56.104 2.02193 56.192 1.63793 56.192H1.41393V56.824H2.80593V61ZM6.81574 61.064C7.23174 61.064 7.59441 60.952 7.90374 60.728C8.21841 60.4987 8.46107 60.1653 8.63174 59.728C8.80774 59.2907 8.89574 58.752 8.89574 58.112C8.89574 57.1733 8.70907 56.448 8.33574 55.936C7.96241 55.424 7.45841 55.168 6.82374 55.168C6.40241 55.168 6.03174 55.28 5.71174 55.504C5.39707 55.728 5.15174 56.0587 4.97574 56.496C4.79974 56.928 4.71174 57.464 4.71174 58.104C4.71174 58.728 4.79707 59.2613 4.96774 59.704C5.13841 60.1467 5.38107 60.4853 5.69574 60.72C6.01574 60.9493 6.38907 61.064 6.81574 61.064ZM6.80774 60.36C6.41841 60.36 6.10907 60.184 5.87974 59.832C5.65574 59.4747 5.54374 58.9013 5.54374 58.112C5.54374 57.3173 5.65574 56.744 5.87974 56.392C6.10907 56.04 6.41841 55.864 6.80774 55.864C7.20241 55.864 7.51174 56.04 7.73574 56.392C7.95974 56.744 8.07174 57.3173 8.07174 58.112C8.07174 58.9013 7.95974 59.4747 7.73574 59.832C7.51174 60.184 7.20241 60.36 6.80774 60.36ZM11.5657 61.064C11.9817 61.064 12.3444 60.952 12.6537 60.728C12.9684 60.4987 13.2111 60.1653 13.3817 59.728C13.5577 59.2907 13.6457 58.752 13.6457 58.112C13.6457 57.1733 13.4591 56.448 13.0857 55.936C12.7124 55.424 12.2084 55.168 11.5737 55.168C11.1524 55.168 10.7817 55.28 10.4617 55.504C10.1471 55.728 9.90174 56.0587 9.72574 56.496C9.54974 56.928 9.46174 57.464 9.46174 58.104C9.46174 58.728 9.54707 59.2613 9.71774 59.704C9.88841 60.1467 10.1311 60.4853 10.4457 60.72C10.7657 60.9493 11.1391 61.064 11.5657 61.064ZM11.5577 60.36C11.1684 60.36 10.8591 60.184 10.6297 59.832C10.4057 59.4747 10.2937 58.9013 10.2937 58.112C10.2937 57.3173 10.4057 56.744 10.6297 56.392C10.8591 56.04 11.1684 55.864 11.5577 55.864C11.9524 55.864 12.2617 56.04 12.4857 56.392C12.7097 56.744 12.8217 57.3173 12.8217 58.112C12.8217 58.9013 12.7097 59.4747 12.4857 59.832C12.2617 60.184 11.9524 60.36 11.5577 60.36Z" fill="#AEB9E1"/>
<path d="M0.0724975 35H3.9445V34.272H1.1045C1.1525 34.064 1.25116 33.8747 1.4005 33.704C1.55516 33.5333 1.7365 33.3707 1.9445 33.216C2.15783 33.0613 2.3765 32.904 2.6005 32.744C2.8245 32.584 3.0325 32.4133 3.2245 32.232C3.42183 32.0453 3.57916 31.84 3.6965 31.616C3.81916 31.3867 3.8805 31.1253 3.8805 30.832C3.8805 30.496 3.80316 30.2027 3.6485 29.952C3.49383 29.7013 3.27783 29.5067 3.0005 29.368C2.72316 29.2293 2.39783 29.16 2.0245 29.16C1.63516 29.16 1.29116 29.2373 0.992498 29.392C0.699164 29.5467 0.472498 29.7627 0.312498 30.04C0.152498 30.3173 0.0778309 30.6453 0.0884975 31.024H0.896498C0.875164 30.6613 0.965831 30.3787 1.1685 30.176C1.3765 29.9733 1.64583 29.872 1.9765 29.872C2.29116 29.872 2.5445 29.9627 2.7365 30.144C2.9285 30.3253 3.0245 30.568 3.0245 30.872C3.0245 31.1173 2.9525 31.336 2.8085 31.528C2.66983 31.7147 2.4885 31.8933 2.2645 32.064C2.0405 32.2293 1.8005 32.4 1.5445 32.576C1.29383 32.7467 1.0565 32.9387 0.832498 33.152C0.608498 33.36 0.424498 33.6027 0.280498 33.88C0.141831 34.1573 0.0724975 34.4827 0.0724975 34.856V35ZM6.72206 35.072C7.14339 35.072 7.50606 34.9893 7.81006 34.824C8.11939 34.6587 8.35673 34.4267 8.52206 34.128C8.69273 33.824 8.77806 33.4747 8.77806 33.08C8.77806 32.7013 8.70073 32.368 8.54606 32.08C8.39673 31.7867 8.18073 31.56 7.89806 31.4C7.62073 31.2347 7.29006 31.152 6.90606 31.152C6.64473 31.152 6.40473 31.2 6.18606 31.296C5.97273 31.392 5.80739 31.52 5.69006 31.68L5.64206 31.664L5.72206 29.952H8.47406V29.232H4.99406L4.85806 32.504H5.64206C5.72206 32.312 5.85539 32.1547 6.04206 32.032C6.22873 31.9093 6.46073 31.848 6.73806 31.848C7.10073 31.848 7.38873 31.96 7.60206 32.184C7.82073 32.408 7.93006 32.7173 7.93006 33.112C7.93006 33.4747 7.82339 33.7707 7.61006 34C7.40206 34.2293 7.10873 34.344 6.73006 34.344C6.37806 34.344 6.09539 34.2427 5.88206 34.04C5.67406 33.8373 5.57006 33.5707 5.57006 33.24H4.74606C4.75139 33.6027 4.83406 33.9227 4.99406 34.2C5.15406 34.4773 5.38073 34.6933 5.67406 34.848C5.97273 34.9973 6.32206 35.072 6.72206 35.072ZM11.5656 35.064C11.9816 35.064 12.3443 34.952 12.6536 34.728C12.9683 34.4987 13.211 34.1653 13.3816 33.728C13.5576 33.2907 13.6456 32.752 13.6456 32.112C13.6456 31.1733 13.459 30.448 13.0856 29.936C12.7123 29.424 12.2083 29.168 11.5736 29.168C11.1523 29.168 10.7816 29.28 10.4616 29.504C10.147 29.728 9.90162 30.0587 9.72562 30.496C9.54962 30.928 9.46162 31.464 9.46162 32.104C9.46162 32.728 9.54696 33.2613 9.71762 33.704C9.88829 34.1467 10.131 34.4853 10.4456 34.72C10.7656 34.9493 11.139 35.064 11.5656 35.064ZM11.5576 34.36C11.1683 34.36 10.859 34.184 10.6296 33.832C10.4056 33.4747 10.2936 32.9013 10.2936 32.112C10.2936 31.3173 10.4056 30.744 10.6296 30.392C10.859 30.04 11.1683 29.864 11.5576 29.864C11.9523 29.864 12.2616 30.04 12.4856 30.392C12.7096 30.744 12.8216 31.3173 12.8216 32.112C12.8216 32.9013 12.7096 33.4747 12.4856 33.832C12.2616 34.184 11.9523 34.36 11.5576 34.36Z" fill="#AEB9E1"/>
<path d="M1.97206 9.072C2.39339 9.072 2.75606 8.98933 3.06006 8.824C3.36939 8.65867 3.60673 8.42667 3.77206 8.128C3.94273 7.824 4.02806 7.47467 4.02806 7.08C4.02806 6.70133 3.95073 6.368 3.79606 6.08C3.64673 5.78667 3.43073 5.56 3.14806 5.4C2.87073 5.23467 2.54006 5.152 2.15606 5.152C1.89473 5.152 1.65473 5.2 1.43606 5.296C1.22273 5.392 1.05739 5.52 0.94006 5.68L0.89206 5.664L0.97206 3.952H3.72406V3.232H0.24406L0.10806 6.504H0.89206C0.97206 6.312 1.10539 6.15467 1.29206 6.032C1.47873 5.90933 1.71073 5.848 1.98806 5.848C2.35073 5.848 2.63873 5.96 2.85206 6.184C3.07073 6.408 3.18006 6.71733 3.18006 7.112C3.18006 7.47467 3.07339 7.77067 2.86006 8C2.65206 8.22933 2.35873 8.344 1.98006 8.344C1.62806 8.344 1.34539 8.24267 1.13206 8.04C0.92406 7.83733 0.82006 7.57067 0.82006 7.24H-0.00393999C0.00139336 7.60267 0.08406 7.92267 0.24406 8.2C0.40406 8.47733 0.630727 8.69333 0.92406 8.848C1.22273 8.99733 1.57206 9.072 1.97206 9.072ZM6.81562 9.064C7.23162 9.064 7.59429 8.952 7.90362 8.728C8.21829 8.49867 8.46096 8.16533 8.63162 7.728C8.80762 7.29067 8.89562 6.752 8.89562 6.112C8.89562 5.17333 8.70896 4.448 8.33562 3.936C7.96229 3.424 7.45829 3.168 6.82362 3.168C6.40229 3.168 6.03162 3.28 5.71162 3.504C5.39696 3.728 5.15162 4.05867 4.97562 4.496C4.79962 4.928 4.71162 5.464 4.71162 6.104C4.71162 6.728 4.79696 7.26133 4.96762 7.704C5.13829 8.14667 5.38096 8.48533 5.69562 8.72C6.01562 8.94933 6.38896 9.064 6.81562 9.064ZM6.80762 8.36C6.41829 8.36 6.10896 8.184 5.87962 7.832C5.65562 7.47467 5.54362 6.90133 5.54362 6.112C5.54362 5.31733 5.65562 4.744 5.87962 4.392C6.10896 4.04 6.41829 3.864 6.80762 3.864C7.20229 3.864 7.51162 4.04 7.73562 4.392C7.95962 4.744 8.07162 5.31733 8.07162 6.112C8.07162 6.90133 7.95962 7.47467 7.73562 7.832C7.51162 8.184 7.20229 8.36 6.80762 8.36ZM11.5656 9.064C11.9816 9.064 12.3443 8.952 12.6536 8.728C12.9683 8.49867 13.211 8.16533 13.3816 7.728C13.5576 7.29067 13.6456 6.752 13.6456 6.112C13.6456 5.17333 13.459 4.448 13.0856 3.936C12.7123 3.424 12.2083 3.168 11.5736 3.168C11.1523 3.168 10.7816 3.28 10.4616 3.504C10.147 3.728 9.90162 4.05867 9.72562 4.496C9.54962 4.928 9.46162 5.464 9.46162 6.104C9.46162 6.728 9.54696 7.26133 9.71762 7.704C9.88829 8.14667 10.131 8.48533 10.4456 8.72C10.7656 8.94933 11.139 9.064 11.5656 9.064ZM11.5576 8.36C11.1683 8.36 10.859 8.184 10.6296 7.832C10.4056 7.47467 10.2936 6.90133 10.2936 6.112C10.2936 5.31733 10.4056 4.744 10.6296 4.392C10.859 4.04 11.1683 3.864 11.5576 3.864C11.9523 3.864 12.2616 4.04 12.4856 4.392C12.7096 4.744 12.8216 5.31733 12.8216 6.112C12.8216 6.90133 12.7096 7.47467 12.4856 7.832C12.2616 8.184 11.9523 8.36 11.5576 8.36Z" fill="#AEB9E1"/>
<path d="M23.4115 81L43.1591 74.6617C43.3604 74.5971 43.536 74.4703 43.6608 74.2997L55.6669 57.8786C55.9939 57.4313 56.6223 57.3352 57.0681 57.6643L75.6121 71.3541C76.0681 71.6907 76.7125 71.5814 77.032 71.1132L90.2544 51.7374C90.5655 51.2815 91.1872 51.1638 91.6433 51.4745L110.169 64.0917C110.269 64.1601 110.381 64.2095 110.499 64.2378L142.378 71.8634C142.662 71.9314 142.961 71.8718 143.198 71.7003L168.996 52.9835C169.111 52.8995 169.208 52.7915 169.278 52.667L188.479 18.7706C188.864 18.091 189.845 18.0954 190.224 18.7783L220.893 74.0475C221.07 74.3652 221.404 74.5623 221.768 74.5623H256.361C256.619 74.5623 256.867 74.4624 257.054 74.2836L280.614 51.6648C281.037 51.2596 281.715 51.3017 282.083 51.7559L298.341 71.7851C298.44 71.907 298.567 72.0038 298.71 72.0679L318.706 81" stroke="#6C72FF" stroke-width="1.2" stroke-linecap="round"/>
<path d="M33.0478 100.469H33.8718V94.7007H33.0798C33.0531 94.9887 32.9411 95.2207 32.7438 95.3967C32.5518 95.5727 32.2638 95.6607 31.8798 95.6607H31.6558V96.2927H33.0478V100.469ZM35.0176 100.469H38.8896V99.7407H36.0496C36.0976 99.5327 36.1963 99.3434 36.3456 99.1727C36.5003 99.0021 36.6816 98.8394 36.8896 98.6847C37.1029 98.5301 37.3216 98.3727 37.5456 98.2127C37.7696 98.0527 37.9776 97.8821 38.1696 97.7007C38.3669 97.5141 38.5243 97.3087 38.6416 97.0847C38.7643 96.8554 38.8256 96.5941 38.8256 96.3007C38.8256 95.9647 38.7483 95.6714 38.5936 95.4207C38.4389 95.1701 38.2229 94.9754 37.9456 94.8367C37.6683 94.6981 37.3429 94.6287 36.9696 94.6287C36.5803 94.6287 36.2363 94.7061 35.9376 94.8607C35.6443 95.0154 35.4176 95.2314 35.2576 95.5087C35.0976 95.7861 35.0229 96.1141 35.0336 96.4927H35.8416C35.8203 96.1301 35.9109 95.8474 36.1136 95.6447C36.3216 95.4421 36.5909 95.3407 36.9216 95.3407C37.2363 95.3407 37.4896 95.4314 37.6816 95.6127C37.8736 95.7941 37.9696 96.0367 37.9696 96.3407C37.9696 96.5861 37.8976 96.8047 37.7536 96.9967C37.6149 97.1834 37.4336 97.3621 37.2096 97.5327C36.9856 97.6981 36.7456 97.8687 36.4896 98.0447C36.2389 98.2154 36.0016 98.4074 35.7776 98.6207C35.5536 98.8287 35.3696 99.0714 35.2256 99.3487C35.0869 99.6261 35.0176 99.9514 35.0176 100.325V100.469ZM41.0882 100.469H42.0002L42.4802 99.1087H45.0642L45.5442 100.469H46.4562L44.3842 94.6367H43.1602L41.0882 100.469ZM42.6882 98.4287L43.3442 96.6287L43.7522 95.4367H43.8002L44.2082 96.6287L44.8482 98.4287H42.6882ZM47.1745 100.469H48.0305V97.7487L48.0145 95.5567H48.0705L49.8065 100.469H50.5025L52.2385 95.5567H52.2945L52.2705 97.7407V100.469H53.1185V94.6367H51.7905L50.1665 99.1007H50.1345L48.5105 94.6367H47.1745V100.469Z" fill="#AEB9E1"/>
<path d="M124.079 100.525C124.495 100.525 124.858 100.461 125.167 100.333C125.482 100.199 125.724 100.015 125.895 99.7807C126.071 99.5407 126.159 99.2581 126.159 98.9327C126.159 98.5807 126.058 98.2767 125.855 98.0207C125.658 97.7647 125.372 97.6154 124.999 97.5727V97.5327C125.362 97.4687 125.628 97.3114 125.799 97.0607C125.975 96.8047 126.063 96.5194 126.063 96.2047C126.063 95.7354 125.887 95.3567 125.535 95.0687C125.183 94.7807 124.698 94.6367 124.079 94.6367C123.466 94.6367 122.983 94.7807 122.631 95.0687C122.279 95.3514 122.103 95.7274 122.103 96.1967C122.103 96.5167 122.191 96.8021 122.367 97.0527C122.548 97.3034 122.818 97.4634 123.175 97.5327V97.5727C122.802 97.6261 122.511 97.7834 122.303 98.0447C122.1 98.3061 121.999 98.6047 121.999 98.9407C121.999 99.2661 122.084 99.5487 122.255 99.7887C122.431 100.023 122.676 100.205 122.991 100.333C123.306 100.461 123.668 100.525 124.079 100.525ZM124.079 97.2287C123.695 97.2287 123.41 97.1407 123.223 96.9647C123.042 96.7834 122.951 96.5541 122.951 96.2767C122.951 95.9834 123.05 95.7514 123.247 95.5807C123.45 95.4101 123.727 95.3247 124.079 95.3247C124.426 95.3247 124.703 95.4101 124.911 95.5807C125.119 95.7461 125.223 95.9781 125.223 96.2767C125.223 96.5434 125.132 96.7701 124.951 96.9567C124.77 97.1381 124.479 97.2287 124.079 97.2287ZM124.079 99.8127C123.722 99.8127 123.434 99.7274 123.215 99.5567C122.996 99.3807 122.887 99.1381 122.887 98.8287C122.887 98.5674 122.983 98.3461 123.175 98.1647C123.367 97.9834 123.668 97.8927 124.079 97.8927C124.49 97.8927 124.791 97.9807 124.983 98.1567C125.18 98.3327 125.279 98.5567 125.279 98.8287C125.279 99.1327 125.17 99.3727 124.951 99.5487C124.738 99.7247 124.447 99.8127 124.079 99.8127ZM128.327 100.469H129.239L129.719 99.1087H132.303L132.783 100.469H133.695L131.623 94.6367H130.399L128.327 100.469ZM129.927 98.4287L130.583 96.6287L130.991 95.4367H131.039L131.447 96.6287L132.087 98.4287H129.927ZM134.413 100.469H135.269V97.7487L135.253 95.5567H135.309L137.045 100.469H137.741L139.477 95.5567H139.533L139.509 97.7407V100.469H140.357V94.6367H139.029L137.405 99.1007H137.373L135.749 94.6367H134.413V100.469Z" fill="#AEB9E1"/>
<path d="M212.054 100.469H212.878V99.0527H213.662V98.3727H212.878V94.7007H211.806L209.222 98.4128V99.0527H212.054V100.469ZM210.062 98.3727L212.054 95.5327V98.3727H210.062ZM216.457 100.469H217.329V98.3487H218.809C219.236 98.3487 219.601 98.2741 219.905 98.1247C220.209 97.9701 220.441 97.7541 220.601 97.4767C220.766 97.1941 220.849 96.8661 220.849 96.4927C220.849 95.9007 220.665 95.4447 220.297 95.1247C219.929 94.7994 219.436 94.6367 218.817 94.6367H216.457V100.469ZM218.681 97.6527H217.329V95.3887H218.681C219.06 95.3887 219.366 95.4794 219.601 95.6607C219.841 95.8421 219.961 96.1274 219.961 96.5167C219.961 96.9061 219.841 97.1941 219.601 97.3807C219.366 97.5674 219.06 97.6581 218.681 97.6527ZM221.769 100.469H222.625V97.7487L222.609 95.5567H222.665L224.401 100.469H225.097L226.833 95.5567H226.889L226.865 97.7407V100.469H227.713V94.6367H226.385L224.761 99.1007H224.729L223.105 94.6367H221.769V100.469Z" fill="#AEB9E1"/>
<path d="M297.741 100.469H298.565V94.7007H297.773C297.746 94.9887 297.634 95.2207 297.437 95.3967C297.245 95.5727 296.957 95.6607 296.573 95.6607H296.349V96.2927H297.741V100.469ZM300.999 100.469H301.823V94.7007H301.031C301.004 94.9887 300.892 95.2207 300.695 95.3967C300.503 95.5727 300.215 95.6607 299.831 95.6607H299.607V96.2927H300.999V100.469ZM305.118 100.469H305.99V98.3487H307.47C307.896 98.3487 308.262 98.2741 308.566 98.1247C308.87 97.9701 309.102 97.7541 309.262 97.4767C309.427 97.1941 309.51 96.8661 309.51 96.4927C309.51 95.9007 309.326 95.4447 308.958 95.1247C308.59 94.7994 308.096 94.6367 307.478 94.6367H305.118V100.469ZM307.342 97.6527H305.99V95.3887H307.342C307.72 95.3887 308.027 95.4794 308.262 95.6607C308.502 95.8421 308.622 96.1274 308.622 96.5167C308.622 96.9061 308.502 97.1941 308.262 97.3807C308.027 97.5674 307.72 97.6581 307.342 97.6527ZM310.43 100.469H311.286V97.7487L311.27 95.5567H311.326L313.062 100.469H313.758L315.494 95.5567H315.55L315.526 97.7407V100.469H316.374V94.6367H315.046L313.422 99.1007H313.39L311.766 94.6367H310.43V100.469Z" fill="#AEB9E1"/>
</g>
<defs>
<clipPath id="clip0_4467_45686">
<rect width="320" height="104" fill="white"/>
</clipPath>
</defs>
</svg>
