<svg width="14" height="14" viewBox="0 0 14 14" fill="none" xmlns="http://www.w3.org/2000/svg">
<path d="M13 11.6155C13 11.7379 12.9514 11.8553 12.8648 11.9419C12.7783 12.0284 12.6609 12.0771 12.5385 12.0771H1.46154C1.33913 12.0771 1.22174 12.0284 1.13518 11.9419C1.04863 11.8553 1 11.7379 1 11.6155V2.38476C1 2.26235 1.04863 2.14495 1.13518 2.0584C1.22174 1.97184 1.33913 1.92322 1.46154 1.92322C1.58395 1.92322 1.70134 1.97184 1.7879 2.0584C1.87445 2.14495 1.92308 2.26235 1.92308 2.38476V8.65591L4.825 5.74822C4.9125 5.66155 5.03069 5.61293 5.15385 5.61293C5.27701 5.61293 5.39519 5.66155 5.48269 5.74822L7 7.27129L9.80962 4.46168L8.97885 3.63668C8.91623 3.56995 8.8738 3.48685 8.85644 3.39701C8.83908 3.30716 8.84752 3.21424 8.88077 3.12899C8.9167 3.04543 8.97623 2.97418 9.05207 2.92396C9.1279 2.87375 9.21674 2.84676 9.30769 2.84629H11.6154C11.7378 2.84629 11.8552 2.89492 11.9417 2.98148C12.0283 3.06803 12.0769 3.18543 12.0769 3.30783V5.61553C12.0772 5.70665 12.0505 5.79581 12.0002 5.87178C11.9499 5.94776 11.8782 6.00714 11.7942 6.04245C11.7373 6.06506 11.6766 6.0768 11.6154 6.07706C11.4928 6.07655 11.3751 6.02906 11.2865 5.94437L10.4615 5.1136L7.32885 8.25206C7.24134 8.33873 7.12316 8.38735 7 8.38735C6.87684 8.38735 6.75866 8.33873 6.67115 8.25206L5.15385 6.72899L1.92308 9.95976V11.154H12.5385C12.6609 11.154 12.7783 11.2026 12.8648 11.2892C12.9514 11.3757 13 11.4931 13 11.6155Z" fill="#AEB9E1"/>
</svg>
