<svg width="596" height="394" viewBox="0 0 596 394" fill="none" xmlns="http://www.w3.org/2000/svg">
<g clip-path="url(#clip0_4462_45617)">
<rect x="211.541" y="90.5107" width="145.45" height="63.5051" rx="8" fill="#101935"/>
<g filter="url(#filter0_d_4462_45617)">
<rect x="211.541" y="90.5107" width="145.45" height="63.5051" rx="8" fill="#101935"/>
<rect x="211.841" y="90.8107" width="144.85" height="62.9051" rx="7.7" stroke="#37446B" stroke-width="0.6"/>
</g>
<path d="M231.281 136.532C231.907 136.532 232.404 136.379 232.771 136.072C233.144 135.759 233.331 135.252 233.331 134.552V129.162H232.251V134.462C232.251 134.869 232.151 135.165 231.951 135.352C231.751 135.532 231.461 135.622 231.081 135.622C230.914 135.622 230.764 135.605 230.631 135.572C230.497 135.532 230.384 135.485 230.291 135.432V136.322C230.404 136.382 230.547 136.432 230.721 136.472C230.894 136.512 231.081 136.532 231.281 136.532ZM236.783 136.542C237.196 136.542 237.563 136.442 237.883 136.242C238.203 136.035 238.426 135.749 238.553 135.382H238.613L238.663 136.452H239.643V131.162H238.613V134.022C238.613 134.509 238.48 134.909 238.213 135.222C237.946 135.529 237.596 135.682 237.163 135.682C236.716 135.682 236.396 135.552 236.203 135.292C236.01 135.025 235.913 134.649 235.913 134.162V131.162H234.883V134.422C234.883 135.122 235.05 135.652 235.383 136.012C235.716 136.365 236.183 136.542 236.783 136.542ZM241.036 136.452H242.056V133.562C242.056 133.255 242.116 132.982 242.236 132.742C242.356 132.495 242.526 132.299 242.746 132.152C242.973 132.005 243.236 131.932 243.536 131.932C243.956 131.932 244.266 132.062 244.466 132.322C244.666 132.582 244.766 132.982 244.766 133.522V136.452H245.796V133.312C245.796 132.772 245.713 132.339 245.546 132.012C245.386 131.685 245.163 131.449 244.876 131.302C244.59 131.155 244.266 131.082 243.906 131.082C243.52 131.082 243.163 131.179 242.836 131.372C242.51 131.559 242.27 131.839 242.116 132.212H242.056L242.016 131.162H241.036V136.452ZM249.389 136.542C249.809 136.542 250.185 136.472 250.519 136.332C250.859 136.185 251.135 135.985 251.349 135.732C251.562 135.472 251.692 135.169 251.739 134.822H250.759C250.692 135.095 250.535 135.315 250.289 135.482C250.042 135.642 249.742 135.722 249.389 135.722C248.929 135.722 248.559 135.575 248.279 135.282C248.005 134.982 247.862 134.559 247.849 134.012H251.769C251.822 133.459 251.765 132.962 251.599 132.522C251.432 132.075 251.159 131.725 250.779 131.472C250.405 131.212 249.929 131.082 249.349 131.082C248.835 131.082 248.389 131.195 248.009 131.422C247.629 131.649 247.335 131.969 247.129 132.382C246.929 132.789 246.829 133.272 246.829 133.832C246.829 134.372 246.932 134.845 247.139 135.252C247.345 135.659 247.639 135.975 248.019 136.202C248.405 136.429 248.862 136.542 249.389 136.542ZM249.339 131.892C249.732 131.892 250.062 132.002 250.329 132.222C250.602 132.442 250.745 132.795 250.759 133.282H247.869C247.909 132.849 248.059 132.509 248.319 132.262C248.585 132.015 248.925 131.892 249.339 131.892ZM254.828 136.452H259.668V135.542H256.118C256.178 135.282 256.302 135.045 256.488 134.832C256.682 134.619 256.908 134.415 257.168 134.222C257.435 134.029 257.708 133.832 257.988 133.632C258.268 133.432 258.528 133.219 258.768 132.992C259.015 132.759 259.212 132.502 259.358 132.222C259.512 131.935 259.588 131.609 259.588 131.242C259.588 130.822 259.492 130.455 259.298 130.142C259.105 129.829 258.835 129.585 258.488 129.412C258.142 129.239 257.735 129.152 257.268 129.152C256.782 129.152 256.352 129.249 255.978 129.442C255.612 129.635 255.328 129.905 255.128 130.252C254.928 130.599 254.835 131.009 254.848 131.482H255.858C255.832 131.029 255.945 130.675 256.198 130.422C256.458 130.169 256.795 130.042 257.208 130.042C257.602 130.042 257.918 130.155 258.158 130.382C258.398 130.609 258.518 130.912 258.518 131.292C258.518 131.599 258.428 131.872 258.248 132.112C258.075 132.345 257.848 132.569 257.568 132.782C257.288 132.989 256.988 133.202 256.668 133.422C256.355 133.635 256.058 133.875 255.778 134.142C255.498 134.402 255.268 134.705 255.088 135.052C254.915 135.399 254.828 135.805 254.828 136.272V136.452ZM262.19 136.452H263.22V129.242H262.23C262.197 129.602 262.057 129.892 261.81 130.112C261.57 130.332 261.21 130.442 260.73 130.442H260.45V131.232H262.19V136.452ZM264.553 138.042H264.813C265.106 138.029 265.333 137.942 265.493 137.782C265.653 137.622 265.733 137.352 265.733 136.972V135.402H264.713V136.452H265.173V136.912C265.173 137.079 265.136 137.212 265.063 137.312C264.996 137.419 264.876 137.479 264.703 137.492H264.553V138.042ZM268.95 136.452H273.79V135.542H270.24C270.3 135.282 270.423 135.045 270.61 134.832C270.803 134.619 271.03 134.415 271.29 134.222C271.556 134.029 271.83 133.832 272.11 133.632C272.39 133.432 272.65 133.219 272.89 132.992C273.136 132.759 273.333 132.502 273.48 132.222C273.633 131.935 273.71 131.609 273.71 131.242C273.71 130.822 273.613 130.455 273.42 130.142C273.226 129.829 272.956 129.585 272.61 129.412C272.263 129.239 271.856 129.152 271.39 129.152C270.903 129.152 270.473 129.249 270.1 129.442C269.733 129.635 269.45 129.905 269.25 130.252C269.05 130.599 268.956 131.009 268.97 131.482H269.98C269.953 131.029 270.066 130.675 270.32 130.422C270.58 130.169 270.916 130.042 271.33 130.042C271.723 130.042 272.04 130.155 272.28 130.382C272.52 130.609 272.64 130.912 272.64 131.292C272.64 131.599 272.55 131.872 272.37 132.112C272.196 132.345 271.97 132.569 271.69 132.782C271.41 132.989 271.11 133.202 270.79 133.422C270.476 133.635 270.18 133.875 269.9 134.142C269.62 134.402 269.39 134.705 269.21 135.052C269.036 135.399 268.95 135.805 268.95 136.272V136.452ZM277.251 136.532C277.771 136.532 278.225 136.392 278.611 136.112C279.005 135.825 279.308 135.409 279.521 134.862C279.741 134.315 279.851 133.642 279.851 132.842C279.851 131.669 279.618 130.762 279.151 130.122C278.685 129.482 278.055 129.162 277.261 129.162C276.735 129.162 276.271 129.302 275.871 129.582C275.478 129.862 275.171 130.275 274.951 130.822C274.731 131.362 274.621 132.032 274.621 132.832C274.621 133.612 274.728 134.279 274.941 134.832C275.155 135.385 275.458 135.809 275.851 136.102C276.251 136.389 276.718 136.532 277.251 136.532ZM277.241 135.652C276.755 135.652 276.368 135.432 276.081 134.992C275.801 134.545 275.661 133.829 275.661 132.842C275.661 131.849 275.801 131.132 276.081 130.692C276.368 130.252 276.755 130.032 277.241 130.032C277.735 130.032 278.121 130.252 278.401 130.692C278.681 131.132 278.821 131.849 278.821 132.842C278.821 133.829 278.681 134.545 278.401 134.992C278.121 135.432 277.735 135.652 277.241 135.652ZM280.639 136.452H285.479V135.542H281.929C281.989 135.282 282.112 135.045 282.299 134.832C282.492 134.619 282.719 134.415 282.979 134.222C283.246 134.029 283.519 133.832 283.799 133.632C284.079 133.432 284.339 133.219 284.579 132.992C284.826 132.759 285.022 132.502 285.169 132.222C285.322 131.935 285.399 131.609 285.399 131.242C285.399 130.822 285.302 130.455 285.109 130.142C284.916 129.829 284.646 129.585 284.299 129.412C283.952 129.239 283.546 129.152 283.079 129.152C282.592 129.152 282.162 129.249 281.789 129.442C281.422 129.635 281.139 129.905 280.939 130.252C280.739 130.599 280.646 131.009 280.659 131.482H281.669C281.642 131.029 281.756 130.675 282.009 130.422C282.269 130.169 282.606 130.042 283.019 130.042C283.412 130.042 283.729 130.155 283.969 130.382C284.209 130.609 284.329 130.912 284.329 131.292C284.329 131.599 284.239 131.872 284.059 132.112C283.886 132.345 283.659 132.569 283.379 132.782C283.099 132.989 282.799 133.202 282.479 133.422C282.166 133.635 281.869 133.875 281.589 134.142C281.309 134.402 281.079 134.705 280.899 135.052C280.726 135.399 280.639 135.805 280.639 136.272V136.452ZM288.811 136.542C289.318 136.542 289.758 136.455 290.131 136.282C290.511 136.102 290.804 135.855 291.011 135.542C291.224 135.229 291.331 134.862 291.331 134.442C291.331 134.009 291.224 133.642 291.011 133.342C290.798 133.035 290.494 132.835 290.101 132.742V132.682C290.434 132.569 290.704 132.369 290.911 132.082C291.118 131.795 291.221 131.452 291.221 131.052C291.221 130.479 291.008 130.019 290.581 129.672C290.154 129.325 289.584 129.152 288.871 129.152C288.378 129.152 287.944 129.245 287.571 129.432C287.204 129.619 286.918 129.885 286.711 130.232C286.511 130.572 286.411 130.972 286.411 131.432H287.421C287.428 131.012 287.551 130.675 287.791 130.422C288.038 130.169 288.384 130.042 288.831 130.042C289.231 130.042 289.551 130.142 289.791 130.342C290.038 130.535 290.161 130.812 290.161 131.172C290.161 131.505 290.051 131.785 289.831 132.012C289.618 132.239 289.304 132.352 288.891 132.352H288.161V133.142H288.951C289.344 133.142 289.661 133.242 289.901 133.442C290.148 133.642 290.271 133.945 290.271 134.352C290.271 134.745 290.138 135.062 289.871 135.302C289.604 135.535 289.251 135.652 288.811 135.652C288.364 135.652 288.008 135.522 287.741 135.262C287.481 135.002 287.354 134.659 287.361 134.232H286.351C286.351 134.692 286.448 135.095 286.641 135.442C286.841 135.789 287.124 136.059 287.491 136.252C287.864 136.445 288.304 136.542 288.811 136.542Z" fill="#AEB9E1"/>
<path d="M236.717 119.433H237.773V118.201C239.053 118.127 240.023 117.785 240.685 117.177C241.346 116.569 241.677 115.796 241.677 114.857C241.677 114.185 241.57 113.641 241.357 113.225C241.143 112.799 240.855 112.463 240.493 112.217C240.13 111.972 239.719 111.785 239.261 111.657C238.802 111.519 238.322 111.407 237.821 111.321C237.117 111.183 236.546 111.049 236.109 110.921C235.671 110.783 235.351 110.596 235.149 110.361C234.957 110.127 234.861 109.796 234.861 109.369C234.861 108.836 235.063 108.409 235.469 108.089C235.874 107.769 236.434 107.609 237.149 107.609C237.853 107.609 238.423 107.78 238.861 108.121C239.309 108.463 239.543 108.985 239.565 109.689H241.325C241.314 108.74 240.994 107.961 240.365 107.353C239.746 106.745 238.882 106.393 237.773 106.297V105.049H236.717V106.297C235.575 106.372 234.679 106.703 234.029 107.289C233.389 107.876 233.069 108.644 233.069 109.593C233.069 110.287 233.223 110.847 233.533 111.273C233.842 111.7 234.285 112.031 234.861 112.265C235.447 112.5 236.146 112.692 236.957 112.841C237.682 112.969 238.258 113.119 238.685 113.289C239.111 113.449 239.415 113.663 239.597 113.929C239.789 114.196 239.885 114.559 239.885 115.017C239.885 115.636 239.645 116.1 239.165 116.409C238.695 116.708 238.082 116.857 237.325 116.857C236.386 116.857 235.698 116.639 235.261 116.201C234.834 115.764 234.61 115.172 234.589 114.425H232.813C232.823 115.471 233.149 116.34 233.789 117.033C234.439 117.716 235.415 118.105 236.717 118.201V119.433ZM245.639 118.073H247.287V106.537H245.703C245.65 107.113 245.426 107.577 245.031 107.929C244.647 108.281 244.071 108.457 243.303 108.457H242.855V109.721H245.639V118.073ZM249.579 118.073H257.323V116.617H251.643C251.739 116.201 251.936 115.823 252.235 115.481C252.544 115.14 252.907 114.815 253.323 114.505C253.749 114.196 254.187 113.881 254.635 113.561C255.083 113.241 255.499 112.9 255.883 112.537C256.277 112.164 256.592 111.753 256.827 111.305C257.072 110.847 257.195 110.324 257.195 109.737C257.195 109.065 257.04 108.479 256.731 107.977C256.421 107.476 255.989 107.087 255.435 106.809C254.88 106.532 254.229 106.393 253.483 106.393C252.704 106.393 252.016 106.548 251.419 106.857C250.832 107.167 250.379 107.599 250.059 108.153C249.739 108.708 249.589 109.364 249.611 110.121H251.227C251.184 109.396 251.365 108.831 251.771 108.425C252.187 108.02 252.725 107.817 253.387 107.817C254.016 107.817 254.523 107.999 254.907 108.361C255.291 108.724 255.483 109.209 255.483 109.817C255.483 110.308 255.339 110.745 255.051 111.129C254.773 111.503 254.411 111.86 253.963 112.201C253.515 112.532 253.035 112.873 252.523 113.225C252.021 113.567 251.547 113.951 251.099 114.377C250.651 114.793 250.283 115.279 249.995 115.833C249.717 116.388 249.579 117.039 249.579 117.785V118.073ZM262.878 118.217C263.72 118.217 264.446 118.052 265.054 117.721C265.672 117.391 266.147 116.927 266.478 116.329C266.819 115.721 266.99 115.023 266.99 114.233C266.99 113.476 266.835 112.809 266.526 112.233C266.227 111.647 265.795 111.193 265.23 110.873C264.675 110.543 264.014 110.377 263.246 110.377C262.723 110.377 262.243 110.473 261.806 110.665C261.379 110.857 261.048 111.113 260.814 111.433L260.718 111.401L260.878 107.977H266.382V106.537H259.422L259.15 113.081H260.718C260.878 112.697 261.144 112.383 261.518 112.137C261.891 111.892 262.355 111.769 262.91 111.769C263.635 111.769 264.211 111.993 264.638 112.441C265.075 112.889 265.294 113.508 265.294 114.297C265.294 115.023 265.08 115.615 264.654 116.073C264.238 116.532 263.651 116.761 262.894 116.761C262.19 116.761 261.624 116.559 261.198 116.153C260.782 115.748 260.574 115.215 260.574 114.553H258.926C258.936 115.279 259.102 115.919 259.422 116.473C259.742 117.028 260.195 117.46 260.782 117.769C261.379 118.068 262.078 118.217 262.878 118.217ZM268.677 118.073H270.325V116.393H268.677V118.073ZM271.891 118.073H279.635V116.617H273.955C274.051 116.201 274.248 115.823 274.547 115.481C274.856 115.14 275.219 114.815 275.635 114.505C276.062 114.196 276.499 113.881 276.947 113.561C277.395 113.241 277.811 112.9 278.195 112.537C278.59 112.164 278.904 111.753 279.139 111.305C279.384 110.847 279.507 110.324 279.507 109.737C279.507 109.065 279.352 108.479 279.043 107.977C278.734 107.476 278.302 107.087 277.747 106.809C277.192 106.532 276.542 106.393 275.795 106.393C275.016 106.393 274.328 106.548 273.731 106.857C273.144 107.167 272.691 107.599 272.371 108.153C272.051 108.708 271.902 109.364 271.923 110.121H273.539C273.496 109.396 273.678 108.831 274.083 108.425C274.499 108.02 275.038 107.817 275.699 107.817C276.328 107.817 276.835 107.999 277.219 108.361C277.603 108.724 277.795 109.209 277.795 109.817C277.795 110.308 277.651 110.745 277.363 111.129C277.086 111.503 276.723 111.86 276.275 112.201C275.827 112.532 275.347 112.873 274.835 113.225C274.334 113.567 273.859 113.951 273.411 114.377C272.963 114.793 272.595 115.279 272.307 115.833C272.03 116.388 271.891 117.039 271.891 117.785V118.073ZM281.558 118.073H283.222V115.481L284.726 114.025L285.238 114.873L287.35 118.073H289.286L285.878 112.905L289.158 109.609H287.11L283.958 112.857L283.222 113.657V106.409H281.558V118.073Z" fill="white"/>
<rect x="296.141" y="104.073" width="45" height="18" rx="2" fill="#05C168" fill-opacity="0.2"/>
<path d="M302.181 116.073H303.211V108.863H302.221C302.187 109.223 302.047 109.513 301.801 109.733C301.561 109.953 301.201 110.063 300.721 110.063H300.441V110.853H302.181V116.073ZM304.643 116.073H309.483V115.163H305.933C305.993 114.903 306.116 114.667 306.303 114.453C306.496 114.24 306.723 114.037 306.983 113.843C307.25 113.65 307.523 113.453 307.803 113.253C308.083 113.053 308.343 112.84 308.583 112.613C308.83 112.38 309.026 112.123 309.173 111.843C309.326 111.557 309.403 111.23 309.403 110.863C309.403 110.443 309.306 110.077 309.113 109.763C308.92 109.45 308.65 109.207 308.303 109.033C307.956 108.86 307.55 108.773 307.083 108.773C306.596 108.773 306.166 108.87 305.793 109.063C305.426 109.257 305.143 109.527 304.943 109.873C304.743 110.22 304.65 110.63 304.663 111.103H305.673C305.646 110.65 305.76 110.297 306.013 110.043C306.273 109.79 306.61 109.663 307.023 109.663C307.416 109.663 307.733 109.777 307.973 110.003C308.213 110.23 308.333 110.533 308.333 110.913C308.333 111.22 308.243 111.493 308.063 111.733C307.89 111.967 307.663 112.19 307.383 112.403C307.103 112.61 306.803 112.823 306.483 113.043C306.17 113.257 305.873 113.497 305.593 113.763C305.313 114.023 305.083 114.327 304.903 114.673C304.73 115.02 304.643 115.427 304.643 115.893V116.073ZM310.515 116.073H311.545V115.023H310.515V116.073ZM315.084 116.163C315.61 116.163 316.064 116.06 316.444 115.853C316.83 115.647 317.127 115.357 317.334 114.983C317.547 114.603 317.654 114.167 317.654 113.673C317.654 113.2 317.557 112.783 317.364 112.423C317.177 112.057 316.907 111.773 316.554 111.573C316.207 111.367 315.794 111.263 315.314 111.263C314.987 111.263 314.687 111.323 314.414 111.443C314.147 111.563 313.94 111.723 313.794 111.923L313.734 111.903L313.834 109.763H317.274V108.863H312.924L312.754 112.953H313.734C313.834 112.713 314 112.517 314.234 112.363C314.467 112.21 314.757 112.133 315.104 112.133C315.557 112.133 315.917 112.273 316.184 112.553C316.457 112.833 316.594 113.22 316.594 113.713C316.594 114.167 316.46 114.537 316.194 114.823C315.934 115.11 315.567 115.253 315.094 115.253C314.654 115.253 314.3 115.127 314.034 114.873C313.774 114.62 313.644 114.287 313.644 113.873H312.614C312.62 114.327 312.724 114.727 312.924 115.073C313.124 115.42 313.407 115.69 313.774 115.883C314.147 116.07 314.584 116.163 315.084 116.163ZM319.758 116.073H320.528L325.158 108.783H324.388L319.758 116.073ZM320.078 112.753C320.518 112.753 320.872 112.583 321.138 112.243C321.412 111.903 321.548 111.417 321.548 110.783C321.548 110.17 321.418 109.69 321.158 109.343C320.905 108.997 320.552 108.823 320.098 108.823C319.652 108.823 319.292 108.993 319.018 109.333C318.745 109.667 318.608 110.147 318.608 110.773C318.608 111.387 318.738 111.87 318.998 112.223C319.258 112.577 319.618 112.753 320.078 112.753ZM320.088 112.133C319.862 112.133 319.678 112.037 319.538 111.843C319.405 111.643 319.338 111.29 319.338 110.783C319.338 110.27 319.408 109.92 319.548 109.733C319.688 109.54 319.868 109.443 320.088 109.443C320.302 109.443 320.475 109.54 320.608 109.733C320.748 109.92 320.818 110.27 320.818 110.783C320.818 111.29 320.748 111.643 320.608 111.843C320.475 112.037 320.302 112.133 320.088 112.133ZM324.838 116.113C325.278 116.113 325.632 115.943 325.898 115.603C326.172 115.263 326.308 114.78 326.308 114.153C326.308 113.54 326.178 113.057 325.918 112.703C325.665 112.35 325.312 112.173 324.858 112.173C324.412 112.173 324.052 112.343 323.778 112.683C323.505 113.023 323.368 113.507 323.368 114.133C323.368 114.747 323.498 115.23 323.758 115.583C324.018 115.937 324.378 116.113 324.838 116.113ZM324.848 115.493C324.622 115.493 324.438 115.397 324.298 115.203C324.165 115.003 324.098 114.65 324.098 114.143C324.098 113.63 324.165 113.28 324.298 113.093C324.438 112.9 324.622 112.803 324.848 112.803C325.062 112.803 325.235 112.9 325.368 113.093C325.502 113.28 325.568 113.63 325.568 114.143C325.568 114.657 325.502 115.01 325.368 115.203C325.235 115.397 325.062 115.493 324.848 115.493Z" fill="#14CA74"/>
<path d="M330.474 115.74L335.807 110.407" stroke="#14CA74" stroke-width="0.8" stroke-linecap="round" stroke-linejoin="round"/>
<path d="M335.807 115.435V110.407H330.779" stroke="#14CA74" stroke-width="0.8" stroke-linecap="round" stroke-linejoin="round"/>
<rect x="296.441" y="104.373" width="44.4" height="17.4" rx="1.7" stroke="#05C168" stroke-opacity="0.2" stroke-width="0.6"/>
<path opacity="0.2" d="M155.526 315.748C108.055 318.285 98.9423 224.331 46.8496 280.344V356.757H593.036V202.138C477.955 313.635 464.371 104.67 402.966 104.669C343.239 104.669 357.055 274.383 287.801 220.632C212.558 162.233 214.864 312.578 155.526 315.748Z" fill="url(#paint0_linear_4462_45617)"/>
<path d="M46.8496 280.344C98.9423 224.331 108.055 318.285 155.526 315.748C214.864 312.578 212.558 162.233 287.801 220.632C357.055 274.383 343.239 104.669 402.966 104.669C464.371 104.67 477.955 313.635 593.037 202.138" stroke="#57C3FF" stroke-linecap="round"/>
<path opacity="0.2" d="M157.801 285.428C131.1 334.639 72.7082 353.485 46.8496 356.757H593.036V36.7578C456.828 36.7578 407.667 185.306 311.599 178.762C215.532 172.218 191.176 223.915 157.801 285.428Z" fill="url(#paint1_linear_4462_45617)"/>
<path d="M46.8496 356.757C72.7082 353.485 131.1 334.639 157.801 285.428C191.176 223.915 215.532 172.218 311.599 178.762C407.667 185.306 456.828 36.7578 593.037 36.7578" stroke="#6C72FF" stroke-linecap="round"/>
<circle cx="6.5" cy="6.5" r="6" transform="matrix(-1 0 0 1 291.267 171.627)" fill="#101935" stroke="#6C72FF"/>
<circle cx="592.414" cy="36.8984" r="2.5" fill="#6C72FF"/>
<circle cx="592.414" cy="202.398" r="2.5" fill="#57C3FF"/>
<path d="M57.3597 390.135C57.9864 390.135 58.4831 389.981 58.8497 389.675C59.2231 389.361 59.4097 388.855 59.4097 388.155V382.765H58.3297V388.065C58.3297 388.471 58.2297 388.768 58.0297 388.955C57.8297 389.135 57.5397 389.225 57.1597 389.225C56.9931 389.225 56.8431 389.208 56.7097 389.175C56.5764 389.135 56.4631 389.088 56.3697 389.035V389.925C56.4831 389.985 56.6264 390.035 56.7997 390.075C56.9731 390.115 57.1597 390.135 57.3597 390.135ZM62.812 390.145C63.2587 390.145 63.6387 390.041 63.952 389.835C64.2653 389.621 64.4853 389.345 64.612 389.005H64.672V390.055H65.702V384.765H64.712L64.672 385.805H64.612C64.4853 385.465 64.2653 385.191 63.952 384.985C63.6387 384.778 63.2587 384.675 62.812 384.675C62.1653 384.675 61.642 384.908 61.242 385.375C60.8487 385.841 60.652 386.518 60.652 387.405C60.652 388.291 60.8487 388.971 61.242 389.445C61.642 389.911 62.1653 390.145 62.812 390.145ZM63.172 389.295C62.732 389.295 62.3787 389.135 62.112 388.815C61.8453 388.495 61.712 388.025 61.712 387.405C61.712 386.778 61.8453 386.308 62.112 385.995C62.3787 385.675 62.732 385.515 63.172 385.515C63.4987 385.515 63.772 385.591 63.992 385.745C64.212 385.898 64.3787 386.095 64.492 386.335C64.6053 386.575 64.662 386.831 64.662 387.105V387.705C64.662 387.978 64.6053 388.238 64.492 388.485C64.3787 388.725 64.212 388.921 63.992 389.075C63.772 389.221 63.4987 389.295 63.172 389.295ZM67.1448 390.055H68.1648V387.165C68.1648 386.858 68.2248 386.585 68.3448 386.345C68.4648 386.098 68.6348 385.901 68.8548 385.755C69.0815 385.608 69.3448 385.535 69.6448 385.535C70.0648 385.535 70.3748 385.665 70.5748 385.925C70.7748 386.185 70.8748 386.585 70.8748 387.125V390.055H71.9048V386.915C71.9048 386.375 71.8215 385.941 71.6548 385.615C71.4948 385.288 71.2715 385.051 70.9848 384.905C70.6981 384.758 70.3748 384.685 70.0148 384.685C69.6281 384.685 69.2715 384.781 68.9448 384.975C68.6181 385.161 68.3781 385.441 68.2248 385.815H68.1648L68.1248 384.765H67.1448V390.055Z" fill="#AEB9E1"/>
<path d="M100.33 390.055H101.42V386.945H105.02V386.045H101.42V383.705H105.42V382.765H100.33V390.055ZM108.532 390.145C108.952 390.145 109.328 390.075 109.662 389.935C110.002 389.788 110.278 389.588 110.492 389.335C110.705 389.075 110.835 388.771 110.882 388.425H109.902C109.835 388.698 109.678 388.918 109.432 389.085C109.185 389.245 108.885 389.325 108.532 389.325C108.072 389.325 107.702 389.178 107.422 388.885C107.148 388.585 107.005 388.161 106.992 387.615H110.912C110.965 387.061 110.908 386.565 110.742 386.125C110.575 385.678 110.302 385.328 109.922 385.075C109.548 384.815 109.072 384.685 108.492 384.685C107.978 384.685 107.532 384.798 107.152 385.025C106.772 385.251 106.478 385.571 106.272 385.985C106.072 386.391 105.972 386.875 105.972 387.435C105.972 387.975 106.075 388.448 106.282 388.855C106.488 389.261 106.782 389.578 107.162 389.805C107.548 390.031 108.005 390.145 108.532 390.145ZM108.482 385.495C108.875 385.495 109.205 385.605 109.472 385.825C109.745 386.045 109.888 386.398 109.902 386.885H107.012C107.052 386.451 107.202 386.111 107.462 385.865C107.728 385.618 108.068 385.495 108.482 385.495ZM114.915 390.145C115.562 390.145 116.082 389.911 116.475 389.445C116.875 388.978 117.075 388.301 117.075 387.415C117.075 386.528 116.875 385.851 116.475 385.385C116.082 384.911 115.562 384.675 114.915 384.675C114.469 384.675 114.089 384.781 113.775 384.995C113.462 385.201 113.242 385.471 113.115 385.805H113.055V382.765H112.025V390.055H113.015L113.055 389.015H113.115C113.242 389.355 113.462 389.628 113.775 389.835C114.089 390.041 114.469 390.145 114.915 390.145ZM114.555 389.295C114.229 389.295 113.955 389.221 113.735 389.075C113.515 388.921 113.349 388.725 113.235 388.485C113.122 388.238 113.065 387.978 113.065 387.705V387.115C113.065 386.841 113.122 386.585 113.235 386.345C113.349 386.098 113.515 385.901 113.735 385.755C113.955 385.601 114.229 385.525 114.555 385.525C114.995 385.525 115.349 385.685 115.615 386.005C115.882 386.318 116.015 386.788 116.015 387.415C116.015 388.035 115.882 388.505 115.615 388.825C115.349 389.138 114.995 389.295 114.555 389.295Z" fill="#AEB9E1"/>
<path d="M145.323 390.055H146.393V386.655L146.373 383.915H146.443L148.613 390.055H149.483L151.653 383.915H151.723L151.693 386.645V390.055H152.753V382.765H151.093L149.063 388.345H149.023L146.993 382.765H145.323V390.055ZM156.163 390.145C156.609 390.145 156.989 390.041 157.303 389.835C157.616 389.621 157.836 389.345 157.963 389.005H158.023V390.055H159.053V384.765H158.063L158.023 385.805H157.963C157.836 385.465 157.616 385.191 157.303 384.985C156.989 384.778 156.609 384.675 156.163 384.675C155.516 384.675 154.993 384.908 154.593 385.375C154.199 385.841 154.003 386.518 154.003 387.405C154.003 388.291 154.199 388.971 154.593 389.445C154.993 389.911 155.516 390.145 156.163 390.145ZM156.523 389.295C156.083 389.295 155.729 389.135 155.463 388.815C155.196 388.495 155.063 388.025 155.063 387.405C155.063 386.778 155.196 386.308 155.463 385.995C155.729 385.675 156.083 385.515 156.523 385.515C156.849 385.515 157.123 385.591 157.343 385.745C157.563 385.898 157.729 386.095 157.843 386.335C157.956 386.575 158.013 386.831 158.013 387.105V387.705C158.013 387.978 157.956 388.238 157.843 388.485C157.729 388.725 157.563 388.921 157.343 389.075C157.123 389.221 156.849 389.295 156.523 389.295ZM160.496 390.055H161.516V387.035C161.542 386.601 161.686 386.268 161.946 386.035C162.206 385.795 162.569 385.675 163.036 385.675C163.096 385.675 163.152 385.675 163.206 385.675C163.266 385.675 163.316 385.678 163.356 385.685V384.715C163.309 384.708 163.259 384.705 163.206 384.705C163.159 384.698 163.106 384.695 163.046 384.695C162.699 384.695 162.386 384.778 162.106 384.945C161.826 385.111 161.629 385.365 161.516 385.705H161.466L161.416 384.765H160.496V390.055Z" fill="#AEB9E1"/>
<path d="M190.735 390.055H191.875L192.475 388.355H195.705L196.305 390.055H197.445L194.855 382.765H193.325L190.735 390.055ZM192.735 387.505L193.555 385.255L194.065 383.765H194.125L194.635 385.255L195.435 387.505H192.735ZM198.183 391.725H199.213V389.015H199.273C199.406 389.355 199.629 389.628 199.943 389.835C200.256 390.041 200.633 390.145 201.073 390.145C201.719 390.145 202.239 389.911 202.633 389.445C203.033 388.978 203.233 388.301 203.233 387.415C203.233 386.528 203.033 385.851 202.633 385.385C202.239 384.911 201.719 384.675 201.073 384.675C200.633 384.675 200.256 384.781 199.943 384.995C199.629 385.201 199.406 385.471 199.273 385.805H199.213L199.173 384.765H198.183V391.725ZM200.713 389.295C200.386 389.295 200.113 389.221 199.893 389.075C199.673 388.921 199.506 388.725 199.393 388.485C199.279 388.238 199.223 387.978 199.223 387.705V387.115C199.223 386.841 199.279 386.585 199.393 386.345C199.506 386.098 199.673 385.901 199.893 385.755C200.113 385.601 200.386 385.525 200.713 385.525C201.153 385.525 201.506 385.685 201.773 386.005C202.046 386.318 202.183 386.788 202.183 387.415C202.183 388.035 202.046 388.505 201.773 388.825C201.506 389.138 201.153 389.295 200.713 389.295ZM204.325 390.055H205.345V387.035C205.372 386.601 205.515 386.268 205.775 386.035C206.035 385.795 206.398 385.675 206.865 385.675C206.925 385.675 206.982 385.675 207.035 385.675C207.095 385.675 207.145 385.678 207.185 385.685V384.715C207.138 384.708 207.088 384.705 207.035 384.705C206.988 384.698 206.935 384.695 206.875 384.695C206.528 384.695 206.215 384.778 205.935 384.945C205.655 385.111 205.458 385.365 205.345 385.705H205.295L205.245 384.765H204.325V390.055Z" fill="#AEB9E1"/>
<path d="M235.304 390.055H236.374V386.655L236.354 383.915H236.424L238.594 390.055H239.464L241.634 383.915H241.704L241.674 386.645V390.055H242.734V382.765H241.074L239.044 388.345H239.004L236.974 382.765H235.304V390.055ZM246.143 390.145C246.59 390.145 246.97 390.041 247.283 389.835C247.597 389.621 247.817 389.345 247.943 389.005H248.003V390.055H249.033V384.765H248.043L248.003 385.805H247.943C247.817 385.465 247.597 385.191 247.283 384.985C246.97 384.778 246.59 384.675 246.143 384.675C245.497 384.675 244.973 384.908 244.573 385.375C244.18 385.841 243.983 386.518 243.983 387.405C243.983 388.291 244.18 388.971 244.573 389.445C244.973 389.911 245.497 390.145 246.143 390.145ZM246.503 389.295C246.063 389.295 245.71 389.135 245.443 388.815C245.177 388.495 245.043 388.025 245.043 387.405C245.043 386.778 245.177 386.308 245.443 385.995C245.71 385.675 246.063 385.515 246.503 385.515C246.83 385.515 247.103 385.591 247.323 385.745C247.543 385.898 247.71 386.095 247.823 386.335C247.937 386.575 247.993 386.831 247.993 387.105V387.705C247.993 387.978 247.937 388.238 247.823 388.485C247.71 388.725 247.543 388.921 247.323 389.075C247.103 389.221 246.83 389.295 246.503 389.295ZM250.126 391.725H250.866C251.279 391.725 251.623 391.638 251.896 391.465C252.176 391.291 252.399 390.975 252.566 390.515L254.766 384.765H253.676L252.536 387.985L252.326 388.615H252.286L252.066 387.985L250.856 384.765H249.726L251.806 389.675L251.576 390.265C251.489 390.471 251.379 390.625 251.246 390.725C251.113 390.825 250.929 390.875 250.696 390.875H250.126V391.725Z" fill="#AEB9E1"/>
<path d="M283.102 390.135C283.728 390.135 284.225 389.981 284.592 389.675C284.965 389.361 285.152 388.855 285.152 388.155V382.765H284.072V388.065C284.072 388.471 283.972 388.768 283.772 388.955C283.572 389.135 283.282 389.225 282.902 389.225C282.735 389.225 282.585 389.208 282.452 389.175C282.318 389.135 282.205 389.088 282.112 389.035V389.925C282.225 389.985 282.368 390.035 282.542 390.075C282.715 390.115 282.902 390.135 283.102 390.135ZM288.604 390.145C289.017 390.145 289.384 390.045 289.704 389.845C290.024 389.638 290.247 389.351 290.374 388.985H290.434L290.484 390.055H291.464V384.765H290.434V387.625C290.434 388.111 290.301 388.511 290.034 388.825C289.767 389.131 289.417 389.285 288.984 389.285C288.537 389.285 288.217 389.155 288.024 388.895C287.831 388.628 287.734 388.251 287.734 387.765V384.765H286.704V388.025C286.704 388.725 286.871 389.255 287.204 389.615C287.537 389.968 288.004 390.145 288.604 390.145ZM292.857 390.055H293.877V387.165C293.877 386.858 293.937 386.585 294.057 386.345C294.177 386.098 294.347 385.901 294.567 385.755C294.794 385.608 295.057 385.535 295.357 385.535C295.777 385.535 296.087 385.665 296.287 385.925C296.487 386.185 296.587 386.585 296.587 387.125V390.055H297.617V386.915C297.617 386.375 297.534 385.941 297.367 385.615C297.207 385.288 296.984 385.051 296.697 384.905C296.411 384.758 296.087 384.685 295.727 384.685C295.341 384.685 294.984 384.781 294.657 384.975C294.331 385.161 294.091 385.441 293.937 385.815H293.877L293.837 384.765H292.857V390.055Z" fill="#AEB9E1"/>
<path d="M326.493 390.135C327.119 390.135 327.616 389.981 327.983 389.675C328.356 389.361 328.543 388.855 328.543 388.155V382.765H327.463V388.065C327.463 388.471 327.363 388.768 327.163 388.955C326.963 389.135 326.673 389.225 326.293 389.225C326.126 389.225 325.976 389.208 325.843 389.175C325.709 389.135 325.596 389.088 325.503 389.035V389.925C325.616 389.985 325.759 390.035 325.933 390.075C326.106 390.115 326.293 390.135 326.493 390.135ZM331.995 390.145C332.408 390.145 332.775 390.045 333.095 389.845C333.415 389.638 333.638 389.351 333.765 388.985H333.825L333.875 390.055H334.855V384.765H333.825V387.625C333.825 388.111 333.692 388.511 333.425 388.825C333.158 389.131 332.808 389.285 332.375 389.285C331.928 389.285 331.608 389.155 331.415 388.895C331.222 388.628 331.125 388.251 331.125 387.765V384.765H330.095V388.025C330.095 388.725 330.262 389.255 330.595 389.615C330.928 389.968 331.395 390.145 331.995 390.145ZM336.249 390.055H337.279V382.765H336.249V390.055Z" fill="#AEB9E1"/>
<path d="M364.945 390.055H366.085L366.685 388.355H369.915L370.515 390.055H371.655L369.065 382.765H367.535L364.945 390.055ZM366.945 387.505L367.765 385.255L368.275 383.765H368.335L368.845 385.255L369.645 387.505H366.945ZM374.047 390.145C374.461 390.145 374.827 390.045 375.147 389.845C375.467 389.638 375.691 389.351 375.817 388.985H375.877L375.927 390.055H376.907V384.765H375.877V387.625C375.877 388.111 375.744 388.511 375.477 388.825C375.211 389.131 374.861 389.285 374.427 389.285C373.981 389.285 373.661 389.155 373.467 388.895C373.274 388.628 373.177 388.251 373.177 387.765V384.765H372.147V388.025C372.147 388.725 372.314 389.255 372.647 389.615C372.981 389.968 373.447 390.145 374.047 390.145ZM380.352 391.825C380.852 391.825 381.288 391.751 381.662 391.605C382.035 391.458 382.325 391.218 382.532 390.885C382.745 390.558 382.852 390.118 382.852 389.565V384.765H381.852L381.832 385.745H381.762C381.642 385.425 381.428 385.168 381.122 384.975C380.822 384.775 380.462 384.675 380.042 384.675C379.402 384.675 378.885 384.895 378.492 385.335C378.098 385.775 377.902 386.401 377.902 387.215C377.902 388.021 378.095 388.645 378.482 389.085C378.868 389.525 379.385 389.745 380.032 389.745C380.452 389.745 380.815 389.648 381.122 389.455C381.428 389.255 381.642 388.995 381.762 388.675H381.832V389.705C381.832 390.191 381.705 390.538 381.452 390.745C381.205 390.958 380.845 391.065 380.372 391.065C380.038 391.065 379.762 390.995 379.542 390.855C379.328 390.721 379.202 390.538 379.162 390.305H378.162C378.215 390.771 378.435 391.141 378.822 391.415C379.208 391.688 379.718 391.825 380.352 391.825ZM380.382 388.945C379.955 388.945 379.612 388.798 379.352 388.505C379.092 388.205 378.962 387.775 378.962 387.215C378.962 386.661 379.088 386.235 379.342 385.935C379.602 385.635 379.952 385.485 380.392 385.485C380.705 385.485 380.965 385.555 381.172 385.695C381.385 385.828 381.545 386.001 381.652 386.215C381.765 386.428 381.822 386.651 381.822 386.885L381.832 387.525C381.825 387.758 381.765 387.985 381.652 388.205C381.538 388.418 381.375 388.595 381.162 388.735C380.948 388.875 380.688 388.945 380.382 388.945Z" fill="#AEB9E1"/>
<path d="M413.858 390.145C414.792 390.145 415.498 389.951 415.978 389.565C416.465 389.178 416.708 388.671 416.708 388.045C416.708 387.625 416.638 387.281 416.498 387.015C416.365 386.748 416.178 386.538 415.938 386.385C415.705 386.231 415.438 386.115 415.138 386.035C414.838 385.955 414.528 385.888 414.208 385.835C413.742 385.748 413.365 385.665 413.078 385.585C412.792 385.498 412.582 385.381 412.448 385.235C412.322 385.088 412.258 384.881 412.258 384.615C412.258 384.281 412.388 384.018 412.648 383.825C412.915 383.625 413.288 383.525 413.768 383.525C414.242 383.525 414.622 383.631 414.908 383.845C415.202 384.058 415.355 384.381 415.368 384.815H416.478C416.472 384.175 416.232 383.661 415.758 383.275C415.292 382.881 414.642 382.685 413.808 382.685C412.975 382.685 412.318 382.871 411.838 383.245C411.365 383.618 411.128 384.125 411.128 384.765C411.128 385.178 411.222 385.518 411.408 385.785C411.602 386.045 411.885 386.255 412.258 386.415C412.632 386.568 413.098 386.695 413.658 386.795C414.138 386.875 414.518 386.965 414.798 387.065C415.078 387.158 415.278 387.288 415.398 387.455C415.518 387.621 415.578 387.851 415.578 388.145C415.578 388.531 415.422 388.818 415.108 389.005C414.802 389.191 414.392 389.285 413.878 389.285C413.258 389.285 412.805 389.151 412.518 388.885C412.238 388.611 412.092 388.241 412.078 387.775H410.958C410.965 388.241 411.075 388.655 411.288 389.015C411.502 389.368 411.822 389.645 412.248 389.845C412.675 390.045 413.212 390.145 413.858 390.145ZM420.07 390.145C420.49 390.145 420.866 390.075 421.2 389.935C421.54 389.788 421.816 389.588 422.03 389.335C422.243 389.075 422.373 388.771 422.42 388.425H421.44C421.373 388.698 421.216 388.918 420.97 389.085C420.723 389.245 420.423 389.325 420.07 389.325C419.61 389.325 419.24 389.178 418.96 388.885C418.686 388.585 418.543 388.161 418.53 387.615H422.45C422.503 387.061 422.446 386.565 422.28 386.125C422.113 385.678 421.84 385.328 421.46 385.075C421.086 384.815 420.61 384.685 420.03 384.685C419.516 384.685 419.07 384.798 418.69 385.025C418.31 385.251 418.016 385.571 417.81 385.985C417.61 386.391 417.51 386.875 417.51 387.435C417.51 387.975 417.613 388.448 417.82 388.855C418.026 389.261 418.32 389.578 418.7 389.805C419.086 390.031 419.543 390.145 420.07 390.145ZM420.02 385.495C420.413 385.495 420.743 385.605 421.01 385.825C421.283 386.045 421.426 386.398 421.44 386.885H418.55C418.59 386.451 418.74 386.111 419 385.865C419.266 385.618 419.606 385.495 420.02 385.495ZM423.563 391.725H424.593V389.015H424.653C424.786 389.355 425.01 389.628 425.323 389.835C425.636 390.041 426.013 390.145 426.453 390.145C427.1 390.145 427.62 389.911 428.013 389.445C428.413 388.978 428.613 388.301 428.613 387.415C428.613 386.528 428.413 385.851 428.013 385.385C427.62 384.911 427.1 384.675 426.453 384.675C426.013 384.675 425.636 384.781 425.323 384.995C425.01 385.201 424.786 385.471 424.653 385.805H424.593L424.553 384.765H423.563V391.725ZM426.093 389.295C425.766 389.295 425.493 389.221 425.273 389.075C425.053 388.921 424.886 388.725 424.773 388.485C424.66 388.238 424.603 387.978 424.603 387.705V387.115C424.603 386.841 424.66 386.585 424.773 386.345C424.886 386.098 425.053 385.901 425.273 385.755C425.493 385.601 425.766 385.525 426.093 385.525C426.533 385.525 426.886 385.685 427.153 386.005C427.426 386.318 427.563 386.788 427.563 387.415C427.563 388.035 427.426 388.505 427.153 388.825C426.886 389.138 426.533 389.295 426.093 389.295Z" fill="#AEB9E1"/>
<path d="M460.165 390.145C460.885 390.145 461.515 389.995 462.055 389.695C462.595 389.395 463.015 388.968 463.315 388.415C463.615 387.855 463.765 387.188 463.765 386.415C463.765 385.641 463.615 384.978 463.315 384.425C463.015 383.865 462.595 383.435 462.055 383.135C461.521 382.835 460.891 382.685 460.165 382.685C459.445 382.685 458.815 382.835 458.275 383.135C457.741 383.435 457.325 383.865 457.025 384.425C456.725 384.978 456.575 385.641 456.575 386.415C456.575 387.181 456.721 387.845 457.015 388.405C457.315 388.965 457.735 389.395 458.275 389.695C458.815 389.995 459.445 390.145 460.165 390.145ZM460.165 389.205C459.411 389.205 458.811 388.961 458.365 388.475C457.918 387.988 457.695 387.301 457.695 386.415C457.695 385.528 457.915 384.841 458.355 384.355C458.801 383.868 459.405 383.625 460.165 383.625C460.925 383.625 461.528 383.868 461.975 384.355C462.421 384.841 462.645 385.528 462.645 386.415C462.645 387.295 462.421 387.981 461.975 388.475C461.528 388.961 460.925 389.205 460.165 389.205ZM467.161 390.145C467.601 390.145 467.995 390.065 468.341 389.905C468.688 389.738 468.965 389.508 469.171 389.215C469.378 388.915 469.495 388.565 469.521 388.165H468.521C468.481 388.498 468.341 388.768 468.101 388.975C467.861 389.181 467.548 389.285 467.161 389.285C466.701 389.285 466.331 389.125 466.051 388.805C465.778 388.478 465.641 388.018 465.641 387.425C465.641 386.858 465.775 386.405 466.041 386.065C466.308 385.718 466.685 385.545 467.171 385.545C467.511 385.545 467.801 385.635 468.041 385.815C468.288 385.988 468.441 386.248 468.501 386.595H469.501C469.475 386.215 469.358 385.881 469.151 385.595C468.951 385.308 468.681 385.085 468.341 384.925C468.008 384.765 467.628 384.685 467.201 384.685C466.675 384.685 466.215 384.798 465.821 385.025C465.428 385.251 465.125 385.571 464.911 385.985C464.698 386.391 464.591 386.868 464.591 387.415C464.591 387.961 464.698 388.441 464.911 388.855C465.125 389.261 465.425 389.578 465.811 389.805C466.198 390.031 466.648 390.145 467.161 390.145ZM472.077 390.055H473.137V389.205H472.417C472.25 389.205 472.133 389.175 472.067 389.115C472 389.055 471.967 388.938 471.967 388.765V385.605H473.137V384.765H471.967V383.115L470.937 383.235V384.765H469.937V385.605H470.937V388.955C470.937 389.308 471.017 389.581 471.177 389.775C471.343 389.961 471.643 390.055 472.077 390.055Z" fill="#AEB9E1"/>
<path d="M501.387 390.055H502.497V386.555L502.457 384.285H502.517L506.287 390.055H507.567V382.765H506.507V386.165L506.567 388.605H506.497L502.727 382.765H501.387V390.055ZM511.397 390.145C511.93 390.145 512.387 390.031 512.767 389.805C513.153 389.571 513.45 389.251 513.657 388.845C513.87 388.431 513.977 387.955 513.977 387.415C513.977 386.855 513.867 386.371 513.647 385.965C513.433 385.551 513.133 385.235 512.747 385.015C512.36 384.795 511.91 384.685 511.397 384.685C510.863 384.685 510.403 384.801 510.017 385.035C509.63 385.261 509.33 385.581 509.117 385.995C508.91 386.401 508.807 386.878 508.807 387.425C508.807 387.978 508.913 388.458 509.127 388.865C509.347 389.271 509.65 389.588 510.037 389.815C510.43 390.035 510.883 390.145 511.397 390.145ZM511.397 389.285C510.93 389.285 510.557 389.121 510.277 388.795C509.997 388.468 509.857 388.011 509.857 387.425C509.857 386.811 509.997 386.345 510.277 386.025C510.563 385.698 510.937 385.535 511.397 385.535C511.87 385.535 512.243 385.701 512.517 386.035C512.79 386.361 512.927 386.821 512.927 387.415C512.927 388.015 512.787 388.478 512.507 388.805C512.227 389.125 511.857 389.285 511.397 389.285ZM516.088 390.055H517.348L519.228 384.765H518.118L517.058 388.025L516.738 389.165H516.698L516.358 388.025L515.298 384.765H514.188L516.088 390.055Z" fill="#AEB9E1"/>
<path d="M547.276 390.055H550.226C550.926 390.055 551.523 389.905 552.016 389.605C552.51 389.298 552.883 388.871 553.136 388.325C553.396 387.778 553.526 387.141 553.526 386.415C553.526 385.681 553.396 385.041 553.136 384.495C552.883 383.948 552.51 383.525 552.016 383.225C551.523 382.918 550.926 382.765 550.226 382.765H547.276V390.055ZM548.366 389.115V383.705H550.066C550.766 383.705 551.33 383.921 551.756 384.355C552.19 384.788 552.406 385.468 552.406 386.395C552.406 387.321 552.193 388.008 551.766 388.455C551.34 388.895 550.773 389.115 550.066 389.115H548.366ZM556.914 390.145C557.334 390.145 557.711 390.075 558.044 389.935C558.384 389.788 558.661 389.588 558.874 389.335C559.087 389.075 559.217 388.771 559.264 388.425H558.284C558.217 388.698 558.061 388.918 557.814 389.085C557.567 389.245 557.267 389.325 556.914 389.325C556.454 389.325 556.084 389.178 555.804 388.885C555.531 388.585 555.387 388.161 555.374 387.615H559.294C559.347 387.061 559.291 386.565 559.124 386.125C558.957 385.678 558.684 385.328 558.304 385.075C557.931 384.815 557.454 384.685 556.874 384.685C556.361 384.685 555.914 384.798 555.534 385.025C555.154 385.251 554.861 385.571 554.654 385.985C554.454 386.391 554.354 386.875 554.354 387.435C554.354 387.975 554.457 388.448 554.664 388.855C554.871 389.261 555.164 389.578 555.544 389.805C555.931 390.031 556.387 390.145 556.914 390.145ZM556.864 385.495C557.257 385.495 557.587 385.605 557.854 385.825C558.127 386.045 558.271 386.398 558.284 386.885H555.394C555.434 386.451 555.584 386.111 555.844 385.865C556.111 385.618 556.451 385.495 556.864 385.495ZM562.715 390.145C563.155 390.145 563.548 390.065 563.895 389.905C564.242 389.738 564.518 389.508 564.725 389.215C564.932 388.915 565.048 388.565 565.075 388.165H564.075C564.035 388.498 563.895 388.768 563.655 388.975C563.415 389.181 563.102 389.285 562.715 389.285C562.255 389.285 561.885 389.125 561.605 388.805C561.332 388.478 561.195 388.018 561.195 387.425C561.195 386.858 561.328 386.405 561.595 386.065C561.862 385.718 562.238 385.545 562.725 385.545C563.065 385.545 563.355 385.635 563.595 385.815C563.842 385.988 563.995 386.248 564.055 386.595H565.055C565.028 386.215 564.912 385.881 564.705 385.595C564.505 385.308 564.235 385.085 563.895 384.925C563.562 384.765 563.182 384.685 562.755 384.685C562.228 384.685 561.768 384.798 561.375 385.025C560.982 385.251 560.678 385.571 560.465 385.985C560.252 386.391 560.145 386.868 560.145 387.415C560.145 387.961 560.252 388.441 560.465 388.855C560.678 389.261 560.978 389.578 561.365 389.805C561.752 390.031 562.202 390.145 562.715 390.145Z" fill="#AEB9E1"/>
<path d="M19.0959 354.86C19.7199 354.86 20.2639 354.692 20.7279 354.356C21.1999 354.012 21.5639 353.512 21.8199 352.856C22.0839 352.2 22.2159 351.392 22.2159 350.432C22.2159 349.024 21.9359 347.936 21.3759 347.168C20.8159 346.4 20.0599 346.016 19.1079 346.016C18.4759 346.016 17.9199 346.184 17.4399 346.52C16.9679 346.856 16.5999 347.352 16.3359 348.008C16.0719 348.656 15.9399 349.46 15.9399 350.42C15.9399 351.356 16.0679 352.156 16.3239 352.82C16.5799 353.484 16.9439 353.992 17.4159 354.344C17.8959 354.688 18.4559 354.86 19.0959 354.86ZM19.0839 353.804C18.4999 353.804 18.0359 353.54 17.6919 353.012C17.3559 352.476 17.1879 351.616 17.1879 350.432C17.1879 349.24 17.3559 348.38 17.6919 347.852C18.0359 347.324 18.4999 347.06 19.0839 347.06C19.6759 347.06 20.1399 347.324 20.4759 347.852C20.8119 348.38 20.9799 349.24 20.9799 350.432C20.9799 351.616 20.8119 352.476 20.4759 353.012C20.1399 353.54 19.6759 353.804 19.0839 353.804ZM23.7009 354.764H25.0089V352.16L26.4849 350.6L29.2569 354.764H30.8049L27.3729 349.652L30.7449 346.016H29.1609L25.0089 350.6V346.016H23.7009V354.764Z" fill="#AEB9E1"/>
<line opacity="0.5" x1="48.4856" y1="357.364" x2="593.036" y2="357.363" stroke="#37446B" stroke-width="0.8"/>
<path d="M8.98223 297.471H14.7902V296.379H10.5302C10.6022 296.067 10.7502 295.783 10.9742 295.527C11.2062 295.271 11.4782 295.027 11.7902 294.795C12.1102 294.563 12.4382 294.327 12.7742 294.087C13.1102 293.847 13.4222 293.591 13.7102 293.319C14.0062 293.039 14.2422 292.731 14.4182 292.395C14.6022 292.051 14.6942 291.659 14.6942 291.219C14.6942 290.715 14.5782 290.275 14.3462 289.899C14.1142 289.523 13.7902 289.231 13.3742 289.023C12.9582 288.815 12.4702 288.711 11.9102 288.711C11.3262 288.711 10.8102 288.827 10.3622 289.059C9.92223 289.291 9.58223 289.615 9.34223 290.031C9.10223 290.447 8.99023 290.939 9.00623 291.507H10.2182C10.1862 290.963 10.3222 290.539 10.6262 290.235C10.9382 289.931 11.3422 289.779 11.8382 289.779C12.3102 289.779 12.6902 289.915 12.9782 290.187C13.2662 290.459 13.4102 290.823 13.4102 291.279C13.4102 291.647 13.3022 291.975 13.0862 292.263C12.8782 292.543 12.6062 292.811 12.2702 293.067C11.9342 293.315 11.5742 293.571 11.1902 293.835C10.8142 294.091 10.4582 294.379 10.1222 294.699C9.78623 295.011 9.51023 295.375 9.29423 295.791C9.08623 296.207 8.98223 296.695 8.98223 297.255V297.471ZM18.9566 297.579C19.5886 297.579 20.1326 297.455 20.5886 297.207C21.0526 296.959 21.4086 296.611 21.6566 296.163C21.9126 295.707 22.0406 295.183 22.0406 294.591C22.0406 294.023 21.9246 293.523 21.6926 293.091C21.4686 292.651 21.1446 292.311 20.7206 292.071C20.3046 291.823 19.8086 291.699 19.2326 291.699C18.8406 291.699 18.4806 291.771 18.1526 291.915C17.8326 292.059 17.5846 292.251 17.4086 292.491L17.3366 292.467L17.4566 289.899H21.5846V288.819H16.3646L16.1606 293.727H17.3366C17.4566 293.439 17.6566 293.203 17.9366 293.019C18.2166 292.835 18.5646 292.743 18.9806 292.743C19.5246 292.743 19.9566 292.911 20.2766 293.247C20.6046 293.583 20.7686 294.047 20.7686 294.639C20.7686 295.183 20.6086 295.627 20.2886 295.971C19.9766 296.315 19.5366 296.487 18.9686 296.487C18.4406 296.487 18.0166 296.335 17.6966 296.031C17.3846 295.727 17.2286 295.327 17.2286 294.831H15.9926C16.0006 295.375 16.1246 295.855 16.3646 296.271C16.6046 296.687 16.9446 297.011 17.3846 297.243C17.8326 297.467 18.3566 297.579 18.9566 297.579ZM23.7019 297.471H25.0099V294.867L26.4859 293.307L29.2579 297.471H30.8059L27.3739 292.359L30.7459 288.723H29.1619L25.0099 293.307V288.723H23.7019V297.471Z" fill="#AEB9E1"/>
<line opacity="0.5" x1="48.4862" y1="300.071" x2="593.037" y2="300.071" stroke="#37446B" stroke-width="0.8"/>
<path d="M11.8316 240.286C12.4636 240.286 13.0076 240.162 13.4636 239.914C13.9276 239.666 14.2836 239.318 14.5316 238.87C14.7876 238.414 14.9156 237.89 14.9156 237.298C14.9156 236.73 14.7996 236.23 14.5676 235.798C14.3436 235.358 14.0196 235.018 13.5956 234.778C13.1796 234.53 12.6836 234.406 12.1076 234.406C11.7156 234.406 11.3556 234.478 11.0276 234.622C10.7076 234.766 10.4596 234.958 10.2836 235.198L10.2116 235.174L10.3316 232.606H14.4596V231.526H9.23958L9.03558 236.434H10.2116C10.3316 236.146 10.5316 235.91 10.8116 235.726C11.0916 235.542 11.4396 235.45 11.8556 235.45C12.3996 235.45 12.8316 235.618 13.1516 235.954C13.4796 236.29 13.6436 236.754 13.6436 237.346C13.6436 237.89 13.4836 238.334 13.1636 238.678C12.8516 239.022 12.4116 239.194 11.8436 239.194C11.3156 239.194 10.8916 239.042 10.5716 238.738C10.2596 238.434 10.1036 238.034 10.1036 237.538H8.86758C8.87558 238.082 8.99958 238.562 9.23958 238.978C9.47958 239.394 9.81958 239.718 10.2596 239.95C10.7076 240.174 11.2316 240.286 11.8316 240.286ZM19.0969 240.274C19.7209 240.274 20.2649 240.106 20.7289 239.77C21.2009 239.426 21.5649 238.926 21.8209 238.27C22.0849 237.614 22.2169 236.806 22.2169 235.846C22.2169 234.438 21.9369 233.35 21.3769 232.582C20.8169 231.814 20.0609 231.43 19.1089 231.43C18.4769 231.43 17.9209 231.598 17.4409 231.934C16.9689 232.27 16.6009 232.766 16.3369 233.422C16.0729 234.07 15.9409 234.874 15.9409 235.834C15.9409 236.77 16.0689 237.57 16.3249 238.234C16.5809 238.898 16.9449 239.406 17.4169 239.758C17.8969 240.102 18.4569 240.274 19.0969 240.274ZM19.0849 239.218C18.5009 239.218 18.0369 238.954 17.6929 238.426C17.3569 237.89 17.1889 237.03 17.1889 235.846C17.1889 234.654 17.3569 233.794 17.6929 233.266C18.0369 232.738 18.5009 232.474 19.0849 232.474C19.6769 232.474 20.1409 232.738 20.4769 233.266C20.8129 233.794 20.9809 234.654 20.9809 235.846C20.9809 237.03 20.8129 237.89 20.4769 238.426C20.1409 238.954 19.6769 239.218 19.0849 239.218ZM23.7019 240.178H25.0099V237.574L26.4859 236.014L29.2579 240.178H30.8059L27.3739 235.066L30.7459 231.43H29.1619L25.0099 236.014V231.43H23.7019V240.178Z" fill="#AEB9E1"/>
<line opacity="0.5" x1="48.4862" y1="242.778" x2="593.037" y2="242.778" stroke="#37446B" stroke-width="0.8"/>
<path d="M5.95602 182.885H7.19202V174.233H6.00402C5.96402 174.665 5.79602 175.013 5.50002 175.277C5.21202 175.541 4.78002 175.673 4.20402 175.673H3.86802V176.621H5.95602V182.885ZM11.9707 182.981C12.5947 182.981 13.1387 182.813 13.6027 182.477C14.0747 182.133 14.4387 181.633 14.6947 180.977C14.9587 180.321 15.0907 179.513 15.0907 178.553C15.0907 177.145 14.8107 176.057 14.2507 175.289C13.6907 174.521 12.9347 174.137 11.9827 174.137C11.3507 174.137 10.7947 174.305 10.3147 174.641C9.84274 174.977 9.47474 175.473 9.21074 176.129C8.94674 176.777 8.81474 177.581 8.81474 178.541C8.81474 179.477 8.94274 180.277 9.19874 180.941C9.45474 181.605 9.81874 182.113 10.2907 182.465C10.7707 182.809 11.3307 182.981 11.9707 182.981ZM11.9587 181.925C11.3747 181.925 10.9107 181.661 10.5667 181.133C10.2307 180.597 10.0627 179.737 10.0627 178.553C10.0627 177.361 10.2307 176.501 10.5667 175.973C10.9107 175.445 11.3747 175.181 11.9587 175.181C12.5507 175.181 13.0147 175.445 13.3507 175.973C13.6867 176.501 13.8547 177.361 13.8547 178.553C13.8547 179.737 13.6867 180.597 13.3507 181.133C13.0147 181.661 12.5507 181.925 11.9587 181.925ZM19.0957 182.981C19.7197 182.981 20.2637 182.813 20.7277 182.477C21.1997 182.133 21.5637 181.633 21.8197 180.977C22.0837 180.321 22.2157 179.513 22.2157 178.553C22.2157 177.145 21.9357 176.057 21.3757 175.289C20.8157 174.521 20.0597 174.137 19.1077 174.137C18.4757 174.137 17.9197 174.305 17.4397 174.641C16.9677 174.977 16.5997 175.473 16.3357 176.129C16.0717 176.777 15.9397 177.581 15.9397 178.541C15.9397 179.477 16.0677 180.277 16.3237 180.941C16.5797 181.605 16.9437 182.113 17.4157 182.465C17.8957 182.809 18.4557 182.981 19.0957 182.981ZM19.0837 181.925C18.4997 181.925 18.0357 181.661 17.6917 181.133C17.3557 180.597 17.1877 179.737 17.1877 178.553C17.1877 177.361 17.3557 176.501 17.6917 175.973C18.0357 175.445 18.4997 175.181 19.0837 175.181C19.6757 175.181 20.1397 175.445 20.4757 175.973C20.8117 176.501 20.9797 177.361 20.9797 178.553C20.9797 179.737 20.8117 180.597 20.4757 181.133C20.1397 181.661 19.6757 181.925 19.0837 181.925ZM23.7007 182.885H25.0087V180.281L26.4847 178.721L29.2567 182.885H30.8047L27.3727 177.773L30.7447 174.137H29.1607L25.0087 178.721V174.137H23.7007V182.885Z" fill="#AEB9E1"/>
<line opacity="0.5" x1="48.4854" y1="185.361" x2="593.036" y2="185.361" stroke="#37446B" stroke-width="0.8"/>
<path d="M5.80367 125.592H7.03967V116.94H5.85167C5.81167 117.372 5.64367 117.72 5.34767 117.984C5.05967 118.248 4.62767 118.38 4.05167 118.38H3.71567V119.328H5.80367V125.592ZM11.8304 125.7C12.4624 125.7 13.0064 125.576 13.4624 125.328C13.9264 125.08 14.2824 124.732 14.5304 124.284C14.7864 123.828 14.9144 123.304 14.9144 122.712C14.9144 122.144 14.7984 121.644 14.5664 121.212C14.3424 120.772 14.0184 120.432 13.5944 120.192C13.1784 119.944 12.6824 119.82 12.1064 119.82C11.7144 119.82 11.3544 119.892 11.0264 120.036C10.7064 120.18 10.4584 120.372 10.2824 120.612L10.2104 120.588L10.3304 118.02H14.4584V116.94H9.23839L9.03439 121.848H10.2104C10.3304 121.56 10.5304 121.324 10.8104 121.14C11.0904 120.956 11.4384 120.864 11.8544 120.864C12.3984 120.864 12.8304 121.032 13.1504 121.368C13.4784 121.704 13.6424 122.168 13.6424 122.76C13.6424 123.304 13.4824 123.748 13.1624 124.092C12.8504 124.436 12.4104 124.608 11.8424 124.608C11.3144 124.608 10.8904 124.456 10.5704 124.152C10.2584 123.848 10.1024 123.448 10.1024 122.952H8.86639C8.87439 123.496 8.99839 123.976 9.23839 124.392C9.47839 124.808 9.81839 125.132 10.2584 125.364C10.7064 125.588 11.2304 125.7 11.8304 125.7ZM19.0957 125.688C19.7197 125.688 20.2637 125.52 20.7277 125.184C21.1997 124.84 21.5637 124.34 21.8197 123.684C22.0837 123.028 22.2157 122.22 22.2157 121.26C22.2157 119.852 21.9357 118.764 21.3757 117.996C20.8157 117.228 20.0597 116.844 19.1077 116.844C18.4757 116.844 17.9197 117.012 17.4397 117.348C16.9677 117.684 16.5997 118.18 16.3357 118.836C16.0717 119.484 15.9397 120.288 15.9397 121.248C15.9397 122.184 16.0677 122.984 16.3237 123.648C16.5797 124.312 16.9437 124.82 17.4157 125.172C17.8957 125.516 18.4557 125.688 19.0957 125.688ZM19.0837 124.632C18.4997 124.632 18.0357 124.368 17.6917 123.84C17.3557 123.304 17.1877 122.444 17.1877 121.26C17.1877 120.068 17.3557 119.208 17.6917 118.68C18.0357 118.152 18.4997 117.888 19.0837 117.888C19.6757 117.888 20.1397 118.152 20.4757 118.68C20.8117 119.208 20.9797 120.068 20.9797 121.26C20.9797 122.444 20.8117 123.304 20.4757 123.84C20.1397 124.368 19.6757 124.632 19.0837 124.632ZM23.7007 125.592H25.0087V122.988L26.4847 121.428L29.2567 125.592H30.8047L27.3727 120.48L30.7447 116.844H29.1607L25.0087 121.428V116.844H23.7007V125.592Z" fill="#AEB9E1"/>
<line opacity="0.5" x1="48.4854" y1="127.241" x2="593.036" y2="127.241" stroke="#37446B" stroke-width="0.8"/>
<path d="M2.0089 68.2957H7.8169V67.2037H3.5569C3.6289 66.8917 3.7769 66.6077 4.0009 66.3517C4.2329 66.0957 4.5049 65.8517 4.8169 65.6197C5.1369 65.3877 5.4649 65.1517 5.8009 64.9117C6.1369 64.6717 6.4489 64.4157 6.7369 64.1437C7.0329 63.8637 7.2689 63.5557 7.4449 63.2197C7.6289 62.8757 7.7209 62.4837 7.7209 62.0437C7.7209 61.5397 7.6049 61.0997 7.3729 60.7237C7.1409 60.3477 6.8169 60.0557 6.4009 59.8477C5.9849 59.6397 5.4969 59.5357 4.9369 59.5357C4.3529 59.5357 3.8369 59.6517 3.3889 59.8837C2.9489 60.1157 2.6089 60.4397 2.3689 60.8557C2.1289 61.2717 2.0169 61.7637 2.0329 62.3317H3.2449C3.2129 61.7877 3.3489 61.3637 3.6529 61.0597C3.9649 60.7557 4.3689 60.6037 4.8649 60.6037C5.3369 60.6037 5.7169 60.7397 6.0049 61.0117C6.2929 61.2837 6.4369 61.6477 6.4369 62.1037C6.4369 62.4717 6.3289 62.7997 6.1129 63.0877C5.9049 63.3677 5.6329 63.6357 5.2969 63.8917C4.9609 64.1397 4.6009 64.3957 4.2169 64.6597C3.8409 64.9157 3.4849 65.2037 3.1489 65.5237C2.8129 65.8357 2.5369 66.1997 2.3209 66.6157C2.1129 67.0317 2.0089 67.5197 2.0089 68.0797V68.2957ZM11.9712 68.3917C12.5952 68.3917 13.1392 68.2237 13.6032 67.8877C14.0752 67.5437 14.4392 67.0437 14.6952 66.3877C14.9592 65.7317 15.0912 64.9237 15.0912 63.9637C15.0912 62.5557 14.8112 61.4677 14.2512 60.6997C13.6912 59.9317 12.9352 59.5477 11.9832 59.5477C11.3512 59.5477 10.7952 59.7157 10.3152 60.0517C9.84324 60.3877 9.47524 60.8837 9.21124 61.5397C8.94724 62.1877 8.81524 62.9917 8.81524 63.9517C8.81524 64.8877 8.94324 65.6877 9.19924 66.3517C9.45524 67.0157 9.81924 67.5237 10.2912 67.8757C10.7712 68.2197 11.3312 68.3917 11.9712 68.3917ZM11.9592 67.3357C11.3752 67.3357 10.9112 67.0717 10.5672 66.5437C10.2312 66.0077 10.0632 65.1477 10.0632 63.9637C10.0632 62.7717 10.2312 61.9117 10.5672 61.3837C10.9112 60.8557 11.3752 60.5917 11.9592 60.5917C12.5512 60.5917 13.0152 60.8557 13.3512 61.3837C13.6872 61.9117 13.8552 62.7717 13.8552 63.9637C13.8552 65.1477 13.6872 66.0077 13.3512 66.5437C13.0152 67.0717 12.5512 67.3357 11.9592 67.3357ZM19.0962 68.3917C19.7202 68.3917 20.2642 68.2237 20.7282 67.8877C21.2002 67.5437 21.5642 67.0437 21.8202 66.3877C22.0842 65.7317 22.2162 64.9237 22.2162 63.9637C22.2162 62.5557 21.9362 61.4677 21.3762 60.6997C20.8162 59.9317 20.0602 59.5477 19.1082 59.5477C18.4762 59.5477 17.9202 59.7157 17.4402 60.0517C16.9682 60.3877 16.6002 60.8837 16.3362 61.5397C16.0722 62.1877 15.9402 62.9917 15.9402 63.9517C15.9402 64.8877 16.0682 65.6877 16.3242 66.3517C16.5802 67.0157 16.9442 67.5237 17.4162 67.8757C17.8962 68.2197 18.4562 68.3917 19.0962 68.3917ZM19.0842 67.3357C18.5002 67.3357 18.0362 67.0717 17.6922 66.5437C17.3562 66.0077 17.1882 65.1477 17.1882 63.9637C17.1882 62.7717 17.3562 61.9117 17.6922 61.3837C18.0362 60.8557 18.5002 60.5917 19.0842 60.5917C19.6762 60.5917 20.1402 60.8557 20.4762 61.3837C20.8122 61.9117 20.9802 62.7717 20.9802 63.9637C20.9802 65.1477 20.8122 66.0077 20.4762 66.5437C20.1402 67.0717 19.6762 67.3357 19.0842 67.3357ZM23.7012 68.2957H25.0092V65.6917L26.4852 64.1317L29.2572 68.2957H30.8052L27.3732 63.1837L30.7452 59.5477H29.1612L25.0092 64.1317V59.5477H23.7012V68.2957Z" fill="#AEB9E1"/>
<line opacity="0.5" x1="48.4856" y1="70.8987" x2="593.036" y2="70.8986" stroke="#37446B" stroke-width="0.8"/>
<path d="M1.85655 11H7.66455V9.908H3.40455C3.47655 9.596 3.62455 9.312 3.84855 9.056C4.08055 8.8 4.35255 8.556 4.66455 8.324C4.98455 8.092 5.31255 7.856 5.64855 7.616C5.98455 7.376 6.29655 7.12 6.58455 6.848C6.88055 6.568 7.11655 6.26 7.29255 5.924C7.47655 5.58 7.56855 5.188 7.56855 4.748C7.56855 4.244 7.45255 3.804 7.22055 3.428C6.98855 3.052 6.66455 2.76 6.24855 2.552C5.83255 2.344 5.34455 2.24 4.78455 2.24C4.20055 2.24 3.68455 2.356 3.23655 2.588C2.79655 2.82 2.45655 3.144 2.21655 3.56C1.97655 3.976 1.86455 4.468 1.88055 5.036H3.09255C3.06055 4.492 3.19655 4.068 3.50055 3.764C3.81255 3.46 4.21655 3.308 4.71255 3.308C5.18455 3.308 5.56455 3.444 5.85255 3.716C6.14055 3.988 6.28455 4.352 6.28455 4.808C6.28455 5.176 6.17655 5.504 5.96055 5.792C5.75255 6.072 5.48055 6.34 5.14455 6.596C4.80855 6.844 4.44855 7.1 4.06455 7.364C3.68855 7.62 3.33255 7.908 2.99655 8.228C2.66055 8.54 2.38455 8.904 2.16855 9.32C1.96055 9.736 1.85655 10.224 1.85655 10.784V11ZM11.8309 11.108C12.4629 11.108 13.0069 10.984 13.4629 10.736C13.9269 10.488 14.2829 10.14 14.5309 9.692C14.7869 9.236 14.9149 8.712 14.9149 8.12C14.9149 7.552 14.7989 7.052 14.5669 6.62C14.3429 6.18 14.0189 5.84 13.5949 5.6C13.1789 5.352 12.6829 5.228 12.1069 5.228C11.7149 5.228 11.3549 5.3 11.0269 5.444C10.7069 5.588 10.4589 5.78 10.2829 6.02L10.2109 5.996L10.3309 3.428H14.4589V2.348H9.2389L9.0349 7.256H10.2109C10.3309 6.968 10.5309 6.732 10.8109 6.548C11.0909 6.364 11.4389 6.272 11.8549 6.272C12.3989 6.272 12.8309 6.44 13.1509 6.776C13.4789 7.112 13.6429 7.576 13.6429 8.168C13.6429 8.712 13.4829 9.156 13.1629 9.5C12.8509 9.844 12.4109 10.016 11.8429 10.016C11.3149 10.016 10.8909 9.864 10.5709 9.56C10.2589 9.256 10.1029 8.856 10.1029 8.36H8.8669C8.8749 8.904 8.9989 9.384 9.2389 9.8C9.4789 10.216 9.8189 10.54 10.2589 10.772C10.7069 10.996 11.2309 11.108 11.8309 11.108ZM19.0962 11.096C19.7202 11.096 20.2642 10.928 20.7282 10.592C21.2002 10.248 21.5642 9.748 21.8202 9.092C22.0842 8.436 22.2162 7.628 22.2162 6.668C22.2162 5.26 21.9362 4.172 21.3762 3.404C20.8162 2.636 20.0602 2.252 19.1082 2.252C18.4762 2.252 17.9202 2.42 17.4402 2.756C16.9682 3.092 16.6002 3.588 16.3362 4.244C16.0722 4.892 15.9402 5.696 15.9402 6.656C15.9402 7.592 16.0682 8.392 16.3242 9.056C16.5802 9.72 16.9442 10.228 17.4162 10.58C17.8962 10.924 18.4562 11.096 19.0962 11.096ZM19.0842 10.04C18.5002 10.04 18.0362 9.776 17.6922 9.248C17.3562 8.712 17.1882 7.852 17.1882 6.668C17.1882 5.476 17.3562 4.616 17.6922 4.088C18.0362 3.56 18.5002 3.296 19.0842 3.296C19.6762 3.296 20.1402 3.56 20.4762 4.088C20.8122 4.616 20.9802 5.476 20.9802 6.668C20.9802 7.852 20.8122 8.712 20.4762 9.248C20.1402 9.776 19.6762 10.04 19.0842 10.04ZM23.7012 11H25.0092V8.396L26.4852 6.836L29.2572 11H30.8052L27.3732 5.888L30.7452 2.252H29.1612L25.0092 6.836V2.252H23.7012V11Z" fill="#AEB9E1"/>
<line opacity="0.5" x1="48.4856" y1="13.6029" x2="593.036" y2="13.6029" stroke="#37446B" stroke-width="0.8"/>
</g>
<defs>
<filter id="filter0_d_4462_45617" x="197.541" y="77.5107" width="179.45" height="97.5051" filterUnits="userSpaceOnUse" color-interpolation-filters="sRGB">
<feFlood flood-opacity="0" result="BackgroundImageFix"/>
<feColorMatrix in="SourceAlpha" type="matrix" values="0 0 0 0 0 0 0 0 0 0 0 0 0 0 0 0 0 0 127 0" result="hardAlpha"/>
<feOffset dx="3" dy="4"/>
<feGaussianBlur stdDeviation="8.5"/>
<feComposite in2="hardAlpha" operator="out"/>
<feColorMatrix type="matrix" values="0 0 0 0 0.00527778 0 0 0 0 0.0200958 0 0 0 0 0.0666667 0 0 0 0.2 0"/>
<feBlend mode="normal" in2="BackgroundImageFix" result="effect1_dropShadow_4462_45617"/>
<feBlend mode="normal" in="SourceGraphic" in2="effect1_dropShadow_4462_45617" result="shape"/>
</filter>
<linearGradient id="paint0_linear_4462_45617" x1="319.943" y1="104.669" x2="319.943" y2="356.757" gradientUnits="userSpaceOnUse">
<stop stop-color="#57C3FF"/>
<stop offset="1" stop-color="#57C3FF" stop-opacity="0"/>
</linearGradient>
<linearGradient id="paint1_linear_4462_45617" x1="319.943" y1="36.7578" x2="319.943" y2="356.757" gradientUnits="userSpaceOnUse">
<stop stop-color="#575DFF"/>
<stop offset="1" stop-color="#575DFF" stop-opacity="0"/>
</linearGradient>
<clipPath id="clip0_4462_45617">
<rect width="596" height="394" fill="white"/>
</clipPath>
</defs>
</svg>
