<svg width="438" height="192" viewBox="0 0 438 192" fill="none" xmlns="http://www.w3.org/2000/svg">
<path d="M42 163.393L437.5 163.393" stroke="#37446B" stroke-width="0.6"/>
<path d="M42 112.264L437.5 112.264" stroke="#37446B" stroke-width="0.6"/>
<path d="M42 61.1299L437.5 61.1298" stroke="#37446B" stroke-width="0.6"/>
<path d="M42 10.0001L437.5 10" stroke="#37446B" stroke-width="0.6"/>
<path d="M232.816 162.692L232.816 10.0012" stroke="#37446B" stroke-width="0.6" stroke-dasharray="5 5"/>
<path d="M58.0898 163.455L58.0898 10.7639" stroke="#37446B" stroke-width="0.6" stroke-dasharray="5 5"/>
<path d="M145.246 162.692L145.246 10.0012" stroke="#37446B" stroke-width="0.6" stroke-dasharray="5 5"/>
<path d="M323.5 162.692L323.5 10.0012" stroke="#37446B" stroke-width="0.6" stroke-dasharray="5 5"/>
<path d="M419.082 162.692L419.082 10.0012" stroke="#37446B" stroke-width="0.6" stroke-dasharray="5 5"/>
<rect x="53.7812" y="56.8938" width="7.25989" height="106.791" rx="1" fill="#6C72FF"/>
<rect x="70.9824" y="75.8809" width="7.25989" height="87.8056" rx="1" fill="#57C3FF"/>
<rect x="88.1855" y="56.8936" width="7.25989" height="106.791" rx="1" fill="#6C72FF"/>
<rect x="105.385" y="96.6445" width="7.25989" height="67.0408" rx="1" fill="#57C3FF"/>
<rect x="122.586" y="66.9795" width="7.25989" height="96.7048" rx="1" fill="#6C72FF"/>
<rect width="7.25986" height="31.0532" rx="1" transform="matrix(0.999907 -0.0136148 0.0141575 0.9999 139.789 132.681)" fill="#57C3FF"/>
<rect x="157.428" y="75.8809" width="7.25989" height="87.8056" rx="1" fill="#6C72FF"/>
<rect x="174.631" y="37.9092" width="7.25989" height="125.776" rx="1" fill="#57C3FF"/>
<rect x="191.832" y="56.8936" width="7.25989" height="106.791" rx="1" fill="#6C72FF"/>
<rect x="209.033" y="87.1533" width="7.25989" height="76.5333" rx="1" fill="#57C3FF"/>
<rect x="226.234" y="37.9092" width="7.25989" height="125.776" rx="1" fill="#6C72FF"/>
<rect x="243.436" y="71.7256" width="7.25989" height="91.9586" rx="1" fill="#57C3FF"/>
<rect x="260.637" y="53.9268" width="7.25989" height="109.757" rx="1" fill="#6C72FF"/>
<rect x="277.84" y="109.697" width="7.25989" height="53.9886" rx="1" fill="#57C3FF"/>
<rect x="295.041" y="72.4678" width="7.25989" height="91.217" rx="1" fill="#6C72FF"/>
<rect x="312.242" y="93.8252" width="7.25989" height="69.8589" rx="1" fill="#57C3FF"/>
<rect x="329.441" y="53.1875" width="7.25989" height="110.499" rx="1" fill="#6C72FF"/>
<rect x="346.645" y="72.4678" width="7.25989" height="91.217" rx="1" fill="#57C3FF"/>
<rect x="363.846" y="97.9795" width="7.25989" height="65.7059" rx="1" fill="#6C72FF"/>
<rect x="381.047" y="44.1357" width="7.25989" height="119.546" rx="1" fill="#57C3FF"/>
<rect x="398.25" y="77.8066" width="7.25989" height="85.8775" rx="1" fill="#6C72FF"/>
<rect x="415.451" y="64.9023" width="7.25989" height="98.7813" rx="1" fill="#57C3FF"/>
<path d="M49.4564 186.674C50.7064 186.674 51.5064 186.094 51.5064 184.694V179.304H50.4264V184.604C50.4264 185.414 50.0164 185.764 49.2564 185.764C48.9264 185.764 48.6564 185.684 48.4664 185.574V186.464C48.6864 186.584 49.0564 186.674 49.4564 186.674ZM54.9087 186.684C55.7987 186.684 56.4587 186.224 56.7087 185.544H56.7687V186.594H57.7987V181.304H56.8087L56.7687 182.344H56.7087C56.4587 181.664 55.7987 181.214 54.9087 181.214C53.6187 181.214 52.7487 182.174 52.7487 183.944C52.7487 185.714 53.6187 186.684 54.9087 186.684ZM55.2687 185.834C54.3887 185.834 53.8087 185.184 53.8087 183.944C53.8087 182.694 54.3887 182.054 55.2687 182.054C56.2487 182.054 56.7587 182.834 56.7587 183.644V184.244C56.7587 185.064 56.2487 185.834 55.2687 185.834ZM59.2415 186.594H60.2615V183.704C60.2615 182.794 60.8315 182.074 61.7415 182.074C62.5815 182.074 62.9715 182.584 62.9715 183.664V186.594H64.0015V183.454C64.0015 181.834 63.1915 181.224 62.1115 181.224C61.3315 181.224 60.6315 181.604 60.3215 182.354H60.2615L60.2215 181.304H59.2415V186.594ZM68.9502 186.594H69.9802V179.384H68.9902C68.9202 180.104 68.4502 180.584 67.4902 180.584H67.2102V181.374H68.9502V186.594Z" fill="#AEB9E1"/>
<path d="M133.456 186.674C134.706 186.674 135.506 186.094 135.506 184.694V179.304H134.426V184.604C134.426 185.414 134.016 185.764 133.256 185.764C132.926 185.764 132.656 185.684 132.466 185.574V186.464C132.686 186.584 133.056 186.674 133.456 186.674ZM138.909 186.684C139.799 186.684 140.459 186.224 140.709 185.544H140.769V186.594H141.799V181.304H140.809L140.769 182.344H140.709C140.459 181.664 139.799 181.214 138.909 181.214C137.619 181.214 136.749 182.174 136.749 183.944C136.749 185.714 137.619 186.684 138.909 186.684ZM139.269 185.834C138.389 185.834 137.809 185.184 137.809 183.944C137.809 182.694 138.389 182.054 139.269 182.054C140.249 182.054 140.759 182.834 140.759 183.644V184.244C140.759 185.064 140.249 185.834 139.269 185.834ZM143.241 186.594H144.261V183.704C144.261 182.794 144.831 182.074 145.741 182.074C146.581 182.074 146.971 182.584 146.971 183.664V186.594H148.001V183.454C148.001 181.834 147.191 181.224 146.111 181.224C145.331 181.224 144.631 181.604 144.321 182.354H144.261L144.221 181.304H143.241V186.594ZM153.95 186.664C155.5 186.664 156.55 185.894 156.55 184.674C156.55 183.794 156.03 183.084 155.1 182.974V182.924C156.01 182.764 156.43 182.054 156.43 181.264C156.43 180.094 155.49 179.304 153.95 179.304C152.42 179.304 151.48 180.084 151.48 181.254C151.48 182.054 151.92 182.754 152.82 182.924V182.974C151.88 183.104 151.35 183.844 151.35 184.684C151.35 185.904 152.4 186.664 153.95 186.664ZM153.95 182.544C152.99 182.544 152.54 182.054 152.54 181.354C152.54 180.624 153.07 180.164 153.95 180.164C154.82 180.164 155.38 180.614 155.38 181.354C155.38 182.024 154.95 182.544 153.95 182.544ZM153.95 185.774C153.06 185.774 152.46 185.324 152.46 184.544C152.46 183.894 152.92 183.374 153.95 183.374C154.97 183.374 155.45 183.864 155.45 184.544C155.45 185.304 154.87 185.774 153.95 185.774Z" fill="#AEB9E1"/>
<path d="M219.456 186.674C220.706 186.674 221.506 186.094 221.506 184.694V179.304H220.426V184.604C220.426 185.414 220.016 185.764 219.256 185.764C218.926 185.764 218.656 185.684 218.466 185.574V186.464C218.686 186.584 219.056 186.674 219.456 186.674ZM224.909 186.684C225.799 186.684 226.459 186.224 226.709 185.544H226.769V186.594H227.799V181.304H226.809L226.769 182.344H226.709C226.459 181.664 225.799 181.214 224.909 181.214C223.619 181.214 222.749 182.174 222.749 183.944C222.749 185.714 223.619 186.684 224.909 186.684ZM225.269 185.834C224.389 185.834 223.809 185.184 223.809 183.944C223.809 182.694 224.389 182.054 225.269 182.054C226.249 182.054 226.759 182.834 226.759 183.644V184.244C226.759 185.064 226.249 185.834 225.269 185.834ZM229.241 186.594H230.261V183.704C230.261 182.794 230.831 182.074 231.741 182.074C232.581 182.074 232.971 182.584 232.971 183.664V186.594H234.001V183.454C234.001 181.834 233.191 181.224 232.111 181.224C231.331 181.224 230.631 181.604 230.321 182.354H230.261L230.221 181.304H229.241V186.594ZM238.95 186.594H239.98V179.384H238.99C238.92 180.104 238.45 180.584 237.49 180.584H237.21V181.374H238.95V186.594ZM244.052 186.674C245.542 186.674 246.562 185.764 246.562 184.244C246.562 182.814 245.662 181.874 244.332 181.874C243.442 181.874 242.772 182.314 242.542 182.984H242.492C242.502 181.314 242.842 180.194 244.152 180.194C244.862 180.194 245.392 180.554 245.492 181.184H246.492C246.372 180.034 245.522 179.294 244.152 179.294C242.372 179.294 241.452 180.554 241.452 183.264C241.452 185.504 242.352 186.674 244.052 186.674ZM244.082 185.774C243.202 185.774 242.622 185.204 242.622 184.254C242.622 183.344 243.172 182.664 244.092 182.664C244.952 182.664 245.522 183.254 245.522 184.204C245.522 185.164 244.952 185.774 244.082 185.774Z" fill="#AEB9E1"/>
<path d="M309.456 186.674C310.706 186.674 311.506 186.094 311.506 184.694V179.304H310.426V184.604C310.426 185.414 310.016 185.764 309.256 185.764C308.926 185.764 308.656 185.684 308.466 185.574V186.464C308.686 186.584 309.056 186.674 309.456 186.674ZM314.909 186.684C315.799 186.684 316.459 186.224 316.709 185.544H316.769V186.594H317.799V181.304H316.809L316.769 182.344H316.709C316.459 181.664 315.799 181.214 314.909 181.214C313.619 181.214 312.749 182.174 312.749 183.944C312.749 185.714 313.619 186.684 314.909 186.684ZM315.269 185.834C314.389 185.834 313.809 185.184 313.809 183.944C313.809 182.694 314.389 182.054 315.269 182.054C316.249 182.054 316.759 182.834 316.759 183.644V184.244C316.759 185.064 316.249 185.834 315.269 185.834ZM319.241 186.594H320.261V183.704C320.261 182.794 320.831 182.074 321.741 182.074C322.581 182.074 322.971 182.584 322.971 183.664V186.594H324.001V183.454C324.001 181.834 323.191 181.224 322.111 181.224C321.331 181.224 320.631 181.604 320.321 182.354H320.261L320.221 181.304H319.241V186.594ZM327.34 186.594H332.18V185.684H328.63C328.99 184.124 332.1 183.584 332.1 181.384C332.1 180.124 331.18 179.294 329.78 179.294C328.31 179.294 327.32 180.214 327.36 181.624H328.37C328.32 180.724 328.89 180.184 329.72 180.184C330.51 180.184 331.03 180.674 331.03 181.434C331.03 183.274 327.34 183.604 327.34 186.414V186.594ZM336.144 186.594H337.174V184.824H338.154V183.974H337.174V179.384H335.834L332.604 184.024V184.824H336.144V186.594ZM333.654 183.974L336.144 180.424V183.974H333.654Z" fill="#AEB9E1"/>
<path d="M401.456 186.674C402.706 186.674 403.506 186.094 403.506 184.694V179.304H402.426V184.604C402.426 185.414 402.016 185.764 401.256 185.764C400.926 185.764 400.656 185.684 400.466 185.574V186.464C400.686 186.584 401.056 186.674 401.456 186.674ZM406.909 186.684C407.799 186.684 408.459 186.224 408.709 185.544H408.769V186.594H409.799V181.304H408.809L408.769 182.344H408.709C408.459 181.664 407.799 181.214 406.909 181.214C405.619 181.214 404.749 182.174 404.749 183.944C404.749 185.714 405.619 186.684 406.909 186.684ZM407.269 185.834C406.389 185.834 405.809 185.184 405.809 183.944C405.809 182.694 406.389 182.054 407.269 182.054C408.249 182.054 408.759 182.834 408.759 183.644V184.244C408.759 185.064 408.249 185.834 407.269 185.834ZM411.241 186.594H412.261V183.704C412.261 182.794 412.831 182.074 413.741 182.074C414.581 182.074 414.971 182.584 414.971 183.664V186.594H416.001V183.454C416.001 181.834 415.191 181.224 414.111 181.224C413.331 181.224 412.631 181.604 412.321 182.354H412.261L412.221 181.304H411.241V186.594ZM421.76 186.684C423.27 186.684 424.28 185.844 424.28 184.584C424.28 183.714 423.83 183.074 423.05 182.884V182.824C423.72 182.604 424.17 181.994 424.17 181.194C424.17 180.044 423.25 179.294 421.82 179.294C420.33 179.294 419.36 180.194 419.36 181.574H420.37C420.38 180.734 420.89 180.184 421.78 180.184C422.58 180.184 423.11 180.594 423.11 181.314C423.11 181.984 422.67 182.494 421.84 182.494H421.11V183.284H421.9C422.69 183.284 423.22 183.684 423.22 184.494C423.22 185.284 422.64 185.794 421.76 185.794C420.87 185.794 420.29 185.224 420.31 184.374H419.3C419.3 185.764 420.23 186.684 421.76 186.684ZM426.849 186.594H427.879V179.384H426.889C426.819 180.104 426.349 180.584 425.389 180.584H425.109V181.374H426.849V186.594Z" fill="#AEB9E1"/>
<path d="M6.38415 61.9799H7.04415V61.2099C8.64415 61.1199 9.48415 60.2999 9.48415 59.1199C9.48415 57.4399 8.31415 57.1299 7.07415 56.9099C5.74415 56.6599 5.22415 56.4999 5.22415 55.6899C5.22415 55.0199 5.75415 54.5899 6.65415 54.5899C7.53415 54.5899 8.13415 55.0099 8.16415 55.8899H9.26415C9.24415 54.7099 8.43415 53.8899 7.04415 53.7699V52.9899H6.38415V53.7699C4.96415 53.8699 4.10415 54.6399 4.10415 55.8299C4.10415 57.1399 5.01415 57.5899 6.53415 57.8599C7.89415 58.1099 8.36415 58.3599 8.36415 59.2199C8.36415 59.9999 7.71415 60.3699 6.76415 60.3699C5.58415 60.3699 5.07415 59.7799 5.05415 58.8499H3.94415C3.96415 60.1599 4.76415 61.0899 6.38415 61.2099V61.9799ZM14.197 61.1299H15.227V53.9199H14.237C14.167 54.6399 13.697 55.1199 12.737 55.1199H12.457V55.9099H14.197V61.1299ZM19.2092 61.2099C20.7592 61.2099 21.8092 59.9199 21.8092 57.5199C21.8092 55.1799 20.8092 53.8399 19.2192 53.8399C17.6392 53.8399 16.5792 55.1199 16.5792 57.5099C16.5792 59.8599 17.5992 61.2099 19.2092 61.2099ZM19.1992 60.3299C18.2192 60.3299 17.6192 59.4999 17.6192 57.5199C17.6192 55.5299 18.2192 54.7099 19.1992 54.7099C20.1792 54.7099 20.7792 55.5399 20.7792 57.5199C20.7792 59.4999 20.1792 60.3299 19.1992 60.3299ZM25.1467 61.2099C26.6967 61.2099 27.7467 59.9199 27.7467 57.5199C27.7467 55.1799 26.7467 53.8399 25.1567 53.8399C23.5767 53.8399 22.5167 55.1199 22.5167 57.5099C22.5167 59.8599 23.5367 61.2099 25.1467 61.2099ZM25.1367 60.3299C24.1567 60.3299 23.5567 59.4999 23.5567 57.5199C23.5567 55.5299 24.1567 54.7099 25.1367 54.7099C26.1167 54.7099 26.7167 55.5399 26.7167 57.5199C26.7167 59.4999 26.1167 60.3299 25.1367 60.3299ZM28.9842 61.1299H30.0742V58.9599L31.3042 57.6599L33.6142 61.1299H34.9042L32.0442 56.8699L34.8542 53.8399H33.5342L30.0742 57.6599V53.8399H28.9842V61.1299Z" fill="#AEB9E1"/>
<path d="M10.3295 113.114H10.9895V112.344C12.5895 112.254 13.4295 111.434 13.4295 110.254C13.4295 108.574 12.2595 108.264 11.0195 108.044C9.68946 107.794 9.16946 107.634 9.16946 106.824C9.16946 106.154 9.69946 105.724 10.5995 105.724C11.4795 105.724 12.0795 106.144 12.1095 107.024H13.2095C13.1895 105.844 12.3795 105.024 10.9895 104.904V104.124H10.3295V104.904C8.90946 105.004 8.04946 105.774 8.04946 106.964C8.04946 108.274 8.95946 108.724 10.4795 108.994C11.8395 109.244 12.3095 109.494 12.3095 110.354C12.3095 111.134 11.6595 111.504 10.7095 111.504C9.52946 111.504 9.01946 110.914 8.99946 109.984H7.88946C7.90946 111.294 8.70946 112.224 10.3295 112.344V113.114ZM19.0923 112.354C20.6623 112.354 21.6623 111.354 21.6623 109.864C21.6623 108.444 20.7523 107.454 19.3223 107.454C18.6723 107.454 18.0923 107.714 17.8023 108.114L17.7423 108.094L17.8423 105.954H21.2823V105.054H16.9323L16.7623 109.144H17.7423C17.9423 108.664 18.4223 108.324 19.1123 108.324C20.0123 108.324 20.6023 108.924 20.6023 109.904C20.6023 110.814 20.0523 111.444 19.1023 111.444C18.2223 111.444 17.6523 110.894 17.6523 110.064H16.6223C16.6323 111.434 17.5923 112.354 19.0923 112.354ZM25.1467 112.344C26.6967 112.344 27.7467 111.054 27.7467 108.654C27.7467 106.314 26.7467 104.974 25.1567 104.974C23.5767 104.974 22.5167 106.254 22.5167 108.644C22.5167 110.994 23.5367 112.344 25.1467 112.344ZM25.1367 111.464C24.1567 111.464 23.5567 110.634 23.5567 108.654C23.5567 106.664 24.1567 105.844 25.1367 105.844C26.1167 105.844 26.7167 106.674 26.7167 108.654C26.7167 110.634 26.1167 111.464 25.1367 111.464ZM28.9842 112.264H30.0742V110.094L31.3042 108.794L33.6142 112.264H34.9042L32.0442 108.004L34.8542 104.974H33.5342L30.0742 108.794V104.974H28.9842V112.264Z" fill="#AEB9E1"/>
<path d="M16.3939 164.786H17.0539V164.016C18.6539 163.926 19.4939 163.106 19.4939 161.926C19.4939 160.246 18.3239 159.936 17.0839 159.716C15.7539 159.466 15.2339 159.306 15.2339 158.496C15.2339 157.826 15.7639 157.396 16.6639 157.396C17.5439 157.396 18.1439 157.816 18.1739 158.696H19.2739C19.2539 157.516 18.4439 156.696 17.0539 156.576V155.796H16.3939V156.576C14.9739 156.676 14.1139 157.446 14.1139 158.636C14.1139 159.946 15.0239 160.396 16.5439 160.666C17.9039 160.916 18.3739 161.166 18.3739 162.026C18.3739 162.806 17.7239 163.176 16.7739 163.176C15.5939 163.176 15.0839 162.586 15.0639 161.656H13.9539C13.9739 162.966 14.7739 163.896 16.3939 164.016V164.786ZM25.1467 164.016C26.6967 164.016 27.7467 162.726 27.7467 160.326C27.7467 157.986 26.7467 156.646 25.1567 156.646C23.5767 156.646 22.5167 157.926 22.5167 160.316C22.5167 162.666 23.5367 164.016 25.1467 164.016ZM25.1367 163.136C24.1567 163.136 23.5567 162.306 23.5567 160.326C23.5567 158.336 24.1567 157.516 25.1367 157.516C26.1167 157.516 26.7167 158.346 26.7167 160.326C26.7167 162.306 26.1167 163.136 25.1367 163.136ZM28.9842 163.936H30.0742V161.766L31.3042 160.466L33.6142 163.936H34.9042L32.0442 159.676L34.8542 156.646H33.5342L30.0742 160.466V156.646H28.9842V163.936Z" fill="#AEB9E1"/>
<path d="M4.70446 10.85H5.36446V10.08C6.96446 9.99 7.80446 9.17 7.80446 7.99C7.80446 6.31 6.63446 6 5.39446 5.78C4.06446 5.53 3.54446 5.37 3.54446 4.56C3.54446 3.89 4.07446 3.46 4.97446 3.46C5.85446 3.46 6.45446 3.88 6.48446 4.76H7.58446C7.56446 3.58 6.75446 2.76 5.36446 2.64V1.86H4.70446V2.64C3.28446 2.74 2.42446 3.51 2.42446 4.7C2.42446 6.01 3.33446 6.46 4.85446 6.73C6.21446 6.98 6.68446 7.23 6.68446 8.09C6.68446 8.87 6.03446 9.24 5.08446 9.24C3.90446 9.24 3.39446 8.65 3.37446 7.72H2.26446C2.28446 9.03 3.08446 9.96 4.70446 10.08V10.85ZM10.9073 10H15.7473V9.09H12.1973C12.5573 7.53 15.6673 6.99 15.6673 4.79C15.6673 3.53 14.7473 2.7 13.3473 2.7C11.8773 2.7 10.8873 3.62 10.9273 5.03H11.9373C11.8873 4.13 12.4573 3.59 13.2873 3.59C14.0773 3.59 14.5973 4.08 14.5973 4.84C14.5973 6.68 10.9073 7.01 10.9073 9.82V10ZM19.2092 10.08C20.7592 10.08 21.8092 8.79 21.8092 6.39C21.8092 4.05 20.8092 2.71 19.2192 2.71C17.6392 2.71 16.5792 3.99 16.5792 6.38C16.5792 8.73 17.5992 10.08 19.2092 10.08ZM19.1992 9.2C18.2192 9.2 17.6192 8.37 17.6192 6.39C17.6192 4.4 18.2192 3.58 19.1992 3.58C20.1792 3.58 20.7792 4.41 20.7792 6.39C20.7792 8.37 20.1792 9.2 19.1992 9.2ZM25.1467 10.08C26.6967 10.08 27.7467 8.79 27.7467 6.39C27.7467 4.05 26.7467 2.71 25.1567 2.71C23.5767 2.71 22.5167 3.99 22.5167 6.38C22.5167 8.73 23.5367 10.08 25.1467 10.08ZM25.1367 9.2C24.1567 9.2 23.5567 8.37 23.5567 6.39C23.5567 4.4 24.1567 3.58 25.1367 3.58C26.1167 3.58 26.7167 4.41 26.7167 6.39C26.7167 8.37 26.1167 9.2 25.1367 9.2ZM28.9842 10H30.0742V7.83L31.3042 6.53L33.6142 10H34.9042L32.0442 5.74L34.8542 2.71H33.5342L30.0742 6.53V2.71H28.9842V10Z" fill="#AEB9E1"/>
</svg>
