<svg width="312" height="94" viewBox="0 0 312 94" fill="none" xmlns="http://www.w3.org/2000/svg">
<g clip-path="url(#clip0_4467_45685)">
<path d="M-0.633789 75.3189L312 75.3188" stroke="#37446B" stroke-width="0.6"/>
<path d="M-0.633789 50.3189L312 50.3188" stroke="#37446B" stroke-width="0.6"/>
<path d="M-0.633789 25.3189L312 25.3188" stroke="#37446B" stroke-width="0.6"/>
<path d="M-0.633789 0.318878L312 0.318842" stroke="#37446B" stroke-width="0.6"/>
<path d="M114.367 75.3501L114.367 0.31888" stroke="#37446B" stroke-width="0.6" stroke-dasharray="5 5"/>
<path d="M20.8672 75.3501L20.8672 0.31888" stroke="#37446B" stroke-width="0.6" stroke-dasharray="5 5"/>
<path d="M206.367 75.3501L206.367 0.31888" stroke="#37446B" stroke-width="0.6" stroke-dasharray="5 5"/>
<path d="M298.544 75.3501L298.544 0.31888" stroke="#37446B" stroke-width="0.6" stroke-dasharray="5 5"/>
<path d="M19.1172 26.1617C19.1172 25.6094 19.5649 25.1617 20.1172 25.1617H22.284C22.8363 25.1617 23.284 25.6094 23.284 26.1617V75.3283H19.1172V26.1617Z" fill="#6C72FF"/>
<path d="M30.2842 35.0816C30.2842 34.5293 30.7319 34.0816 31.2842 34.0816H33.451C34.0033 34.0816 34.451 34.5293 34.451 35.0816V75.3297H30.2842V35.0816Z" fill="#57C3FF"/>
<path d="M41.4512 26.1617C41.4512 25.6094 41.8989 25.1617 42.4512 25.1617H44.618C45.1703 25.1617 45.618 25.6094 45.618 26.1617V75.3283H41.4512V26.1617Z" fill="#6C72FF"/>
<path d="M52.6182 44.8355C52.6182 44.2832 53.0659 43.8355 53.6182 43.8355H55.785C56.3373 43.8355 56.785 44.2832 56.785 44.8355V75.329H52.6182V44.8355Z" fill="#57C3FF"/>
<path d="M63.7852 30.8999C63.7852 30.3476 64.2329 29.8999 64.7852 29.8999H66.952C67.5043 29.8999 67.952 30.3476 67.952 30.8999V75.3286H63.7852V30.8999Z" fill="#6C72FF"/>
<path d="M74.9694 61.764C74.9599 61.2118 75.3998 60.7592 75.9521 60.753L78.1187 60.7289C78.6709 60.7227 79.1263 61.1654 79.1359 61.7176L79.3709 75.304L75.2045 75.3505L74.9694 61.764Z" fill="#57C3FF"/>
<path d="M86.3711 35.0816C86.3711 34.5293 86.8188 34.0816 87.3711 34.0816H89.5379C90.0902 34.0816 90.5379 34.5293 90.5379 35.0816V75.3297H86.3711V35.0816Z" fill="#6C72FF"/>
<path d="M97.5381 17.2437C97.5381 16.6914 97.9858 16.2437 98.5381 16.2437H100.705C101.257 16.2437 101.705 16.6914 101.705 17.2437V75.3289H97.5381V17.2437Z" fill="#57C3FF"/>
<path d="M108.705 26.1617C108.705 25.6094 109.153 25.1617 109.705 25.1617H111.872C112.424 25.1617 112.872 25.6094 112.872 26.1617V75.3283H108.705V26.1617Z" fill="#6C72FF"/>
<path d="M119.872 40.3765C119.872 39.8242 120.32 39.3765 120.872 39.3765H123.039C123.591 39.3765 124.039 39.8242 124.039 40.3765V75.3293H119.872V40.3765Z" fill="#57C3FF"/>
<path d="M131.039 17.2437C131.039 16.6914 131.487 16.2437 132.039 16.2437H134.206C134.758 16.2437 135.206 16.6914 135.206 17.2437V75.3289H131.039V17.2437Z" fill="#6C72FF"/>
<path d="M142.206 33.1294C142.206 32.5771 142.654 32.1294 143.206 32.1294H145.373C145.925 32.1294 146.373 32.5771 146.373 33.1294V75.3285H142.206V33.1294Z" fill="#57C3FF"/>
<path d="M153.373 24.7681C153.373 24.2158 153.821 23.7681 154.373 23.7681H156.54C157.092 23.7681 157.54 24.2158 157.54 24.7681V75.3283H153.373V24.7681Z" fill="#6C72FF"/>
<path d="M164.54 50.9673C164.54 50.415 164.988 49.9673 165.54 49.9673H167.707C168.259 49.9673 168.707 50.415 168.707 50.9673V75.3294H164.54V50.9673Z" fill="#57C3FF"/>
<path d="M175.707 33.4781C175.707 32.9258 176.155 32.4781 176.707 32.4781H178.874C179.426 32.4781 179.874 32.9258 179.874 33.4781V75.3287H175.707V33.4781Z" fill="#6C72FF"/>
<path d="M186.874 43.5113C186.874 42.959 187.322 42.5113 187.874 42.5113H190.041C190.593 42.5113 191.041 42.959 191.041 43.5113V75.3286H186.874V43.5113Z" fill="#57C3FF"/>
<path d="M198.041 24.4204C198.041 23.8682 198.489 23.4204 199.041 23.4204H201.208C201.76 23.4204 202.208 23.8682 202.208 24.4204V75.329H198.041V24.4204Z" fill="#6C72FF"/>
<path d="M209.208 33.4781C209.208 32.9258 209.656 32.4781 210.208 32.4781H212.375C212.927 32.4781 213.375 32.9258 213.375 33.4781V75.3287H209.208V33.4781Z" fill="#57C3FF"/>
<path d="M220.375 45.4624C220.375 44.9101 220.823 44.4624 221.375 44.4624H223.542C224.094 44.4624 224.542 44.9101 224.542 45.4624V75.3289H220.375V45.4624Z" fill="#6C72FF"/>
<path d="M231.542 20.1685C231.542 19.6162 231.99 19.1685 232.542 19.1685H234.709C235.261 19.1685 235.709 19.6162 235.709 20.1685V75.3273H231.542V20.1685Z" fill="#57C3FF"/>
<path d="M242.709 35.9868C242.709 35.4346 243.157 34.9868 243.709 34.9868H245.876C246.428 34.9868 246.876 35.4346 246.876 35.9868V75.3292H242.709V35.9868Z" fill="#6C72FF"/>
<path d="M253.876 29.9243C253.876 29.3721 254.324 28.9243 254.876 28.9243H257.043C257.595 28.9243 258.043 29.3721 258.043 29.9243V75.3285H253.876V29.9243Z" fill="#57C3FF"/>
<path d="M265.043 48.7378C265.043 48.1855 265.491 47.7378 266.043 47.7378H268.21C268.762 47.7378 269.21 48.1855 269.21 48.7378V75.3295H265.043V48.7378Z" fill="#6C72FF"/>
<path d="M276.21 24.0708C276.21 23.5185 276.658 23.0708 277.21 23.0708H279.377C279.929 23.0708 280.377 23.5185 280.377 24.0708V75.3278H276.21V24.0708Z" fill="#57C3FF"/>
<path d="M287.377 32.2935C287.377 31.7412 287.825 31.2935 288.377 31.2935H290.544C291.096 31.2935 291.544 31.7412 291.544 32.2935V75.3287H287.377V32.2935Z" fill="#6C72FF"/>
<path d="M298.544 20.5181C298.544 19.9658 298.992 19.5181 299.544 19.5181H301.711C302.263 19.5181 302.711 19.9658 302.711 20.5181V75.3285H298.544V20.5181Z" fill="#57C3FF"/>
<path d="M10.9992 90.6812H11.8232V84.9132H11.0312C11.0045 85.2012 10.8925 85.4332 10.6952 85.6092C10.5032 85.7852 10.2152 85.8732 9.83119 85.8732H9.60719V86.5052H10.9992V90.6812ZM12.969 90.6812H16.841V89.9532H14.001C14.049 89.7452 14.1477 89.5558 14.297 89.3852C14.4517 89.2145 14.633 89.0518 14.841 88.8972C15.0543 88.7425 15.273 88.5852 15.497 88.4252C15.721 88.2652 15.929 88.0945 16.121 87.9132C16.3183 87.7265 16.4757 87.5212 16.593 87.2972C16.7157 87.0678 16.777 86.8065 16.777 86.5132C16.777 86.1772 16.6997 85.8838 16.545 85.6332C16.3903 85.3825 16.1743 85.1878 15.897 85.0492C15.6197 84.9105 15.2943 84.8412 14.921 84.8412C14.5317 84.8412 14.1877 84.9185 13.889 85.0732C13.5957 85.2278 13.369 85.4438 13.209 85.7212C13.049 85.9985 12.9743 86.3265 12.985 86.7052H13.793C13.7717 86.3425 13.8623 86.0598 14.065 85.8572C14.273 85.6545 14.5423 85.5532 14.873 85.5532C15.1877 85.5532 15.441 85.6438 15.633 85.8252C15.825 86.0065 15.921 86.2492 15.921 86.5532C15.921 86.7985 15.849 87.0172 15.705 87.2092C15.5663 87.3958 15.385 87.5745 15.161 87.7452C14.937 87.9105 14.697 88.0812 14.441 88.2572C14.1903 88.4278 13.953 88.6198 13.729 88.8332C13.505 89.0412 13.321 89.2838 13.177 89.5612C13.0383 89.8385 12.969 90.1638 12.969 90.5372V90.6812ZM19.0396 90.6812H19.9516L20.4316 89.3212H23.0156L23.4956 90.6812H24.4076L22.3356 84.8492H21.1116L19.0396 90.6812ZM20.6396 88.6412L21.2956 86.8412L21.7036 85.6492H21.7516L22.1596 86.8412L22.7996 88.6412H20.6396ZM25.1259 90.6812H25.9819V87.9612L25.9659 85.7692H26.0219L27.7579 90.6812H28.4539L30.1899 85.7692H30.2459L30.2219 87.9532V90.6812H31.0699V84.8492H29.7419L28.1179 89.3132H28.0859L26.4619 84.8492H25.1259V90.6812Z" fill="#AEB9E1"/>
<path d="M106.799 90.7372C107.215 90.7372 107.578 90.6732 107.887 90.5452C108.202 90.4118 108.445 90.2278 108.615 89.9932C108.791 89.7532 108.879 89.4705 108.879 89.1452C108.879 88.7932 108.778 88.4892 108.575 88.2332C108.378 87.9772 108.093 87.8278 107.719 87.7852V87.7452C108.082 87.6812 108.349 87.5238 108.519 87.2732C108.695 87.0172 108.783 86.7318 108.783 86.4172C108.783 85.9478 108.607 85.5692 108.255 85.2812C107.903 84.9932 107.418 84.8492 106.799 84.8492C106.186 84.8492 105.703 84.9932 105.351 85.2812C104.999 85.5638 104.823 85.9398 104.823 86.4092C104.823 86.7292 104.911 87.0145 105.087 87.2652C105.269 87.5158 105.538 87.6758 105.895 87.7452V87.7852C105.522 87.8385 105.231 87.9958 105.023 88.2572C104.821 88.5185 104.719 88.8172 104.719 89.1532C104.719 89.4785 104.805 89.7612 104.975 90.0012C105.151 90.2358 105.397 90.4172 105.711 90.5452C106.026 90.6732 106.389 90.7372 106.799 90.7372ZM106.799 87.4412C106.415 87.4412 106.13 87.3532 105.943 87.1772C105.762 86.9958 105.671 86.7665 105.671 86.4892C105.671 86.1958 105.77 85.9638 105.967 85.7932C106.17 85.6225 106.447 85.5372 106.799 85.5372C107.146 85.5372 107.423 85.6225 107.631 85.7932C107.839 85.9585 107.943 86.1905 107.943 86.4892C107.943 86.7558 107.853 86.9825 107.671 87.1692C107.49 87.3505 107.199 87.4412 106.799 87.4412ZM106.799 90.0252C106.442 90.0252 106.154 89.9398 105.935 89.7692C105.717 89.5932 105.607 89.3505 105.607 89.0412C105.607 88.7798 105.703 88.5585 105.895 88.3772C106.087 88.1958 106.389 88.1052 106.799 88.1052C107.21 88.1052 107.511 88.1932 107.703 88.3692C107.901 88.5452 107.999 88.7692 107.999 89.0412C107.999 89.3452 107.89 89.5852 107.671 89.7612C107.458 89.9372 107.167 90.0252 106.799 90.0252ZM111.047 90.6812H111.959L112.439 89.3212H115.023L115.503 90.6812H116.415L114.343 84.8492H113.119L111.047 90.6812ZM112.647 88.6412L113.303 86.8412L113.711 85.6492H113.759L114.167 86.8412L114.807 88.6412H112.647ZM117.134 90.6812H117.99V87.9612L117.974 85.7692H118.03L119.766 90.6812H120.462L122.198 85.7692H122.254L122.23 87.9532V90.6812H123.078V84.8492H121.75L120.126 89.3132H120.094L118.47 84.8492H117.134V90.6812Z" fill="#AEB9E1"/>
<path d="M199.543 90.6812H200.367V89.2652H201.151V88.5852H200.367V84.9132H199.295L196.711 88.6252V89.2652H199.543V90.6812ZM197.551 88.5852L199.543 85.7452V88.5852H197.551ZM203.946 90.6812H204.818V88.5612H206.298C206.725 88.5612 207.09 88.4865 207.394 88.3372C207.698 88.1825 207.93 87.9665 208.09 87.6892C208.256 87.4065 208.338 87.0785 208.338 86.7052C208.338 86.1132 208.154 85.6572 207.786 85.3372C207.418 85.0118 206.925 84.8492 206.306 84.8492H203.946V90.6812ZM206.17 87.8652H204.818V85.6012H206.17C206.549 85.6012 206.856 85.6918 207.09 85.8732C207.33 86.0545 207.45 86.3398 207.45 86.7292C207.45 87.1185 207.33 87.4065 207.09 87.5932C206.856 87.7798 206.549 87.8705 206.17 87.8652ZM209.259 90.6812H210.115V87.9612L210.099 85.7692H210.155L211.891 90.6812H212.587L214.323 85.7692H214.379L214.355 87.9532V90.6812H215.203V84.8492H213.875L212.251 89.3132H212.219L210.595 84.8492H209.259V90.6812Z" fill="#AEB9E1"/>
<path d="M289.999 90.6812H290.823V84.9132H290.031C290.005 85.2012 289.893 85.4332 289.695 85.6092C289.503 85.7852 289.215 85.8732 288.831 85.8732H288.607V86.5052H289.999V90.6812ZM293.257 90.6812H294.081V84.9132H293.289C293.262 85.2012 293.15 85.4332 292.953 85.6092C292.761 85.7852 292.473 85.8732 292.089 85.8732H291.865V86.5052H293.257V90.6812ZM297.376 90.6812H298.248V88.5612H299.728C300.155 88.5612 300.52 88.4865 300.824 88.3372C301.128 88.1825 301.36 87.9665 301.52 87.6892C301.685 87.4065 301.768 87.0785 301.768 86.7052C301.768 86.1132 301.584 85.6572 301.216 85.3372C300.848 85.0118 300.355 84.8492 299.736 84.8492H297.376V90.6812ZM299.6 87.8652H298.248V85.6012H299.6C299.979 85.6012 300.285 85.6918 300.52 85.8732C300.76 86.0545 300.88 86.3398 300.88 86.7292C300.88 87.1185 300.76 87.4065 300.52 87.5932C300.285 87.7798 299.979 87.8705 299.6 87.8652ZM302.688 90.6812H303.544V87.9612L303.528 85.7692H303.584L305.32 90.6812H306.016L307.752 85.7692H307.808L307.784 87.9532V90.6812H308.632V84.8492H307.304L305.68 89.3132H305.648L304.024 84.8492H302.688V90.6812Z" fill="#AEB9E1"/>
</g>
<defs>
<clipPath id="clip0_4467_45685">
<rect width="312" height="94" fill="white"/>
</clipPath>
</defs>
</svg>
