<svg width="489" height="318" viewBox="0 0 489 318" fill="none" xmlns="http://www.w3.org/2000/svg">
<rect x="1" width="488" height="318" rx="8" fill="#CADDFF"/>
<path d="M131.059 194.19C129.649 194.072 136.973 140.276 147.114 126.455C157.463 129.053 180.457 135.102 189.634 138.516C201.106 142.785 209.093 137.773 223.932 141.376C235.803 144.258 285.048 191.416 308.186 214.635C309.157 218.128 309.497 226.15 303.096 230.296C296.694 234.442 285.717 226.897 281.028 222.607L284.068 225.871C285.516 229.303 286.612 237.343 279.408 242.041C272.693 246.42 265.883 242.751 262.755 239.908L265.195 242.275C266.396 244.899 267.583 251.085 262.728 254.843C257.873 258.602 249.533 254.216 245.971 251.554C249.494 260.363 235.587 262.61 228.508 256.721L170.015 209.265C163.399 203.509 148.787 190.369 131.059 194.19Z" fill="#FF9356"/>
<path d="M245.971 251.554C249.494 260.363 235.587 262.61 228.508 256.721L170.015 209.265C163.399 203.509 148.787 190.369 131.059 194.19C129.649 194.072 136.973 140.276 147.114 126.455C157.463 129.053 180.457 135.102 189.634 138.516C201.106 142.785 209.093 137.773 223.932 141.376C235.803 144.258 285.048 191.416 308.186 214.635C309.157 218.128 309.497 226.15 303.096 230.296C296.694 234.442 285.717 226.897 281.028 222.607M245.971 251.554L235.713 238.398M245.971 251.554C249.533 254.216 257.873 258.602 262.728 254.843C267.583 251.085 266.396 244.899 265.195 242.275L262.131 239.303M248.125 225.713L262.131 239.303M262.131 239.303C264.888 242.173 272.203 246.739 279.408 242.041C286.612 237.343 285.516 229.303 284.068 225.871L281.028 222.607M264.962 205.354L281.028 222.607" stroke="#C85210" stroke-width="3" stroke-linecap="round"/>
<path d="M201.34 162.675C207.644 155.157 221.896 148.776 237.048 148.62L306.033 212.09C316.801 203.999 342.353 187.3 358.421 185.233C360.184 169.768 338.612 127.756 335.793 127.52C332.974 127.285 312.223 137.856 304.04 139.539C295.857 141.222 288.535 138.246 283.837 137.855C279.138 137.463 259.249 126.343 252.202 125.755C245.154 125.168 239.203 122.779 231.999 124.071C224.794 125.363 183.213 141.766 178.945 153.238C174.677 164.709 195.036 170.192 201.34 162.675Z" fill="#FF9356" stroke="#C85210" stroke-width="3" stroke-linecap="round"/>
<path d="M208.189 228.06C216.646 228.765 218.76 237.457 218.446 241.216C218.133 244.975 218.328 253.98 210.772 253.823C203.215 253.666 200.803 245.895 200.749 243.525C196.025 245.339 186.309 246.485 185.245 236.555C180.351 236.62 170.539 234.761 170.446 226.806C170.438 226.196 170.444 225.563 170.462 224.915C165.669 224.333 156.568 220.757 158.508 211.107C160.448 201.458 168.633 201.265 172.482 202.374L177.241 204.19C178.679 203.135 180.373 202.714 182.349 203.197C189.397 204.92 191.63 211.043 191.866 213.889C193.165 213.14 194.611 212.909 196.169 213.338C203.593 215.092 207.276 223.884 208.189 228.06Z" fill="#FF9356"/>
<path d="M200.749 243.525C200.41 238.135 201.423 227.496 208.189 228.06M200.749 243.525C200.803 245.895 203.215 253.666 210.772 253.823C218.328 253.98 218.133 244.975 218.446 241.216C218.76 237.457 216.646 228.765 208.189 228.06M200.749 243.525C196.025 245.339 186.309 246.485 185.245 236.555M208.189 228.06C207.276 223.884 203.593 215.092 196.169 213.338C194.611 212.909 193.165 213.14 191.866 213.889M185.245 236.555C180.351 236.62 170.539 234.762 170.446 226.806C170.438 226.196 170.444 225.563 170.462 224.915M185.245 236.555C184.194 226.758 186.999 216.693 191.866 213.889M191.866 213.889C191.63 211.043 189.397 204.92 182.349 203.197C180.373 202.714 178.679 203.135 177.241 204.19M170.462 224.915C165.669 224.333 156.568 220.757 158.508 211.107C160.448 201.458 168.633 201.265 172.482 202.374L177.241 204.19M170.462 224.915C170.676 217.359 172.66 207.553 177.241 204.19" stroke="#C85210" stroke-width="3" stroke-linecap="round"/>
<line y1="61" x2="489" y2="61" stroke="white" stroke-width="4"/>
<circle cx="48" cy="31" r="10" stroke="white" stroke-width="4"/>
<circle cx="84" cy="31" r="10" stroke="white" stroke-width="4"/>
<circle cx="120" cy="31" r="10" stroke="white" stroke-width="4"/>
</svg>
