<svg width="252" height="148" viewBox="0 0 252 148" fill="none" xmlns="http://www.w3.org/2000/svg">
<g clip-path="url(#clip0_4469_45717)">
<path d="M125.767 1.62629C125.767 1.18447 126.125 0.826027 126.567 0.82885C142.74 0.932178 158.744 4.16763 173.691 10.3591C188.885 16.6527 202.691 25.8773 214.32 37.5063C225.949 49.1353 235.174 62.9409 241.467 78.135C247.659 93.0825 250.894 109.086 250.997 125.26C251 125.701 250.642 126.06 250.2 126.06L239.277 126.06C238.835 126.06 238.477 125.701 238.474 125.26C238.371 110.73 235.459 96.3556 229.897 82.9274C224.233 69.2528 215.931 56.8278 205.465 46.3617C194.999 35.8956 182.573 27.5934 168.899 21.9292C155.471 16.3671 141.096 13.4556 126.567 13.3525C126.125 13.3493 125.767 12.9915 125.767 12.5496L125.767 1.62629Z" fill="#37446B"/>
<path d="M157.972 5.86626C158.087 5.43948 158.526 5.18605 158.952 5.30312C181.364 11.4621 201.625 23.7387 217.463 40.7649C233.3 57.7911 244.081 78.8866 248.605 101.685C248.691 102.118 248.407 102.538 247.973 102.621L237.245 104.679C236.811 104.762 236.392 104.477 236.306 104.044C232.225 83.5555 222.529 64.5985 208.293 49.2944C194.058 33.9903 175.851 22.9501 155.71 17.4C155.284 17.2826 155.031 16.8442 155.145 16.4174L157.972 5.86626Z" fill="#57C3FF"/>
<path d="M157.972 5.86626C158.087 5.43948 158.526 5.18616 158.952 5.30324C190.443 13.9572 217.31 34.5724 233.819 62.7508C234.043 63.132 233.912 63.6221 233.529 63.843L224.069 69.3046C223.687 69.5256 223.197 69.3937 222.974 69.0126C208.125 43.7105 183.994 25.194 155.711 17.4001C155.285 17.2827 155.031 16.8442 155.145 16.4174L157.972 5.86626Z" fill="#9A91FB"/>
<path d="M1.3332 126.06C0.891375 126.06 0.532937 125.701 0.535759 125.259C0.656732 106.324 5.07014 87.6594 13.4482 70.6704C21.9442 53.4421 34.2896 38.3992 49.5293 26.7054C64.7691 15.0115 82.4946 6.98016 101.335 3.23262C119.913 -0.462875 139.085 0.104957 157.406 4.88888C157.833 5.00051 158.087 5.43948 157.972 5.86626L155.145 16.4174C155.031 16.8442 154.592 17.0971 154.164 16.9858C137.699 12.6988 120.472 12.1946 103.778 15.5153C86.8218 18.8881 70.8688 26.1163 57.1531 36.6408C43.4373 47.1653 32.3265 60.7039 24.68 76.2093C17.1516 91.4755 13.1802 108.245 13.0594 125.26C13.0563 125.701 12.6984 126.06 12.2565 126.06L1.3332 126.06Z" fill="#6C72FF"/>
<path d="M70.6544 115.06H88.0784V111.784H75.2984C75.5144 110.848 75.9584 109.996 76.6304 109.228C77.3264 108.46 78.1424 107.728 79.0784 107.032C80.0384 106.336 81.0224 105.628 82.0304 104.908C83.0384 104.188 83.9744 103.42 84.8384 102.604C85.7264 101.764 86.4344 100.84 86.9624 99.8317C87.5144 98.7997 87.7904 97.6237 87.7904 96.3037C87.7904 94.7917 87.4424 93.4717 86.7464 92.3437C86.0504 91.2157 85.0784 90.3397 83.8304 89.7157C82.5824 89.0917 81.1184 88.7797 79.4384 88.7797C77.6864 88.7797 76.1384 89.1277 74.7944 89.8237C73.4744 90.5197 72.4544 91.4917 71.7344 92.7397C71.0144 93.9877 70.6784 95.4637 70.7264 97.1677H74.3624C74.2664 95.5357 74.6744 94.2637 75.5864 93.3517C76.5224 92.4397 77.7344 91.9837 79.2224 91.9837C80.6384 91.9837 81.7784 92.3917 82.6424 93.2077C83.5064 94.0237 83.9384 95.1157 83.9384 96.4837C83.9384 97.5877 83.6144 98.5717 82.9664 99.4357C82.3424 100.276 81.5264 101.08 80.5184 101.848C79.5104 102.592 78.4304 103.36 77.2784 104.152C76.1504 104.92 75.0824 105.784 74.0744 106.744C73.0664 107.68 72.2384 108.772 71.5904 110.02C70.9664 111.268 70.6544 112.732 70.6544 114.412V115.06ZM100.073 115.384C101.897 115.384 103.481 115.072 104.825 114.448C106.193 113.8 107.249 112.912 107.993 111.784C108.761 110.656 109.145 109.336 109.145 107.824C109.145 106.264 108.761 104.944 107.993 103.864C107.225 102.76 106.133 102.04 104.717 101.704V101.488C105.917 101.08 106.889 100.36 107.633 99.3277C108.377 98.2957 108.749 97.0597 108.749 95.6197C108.749 93.5557 107.981 91.8997 106.445 90.6517C104.909 89.4037 102.857 88.7797 100.289 88.7797C98.5135 88.7797 96.9535 89.1157 95.6095 89.7877C94.2895 90.4597 93.2575 91.4197 92.5135 92.6677C91.7935 93.8917 91.4335 95.3317 91.4335 96.9877H95.0695C95.0935 95.4757 95.5375 94.2637 96.4015 93.3517C97.2895 92.4397 98.5375 91.9837 100.145 91.9837C101.585 91.9837 102.737 92.3437 103.601 93.0637C104.489 93.7597 104.933 94.7557 104.933 96.0517C104.933 97.2517 104.537 98.2597 103.745 99.0757C102.977 99.8917 101.849 100.3 100.361 100.3H97.7335V103.144H100.577C101.993 103.144 103.133 103.504 103.997 104.224C104.885 104.944 105.329 106.036 105.329 107.5C105.329 108.916 104.849 110.056 103.889 110.92C102.929 111.76 101.657 112.18 100.073 112.18C98.4655 112.18 97.1815 111.712 96.2215 110.776C95.2855 109.84 94.8295 108.604 94.8535 107.068H91.2175C91.2175 108.724 91.5655 110.176 92.2615 111.424C92.9815 112.672 94.0015 113.644 95.3215 114.34C96.6655 115.036 98.2495 115.384 100.073 115.384ZM112.236 120.784H113.172C114.228 120.736 115.044 120.424 115.62 119.848C116.196 119.272 116.484 118.3 116.484 116.932V111.28H112.812V115.06H114.468V116.716C114.468 117.316 114.336 117.796 114.072 118.156C113.832 118.54 113.4 118.756 112.776 118.804H112.236V120.784ZM129.518 115.348C131.318 115.348 132.89 115 134.234 114.304C135.602 113.608 136.658 112.612 137.402 111.316C138.17 109.996 138.554 108.424 138.554 106.6C138.554 104.872 138.218 103.372 137.546 102.1C136.874 100.828 135.938 99.8437 134.738 99.1477C133.538 98.4277 132.134 98.0677 130.526 98.0677C128.918 98.0677 127.538 98.4397 126.386 99.1837C125.258 99.9037 124.49 100.864 124.082 102.064H123.902C123.926 100.048 124.106 98.2957 124.442 96.8077C124.778 95.2957 125.366 94.1197 126.206 93.2797C127.07 92.4397 128.294 92.0197 129.878 92.0197C131.15 92.0197 132.23 92.3317 133.118 92.9557C134.006 93.5797 134.534 94.4557 134.702 95.5837H138.302C138.086 93.5197 137.246 91.8757 135.782 90.6517C134.318 89.4037 132.35 88.7797 129.878 88.7797C126.686 88.7797 124.262 89.9437 122.606 92.2717C120.974 94.5997 120.158 98.1997 120.158 103.072C120.158 107.104 120.95 110.164 122.534 112.252C124.142 114.316 126.47 115.348 129.518 115.348ZM129.626 112.108C128.042 112.108 126.77 111.628 125.81 110.668C124.85 109.684 124.37 108.34 124.37 106.636C124.37 105.004 124.838 103.648 125.774 102.568C126.71 101.464 128.006 100.912 129.662 100.912C131.222 100.912 132.47 101.416 133.406 102.424C134.342 103.408 134.81 104.752 134.81 106.456C134.81 108.184 134.33 109.564 133.37 110.596C132.434 111.604 131.186 112.108 129.626 112.108ZM154.555 115.06H158.263V108.688H161.791V105.628H158.263V89.1037H153.439L141.811 105.808V108.688H154.555V115.06ZM145.591 105.628L154.555 92.8477V105.628H145.591ZM174.093 115.312C175.965 115.312 177.597 115.024 178.989 114.448C180.405 113.848 181.497 113.02 182.265 111.964C183.057 110.884 183.453 109.612 183.453 108.148C183.453 106.564 182.997 105.196 182.085 104.044C181.197 102.892 179.913 102.22 178.233 102.028V101.848C179.865 101.56 181.065 100.852 181.833 99.7237C182.625 98.5717 183.021 97.2877 183.021 95.8717C183.021 93.7597 182.229 92.0557 180.645 90.7597C179.061 89.4637 176.877 88.8157 174.093 88.8157C171.333 88.8157 169.161 89.4637 167.577 90.7597C165.993 92.0317 165.201 93.7237 165.201 95.8357C165.201 97.2757 165.597 98.5597 166.389 99.6877C167.205 100.816 168.417 101.536 170.025 101.848V102.028C168.345 102.268 167.037 102.976 166.101 104.152C165.189 105.328 164.733 106.672 164.733 108.184C164.733 109.648 165.117 110.92 165.885 112C166.677 113.056 167.781 113.872 169.197 114.448C170.613 115.024 172.245 115.312 174.093 115.312ZM174.093 100.48C172.365 100.48 171.081 100.084 170.241 99.2917C169.425 98.4757 169.017 97.4437 169.017 96.1957C169.017 94.8757 169.461 93.8317 170.349 93.0637C171.261 92.2957 172.509 91.9117 174.093 91.9117C175.653 91.9117 176.901 92.2957 177.837 93.0637C178.773 93.8077 179.241 94.8517 179.241 96.1957C179.241 97.3957 178.833 98.4157 178.017 99.2557C177.201 100.072 175.893 100.48 174.093 100.48ZM174.093 112.108C172.485 112.108 171.189 111.724 170.205 110.956C169.221 110.164 168.729 109.072 168.729 107.68C168.729 106.504 169.161 105.508 170.025 104.692C170.889 103.876 172.245 103.468 174.093 103.468C175.941 103.468 177.297 103.864 178.161 104.656C179.049 105.448 179.493 106.456 179.493 107.68C179.493 109.048 179.001 110.128 178.017 110.92C177.057 111.712 175.749 112.108 174.093 112.108Z" fill="white"/>
<path d="M80.4264 143.762C81.3038 143.762 82.0504 143.603 82.6664 143.286C83.2918 142.969 83.7724 142.521 84.1084 141.942C84.4444 141.354 84.6124 140.659 84.6124 139.856V133.43H83.1004V139.828C83.1004 140.621 82.8811 141.247 82.4424 141.704C82.0038 142.161 81.3364 142.39 80.4404 142.39C79.6191 142.39 78.9704 142.175 78.4944 141.746C78.0184 141.317 77.7804 140.677 77.7804 139.828V133.43H76.2544V139.856C76.2544 140.659 76.4178 141.354 76.7444 141.942C77.0804 142.521 77.5611 142.969 78.1864 143.286C78.8118 143.603 79.5584 143.762 80.4264 143.762ZM89.5365 143.776C90.5072 143.776 91.2725 143.594 91.8325 143.23C92.3925 142.857 92.6725 142.292 92.6725 141.536C92.6725 140.967 92.5418 140.537 92.2805 140.248C92.0285 139.949 91.6878 139.735 91.2585 139.604C90.8292 139.464 90.3578 139.361 89.8445 139.296C89.2192 139.212 88.7572 139.095 88.4585 138.946C88.1692 138.797 88.0245 138.54 88.0245 138.176C88.0245 137.859 88.1552 137.602 88.4165 137.406C88.6778 137.21 89.0512 137.112 89.5365 137.112C90.0125 137.112 90.3905 137.219 90.6705 137.434C90.9505 137.639 91.0952 137.966 91.1045 138.414H92.5185C92.5092 137.695 92.2432 137.131 91.7205 136.72C91.1978 136.3 90.4792 136.09 89.5645 136.09C88.6685 136.09 87.9452 136.286 87.3945 136.678C86.8532 137.061 86.5825 137.607 86.5825 138.316C86.5825 138.82 86.7038 139.212 86.9465 139.492C87.1892 139.772 87.5205 139.982 87.9405 140.122C88.3698 140.262 88.8645 140.374 89.4245 140.458C90.0498 140.551 90.5025 140.673 90.7825 140.822C91.0625 140.971 91.2025 141.251 91.2025 141.662C91.2025 142.007 91.0625 142.278 90.7825 142.474C90.5118 142.661 90.1105 142.754 89.5785 142.754C89.0652 142.754 88.6405 142.642 88.3045 142.418C87.9685 142.185 87.8005 141.816 87.8005 141.312H86.3725C86.3725 142.049 86.6432 142.647 87.1845 143.104C87.7352 143.552 88.5192 143.776 89.5365 143.776ZM97.4601 143.762C98.0481 143.762 98.5754 143.664 99.0421 143.468C99.5181 143.263 99.9054 142.983 100.204 142.628C100.503 142.264 100.685 141.839 100.75 141.354H99.3781C99.2847 141.737 99.0654 142.045 98.7201 142.278C98.3747 142.502 97.9547 142.614 97.4601 142.614C96.8161 142.614 96.2981 142.409 95.9061 141.998C95.5234 141.578 95.3227 140.985 95.3041 140.22H100.792C100.867 139.445 100.787 138.75 100.554 138.134C100.321 137.509 99.9381 137.019 99.4061 136.664C98.8834 136.3 98.2161 136.118 97.4041 136.118C96.6854 136.118 96.0601 136.277 95.5281 136.594C94.9961 136.911 94.5854 137.359 94.2961 137.938C94.0161 138.507 93.8761 139.184 93.8761 139.968C93.8761 140.724 94.0207 141.387 94.3101 141.956C94.5994 142.525 95.0101 142.969 95.5421 143.286C96.0834 143.603 96.7227 143.762 97.4601 143.762ZM97.3901 137.252C97.9407 137.252 98.4027 137.406 98.7761 137.714C99.1587 138.022 99.3594 138.517 99.3781 139.198H95.3321C95.3881 138.591 95.5981 138.115 95.9621 137.77C96.3354 137.425 96.8114 137.252 97.3901 137.252ZM102.351 143.636H103.779V139.408C103.816 138.801 104.017 138.335 104.381 138.008C104.745 137.672 105.253 137.504 105.907 137.504C105.991 137.504 106.07 137.504 106.145 137.504C106.229 137.504 106.299 137.509 106.355 137.518V136.16C106.289 136.151 106.219 136.146 106.145 136.146C106.079 136.137 106.005 136.132 105.921 136.132C105.435 136.132 104.997 136.249 104.605 136.482C104.213 136.715 103.937 137.07 103.779 137.546H103.709L103.639 136.23H102.351V143.636ZM110.236 143.776C111.206 143.776 111.972 143.594 112.532 143.23C113.092 142.857 113.372 142.292 113.372 141.536C113.372 140.967 113.241 140.537 112.98 140.248C112.728 139.949 112.387 139.735 111.958 139.604C111.528 139.464 111.057 139.361 110.544 139.296C109.918 139.212 109.456 139.095 109.158 138.946C108.868 138.797 108.724 138.54 108.724 138.176C108.724 137.859 108.854 137.602 109.116 137.406C109.377 137.21 109.75 137.112 110.236 137.112C110.712 137.112 111.09 137.219 111.37 137.434C111.65 137.639 111.794 137.966 111.804 138.414H113.218C113.208 137.695 112.942 137.131 112.42 136.72C111.897 136.3 111.178 136.09 110.264 136.09C109.368 136.09 108.644 136.286 108.094 136.678C107.552 137.061 107.282 137.607 107.282 138.316C107.282 138.82 107.403 139.212 107.646 139.492C107.888 139.772 108.22 139.982 108.64 140.122C109.069 140.262 109.564 140.374 110.124 140.458C110.749 140.551 111.202 140.673 111.482 140.822C111.762 140.971 111.902 141.251 111.902 141.662C111.902 142.007 111.762 142.278 111.482 142.474C111.211 142.661 110.81 142.754 110.278 142.754C109.764 142.754 109.34 142.642 109.004 142.418C108.668 142.185 108.5 141.816 108.5 141.312H107.072C107.072 142.049 107.342 142.647 107.884 143.104C108.434 143.552 109.218 143.776 110.236 143.776ZM122.188 143.762C123.093 143.762 123.821 143.435 124.372 142.782C124.932 142.129 125.212 141.181 125.212 139.94C125.212 138.699 124.932 137.751 124.372 137.098C123.821 136.435 123.093 136.104 122.188 136.104C121.562 136.104 121.03 136.253 120.592 136.552C120.153 136.841 119.845 137.219 119.668 137.686H119.584V133.43H118.142V143.636H119.528L119.584 142.18H119.668C119.845 142.656 120.153 143.039 120.592 143.328C121.03 143.617 121.562 143.762 122.188 143.762ZM121.684 142.572C121.226 142.572 120.844 142.469 120.536 142.264C120.228 142.049 119.994 141.774 119.836 141.438C119.677 141.093 119.598 140.729 119.598 140.346V139.52C119.598 139.137 119.677 138.778 119.836 138.442C119.994 138.097 120.228 137.821 120.536 137.616C120.844 137.401 121.226 137.294 121.684 137.294C122.3 137.294 122.794 137.518 123.168 137.966C123.541 138.405 123.728 139.063 123.728 139.94C123.728 140.808 123.541 141.466 123.168 141.914C122.794 142.353 122.3 142.572 121.684 142.572ZM126.033 145.974H127.069C127.647 145.974 128.128 145.853 128.511 145.61C128.903 145.367 129.215 144.924 129.449 144.28L132.529 136.23H131.003L129.407 140.738L129.113 141.62H129.057L128.749 140.738L127.055 136.23H125.473L128.385 143.104L128.063 143.93C127.941 144.219 127.787 144.434 127.601 144.574C127.414 144.714 127.157 144.784 126.831 144.784H126.033V145.974ZM139.146 143.762C139.771 143.762 140.303 143.617 140.742 143.328C141.181 143.029 141.489 142.642 141.666 142.166H141.75L141.806 143.636H143.192V133.43H141.75V137.686H141.666C141.489 137.21 141.181 136.827 140.742 136.538C140.303 136.249 139.771 136.104 139.146 136.104C138.241 136.104 137.508 136.431 136.948 137.084C136.397 137.737 136.122 138.685 136.122 139.926C136.122 141.167 136.397 142.119 136.948 142.782C137.508 143.435 138.241 143.762 139.146 143.762ZM139.65 142.572C139.034 142.572 138.539 142.348 138.166 141.9C137.793 141.452 137.606 140.794 137.606 139.926C137.606 139.049 137.793 138.391 138.166 137.952C138.539 137.504 139.034 137.28 139.65 137.28C140.107 137.28 140.49 137.387 140.798 137.602C141.106 137.817 141.339 138.092 141.498 138.428C141.657 138.764 141.736 139.123 141.736 139.506V140.346C141.736 140.729 141.657 141.093 141.498 141.438C141.339 141.774 141.106 142.049 140.798 142.264C140.49 142.469 140.107 142.572 139.65 142.572ZM148.292 143.762C148.88 143.762 149.407 143.664 149.874 143.468C150.35 143.263 150.737 142.983 151.036 142.628C151.335 142.264 151.517 141.839 151.582 141.354H150.21C150.117 141.737 149.897 142.045 149.552 142.278C149.207 142.502 148.787 142.614 148.292 142.614C147.648 142.614 147.13 142.409 146.738 141.998C146.355 141.578 146.155 140.985 146.136 140.22H151.624C151.699 139.445 151.619 138.75 151.386 138.134C151.153 137.509 150.77 137.019 150.238 136.664C149.715 136.3 149.048 136.118 148.236 136.118C147.517 136.118 146.892 136.277 146.36 136.594C145.828 136.911 145.417 137.359 145.128 137.938C144.848 138.507 144.708 139.184 144.708 139.968C144.708 140.724 144.853 141.387 145.142 141.956C145.431 142.525 145.842 142.969 146.374 143.286C146.915 143.603 147.555 143.762 148.292 143.762ZM148.222 137.252C148.773 137.252 149.235 137.406 149.608 137.714C149.991 138.022 150.191 138.517 150.21 139.198H146.164C146.22 138.591 146.43 138.115 146.794 137.77C147.167 137.425 147.643 137.252 148.222 137.252ZM154.629 143.636H156.393L159.025 136.23H157.471L155.987 140.794L155.539 142.39H155.483L155.007 140.794L153.523 136.23H151.969L154.629 143.636ZM159.991 135.096H161.433V133.43H159.991V135.096ZM159.991 143.636H161.433V136.23H159.991V143.636ZM166.531 143.762C167.147 143.762 167.697 143.65 168.183 143.426C168.668 143.193 169.055 142.871 169.345 142.46C169.634 142.04 169.797 141.55 169.835 140.99H168.435C168.379 141.457 168.183 141.835 167.847 142.124C167.511 142.413 167.072 142.558 166.531 142.558C165.887 142.558 165.369 142.334 164.977 141.886C164.594 141.429 164.403 140.785 164.403 139.954C164.403 139.161 164.589 138.526 164.963 138.05C165.336 137.565 165.863 137.322 166.545 137.322C167.021 137.322 167.427 137.448 167.763 137.7C168.108 137.943 168.323 138.307 168.407 138.792H169.807C169.769 138.26 169.606 137.793 169.317 137.392C169.037 136.991 168.659 136.678 168.183 136.454C167.716 136.23 167.184 136.118 166.587 136.118C165.849 136.118 165.205 136.277 164.655 136.594C164.104 136.911 163.679 137.359 163.381 137.938C163.082 138.507 162.933 139.175 162.933 139.94C162.933 140.705 163.082 141.377 163.381 141.956C163.679 142.525 164.099 142.969 164.641 143.286C165.182 143.603 165.812 143.762 166.531 143.762ZM174.378 143.762C174.966 143.762 175.493 143.664 175.96 143.468C176.436 143.263 176.823 142.983 177.122 142.628C177.421 142.264 177.603 141.839 177.668 141.354H176.296C176.203 141.737 175.983 142.045 175.638 142.278C175.293 142.502 174.873 142.614 174.378 142.614C173.734 142.614 173.216 142.409 172.824 141.998C172.441 141.578 172.241 140.985 172.222 140.22H177.71C177.785 139.445 177.705 138.75 177.472 138.134C177.239 137.509 176.856 137.019 176.324 136.664C175.801 136.3 175.134 136.118 174.322 136.118C173.603 136.118 172.978 136.277 172.446 136.594C171.914 136.911 171.503 137.359 171.214 137.938C170.934 138.507 170.794 139.184 170.794 139.968C170.794 140.724 170.939 141.387 171.228 141.956C171.517 142.525 171.928 142.969 172.46 143.286C173.001 143.603 173.641 143.762 174.378 143.762ZM174.308 137.252C174.859 137.252 175.321 137.406 175.694 137.714C176.077 138.022 176.277 138.517 176.296 139.198H172.25C172.306 138.591 172.516 138.115 172.88 137.77C173.253 137.425 173.729 137.252 174.308 137.252Z" fill="#7E89AC"/>
</g>
<defs>
<clipPath id="clip0_4469_45717">
<rect width="252" height="148" fill="white"/>
</clipPath>
</defs>
</svg>
