<svg width="256" height="256" viewBox="0 0 256 256" fill="none" xmlns="http://www.w3.org/2000/svg">
<g clip-path="url(#clip0_4444_42509)">
<path fill-rule="evenodd" clip-rule="evenodd" d="M93.4602 1.52588e-05C88.9718 1.52588e-05 85.3332 3.6386 85.3332 8.12701V85.3333C38.205 85.3334 0 123.538 0 170.667C0 217.795 38.205 256 85.3333 256H162.54C167.028 256 170.667 252.361 170.667 247.873L170.667 170.667C217.795 170.667 256 132.462 256 85.3333C256 38.2051 217.795 1.52588e-05 170.667 1.52588e-05H93.4602ZM170.667 170.667L170.667 93.4603C170.667 88.9719 167.028 85.3333 162.54 85.3333H85.3333C85.3333 85.3333 85.3333 85.3333 85.3332 85.3333V162.54C85.3332 167.028 88.9718 170.667 93.4602 170.667H170.667Z" fill="#6C72FF"/>
<path d="M92.5449 1.52588e-05C88.5623 1.52588e-05 85.3337 3.2286 85.3337 7.21128L85.3337 85.3333H163.456C167.438 85.3333 170.667 88.5619 170.667 92.5446L170.667 170.667C217.795 170.667 256 132.462 256 85.3333C256 38.205 217.795 1.52588e-05 170.667 1.52588e-05H92.5449Z" fill="#57C3FF"/>
</g>
<defs>
<clipPath id="clip0_4444_42509">
<rect width="256" height="256" fill="white"/>
</clipPath>
</defs>
</svg>
