<svg width="256" height="36" viewBox="0 0 256 36" fill="none" xmlns="http://www.w3.org/2000/svg">
<g clip-path="url(#clip0_4506_52781)">
<mask id="mask0_4506_52781" style="mask-type:luminance" maskUnits="userSpaceOnUse" x="0" y="0" width="139" height="36">
<path d="M138.697 0.580078H0V35.4194H138.697V0.580078Z" fill="white"/>
</mask>
<g mask="url(#mask0_4506_52781)">
<path d="M44.7463 14.2847C44.7463 11.8079 42.2695 9.16608 38.1416 9.16608C33.5184 9.16608 28.2347 12.6335 27.4091 19.5683C26.5836 26.5032 30.8766 29.6404 35.3347 29.6404C39.7928 29.6404 41.9393 27.9892 44.2509 25.6776C42.2695 23.2009 39.6277 24.3567 39.1323 24.5218C38.637 24.852 37.8114 25.1823 36.4905 25.1823C34.8393 25.1823 33.0231 24.3567 33.0231 21.2195C43.9207 20.0637 44.7463 16.7614 44.7463 14.2847ZM39.4626 14.6149C39.4626 15.4405 39.1323 16.7614 33.6835 17.4218C34.8393 13.294 36.9858 12.9637 37.9765 12.9637C38.9672 13.1288 39.4626 13.7893 39.4626 14.6149ZM21.1348 15.2753C21.1348 15.2753 18.8231 22.5404 18.658 23.2009C18.658 22.5404 16.8418 9.49631 16.8418 9.49631C12.879 9.49631 10.7325 12.3033 9.7418 15.2753C9.7418 15.2753 6.93484 22.5404 6.76973 23.2009C6.60461 22.7055 6.27438 15.4405 6.27438 15.4405C5.94415 11.8079 2.64185 9.49631 0 9.49631L3.30231 29.3101C7.43019 29.3101 9.7418 26.5032 10.8976 23.5311C10.8976 23.5311 13.3743 17.0916 13.5395 16.7614C13.5395 17.0916 15.3557 29.3101 15.3557 29.3101C19.4836 29.3101 21.7952 26.6683 22.951 23.8613L28.7301 9.49631C24.4371 9.49631 22.2906 12.3033 21.1348 15.2753ZM60.102 9.00096C57.6253 9.00096 55.6439 10.3219 53.9927 12.4684L55.3136 0.580078C51.8462 0.580078 49.2044 3.55215 48.5439 7.84515L45.9021 29.145C47.8834 29.145 49.8648 28.6497 51.0206 27.1636C52.0113 28.4846 53.4974 29.4753 55.6439 29.4753C61.4229 29.4753 65.3857 22.8706 65.3857 16.5963C65.5508 10.8172 62.7438 9.00096 60.102 9.00096ZM59.4415 19.2381C58.7811 22.7055 56.9648 25.0171 54.9834 25.0171C53.1671 25.0171 52.3416 24.1916 52.3416 24.1916C52.6718 21.2195 53.002 19.2381 53.6625 17.587C54.3229 15.9358 55.9741 13.4591 57.6253 13.4591C59.2764 13.6242 60.102 15.7707 59.4415 19.2381ZM79.9158 9.49631H75.9531V9.33119C76.2833 6.68935 76.7786 5.36842 78.9251 5.20331C80.2461 5.03819 80.9065 4.37773 81.0716 3.55215C81.2367 2.89169 81.567 0.745193 81.567 0.745193C73.4763 0.745193 70.9996 4.21262 70.3391 9.49631V9.66142H70.174C68.8531 9.66142 67.3671 11.1475 67.2019 12.9637L67.0368 13.6242H69.6787L67.3671 32.1171L66.7066 35.4194C66.8717 35.4194 66.8717 35.4194 67.0368 35.4194C70.8345 35.2543 73.1461 32.2822 73.8066 27.9892L75.6228 13.4591H76.9437C78.0995 13.4591 79.5856 12.3033 79.9158 10.1568V9.49631ZM100.72 9.16608C96.0971 9.16608 91.8041 12.6335 90.4832 17.9172C89.1623 23.2009 91.1437 29.6404 97.9134 29.6404C104.683 29.6404 108.646 23.0358 108.646 17.587C108.481 12.1382 104.848 9.16608 100.72 9.16608ZM102.537 19.073C102.372 21.5497 101.216 25.1823 98.2436 25.1823C95.2715 25.1823 95.7669 20.8893 95.932 18.9079C96.2622 16.7614 97.418 13.6242 100.06 13.6242C102.537 13.6242 102.867 16.4311 102.537 19.073ZM131.432 15.2753C131.432 15.2753 129.12 22.5404 128.955 23.2009C128.955 22.5404 127.139 9.49631 127.139 9.49631C123.176 9.49631 121.03 12.3033 120.039 15.2753C120.039 15.2753 117.232 22.5404 117.067 23.2009C117.067 22.7055 116.571 15.4405 116.571 15.4405C116.406 11.8079 112.939 9.66142 110.297 9.66142L113.599 29.4753C117.727 29.4753 120.039 26.6683 121.195 23.6962C121.195 23.6962 123.671 17.2567 123.836 16.9265C123.836 17.2567 125.653 29.4753 125.653 29.4753C129.781 29.4753 132.092 26.8334 133.248 24.0265L138.697 9.49631C134.569 9.49631 132.422 12.3033 131.432 15.2753ZM83.7135 0.745193L80.4112 27.8241L79.7507 31.1264C79.9158 31.1264 79.9158 31.1264 80.0809 31.1264C83.7135 31.1264 86.3553 27.8241 86.6855 23.8613L88.6669 8.3405C89.1623 3.71727 86.1902 0.745193 83.7135 0.745193Z" fill="white"/>
</g>
<path d="M153.866 24.9265V8.16331H156.699C162.452 8.16331 164.789 11.551 164.789 16.3697V16.6033C164.789 21.714 162.102 24.9265 156.728 24.9265H153.866ZM151.326 27H156.787C164.088 27 167.417 22.4149 167.417 16.6325V16.3697C167.417 10.558 164.029 6.11901 156.845 6.11901H151.326V27ZM177.735 27.2628C181.181 27.2628 183.722 25.6566 184.247 22.5902H181.823C181.502 24.3716 180.129 25.2477 177.764 25.2477C174.639 25.2477 172.974 23.3203 172.858 19.845H184.364V19.0565C184.364 13.5953 181.035 11.4634 177.501 11.4634C173.296 11.4634 170.346 14.6758 170.346 19.2901V19.5237C170.346 24.2256 173.412 27.2628 177.735 27.2628ZM172.945 17.8883C173.354 15.1723 175.019 13.4785 177.501 13.4785C180.013 13.4785 181.648 14.7342 181.882 17.8883H172.945ZM191.767 27H194.862L200.353 11.7262H197.841L193.373 24.5468L188.846 11.7262H186.218L191.767 27ZM203.716 27H215.807V24.9265H206.257V6.11901H203.716V27ZM219.228 27H221.652V11.7262H219.228V27ZM220.396 8.54296C221.273 8.54296 222.003 7.81286 222.003 6.93673C222.003 6.06061 221.273 5.3305 220.396 5.3305C219.52 5.3305 218.79 6.06061 218.79 6.93673C218.79 7.81286 219.52 8.54296 220.396 8.54296ZM226.614 27H229.037V17.7423C229.037 14.9971 231.053 13.5661 233.301 13.5661C235.754 13.5661 236.893 14.7634 236.893 17.4502V27H239.317V17.6255C239.317 13.1864 237.098 11.4634 233.944 11.4634C231.432 11.4634 229.738 12.7192 229.037 14.1502V11.7262H226.614V27ZM244.068 27H246.492V19.0857L253.267 27H256.217L249.12 18.8228L255.662 11.7262H252.829L246.492 18.7644V4.42517H244.068V27Z" fill="white"/>
</g>
<defs>
<clipPath id="clip0_4506_52781">
<rect width="256" height="36" fill="white"/>
</clipPath>
</defs>
</svg>
