<svg width="119" height="30" viewBox="0 0 119 30" fill="none" xmlns="http://www.w3.org/2000/svg">
<path d="M38.4251 11.7314C38.4251 9.59174 36.3493 7.31923 32.757 7.31923C28.7231 7.31923 24.2917 10.2853 23.6145 16.2027C22.9226 22.179 26.6326 24.8352 30.372 24.8352C34.1115 24.8352 36.0695 23.3743 38.0718 21.4265C36.3493 19.2573 34.1262 20.2607 33.6992 20.482C33.2281 20.7182 32.6245 21.0428 31.3878 21.0428C29.9451 21.0428 28.4728 20.3935 28.4728 17.6931C37.7184 16.7782 38.4251 13.8711 38.4251 11.7314ZM33.8465 12.0856C33.7876 12.7496 33.5226 13.8859 28.8409 14.5204C29.8273 11.0084 31.7117 10.7427 32.5804 10.7427C33.3901 10.7427 33.9054 11.3773 33.8465 12.0856ZM18.182 12.6611C18.182 12.6611 16.1945 18.9179 16.0325 19.4343C15.9736 18.9031 14.5161 7.67339 14.5161 7.67339C11.13 7.67339 9.31919 10.0935 8.36224 12.6463C8.36224 12.6463 5.94779 18.9179 5.74168 19.4491C5.72696 18.9621 5.37362 12.7201 5.37362 12.7201C5.16751 9.59174 2.31139 7.68815 0 7.68815L2.79723 24.7024C6.34529 24.6877 8.25919 22.2823 9.2603 19.7295C9.2603 19.7295 11.395 14.1958 11.4834 13.9449C11.4981 14.181 13.0145 24.7024 13.0145 24.7024C16.5773 24.7024 18.4912 22.4447 19.5217 19.9803L24.5126 7.68815C20.9939 7.68815 19.1389 10.0935 18.182 12.6611ZM51.4985 7.28972C49.3048 7.28972 47.6265 8.485 46.2132 10.241V10.2263L47.4793 0C44.5643 0 42.194 2.53812 41.7376 6.31579L39.5293 24.5696C41.2076 24.5696 42.989 24.0826 43.9459 22.8431C44.7998 23.9498 46.0807 24.8352 47.9798 24.8352C52.8971 24.8352 56.2685 19.1097 56.2685 13.7383C56.239 8.83915 53.8687 7.28972 51.4985 7.28972ZM51.0421 16.0698C50.5268 19.0654 48.8632 21.1018 47.2584 21.1018C45.639 21.1018 44.947 20.3788 44.947 20.3788C45.2562 17.7521 45.4476 16.1436 46.0365 14.7565C46.6254 13.3694 48.024 11.1559 49.4815 11.1559C50.9096 11.1559 51.5573 13.0595 51.0421 16.0698ZM68.5468 7.68815H65.1165L65.1313 7.51107C65.3668 5.26808 65.8968 4.08756 67.6488 3.89572C68.8413 3.77767 69.3713 3.15789 69.5038 2.47909C69.6068 1.94786 69.9307 0.103296 69.9307 0.103296C63.0407 0.0590261 60.8765 3.03984 60.3171 7.58485L60.3024 7.68815H60.2288C59.1099 7.68815 57.8732 8.95721 57.6671 10.5657L57.5935 11.1559H59.8901L57.9615 27.1225L57.3726 29.9852C57.4462 29.9852 57.5346 30 57.6082 30C60.8324 29.8819 62.8935 27.3291 63.3499 23.6252L64.8515 11.1559H65.9263C66.9863 11.1559 68.2229 10.0935 68.4438 8.32268L68.5468 7.68815ZM86.3902 7.39301C82.4299 7.39301 78.6905 10.3148 77.5421 14.9041C76.3938 19.4934 78.131 24.9238 83.961 24.9238C89.7763 24.9238 93.133 19.272 93.133 14.5647C93.133 9.88687 89.9677 7.39301 86.3902 7.39301ZM87.9949 15.9223C87.7888 18.003 86.876 21.1608 84.3732 21.1608C81.8557 21.1608 82.2091 17.4717 82.4594 15.7157C82.7244 13.8416 83.7696 11.1707 86.0221 11.1707C88.0391 11.1707 88.2305 13.576 87.9949 15.9223ZM112.699 12.6611C112.699 12.6611 110.711 18.9179 110.549 19.4343C110.491 18.9031 109.033 7.67339 109.033 7.67339C105.647 7.67339 103.836 10.0935 102.879 12.6463C102.879 12.6463 100.465 18.9179 100.259 19.4491C100.244 18.9621 99.8905 12.7201 99.8905 12.7201C99.6844 9.59174 96.8283 7.68815 94.5169 7.68815L97.2994 24.7024C100.847 24.6877 102.761 22.2823 103.762 19.7295C103.762 19.7295 105.897 14.1958 105.971 13.9449C106 14.181 107.502 24.7024 107.502 24.7024C111.065 24.7024 112.979 22.4447 114.009 19.9803L119 7.68815C115.496 7.68815 113.641 10.0935 112.699 12.6611ZM71.7857 0.103296L68.9002 23.4333L68.3113 26.3109C68.3849 26.3109 68.4732 26.3256 68.5468 26.3256C71.6532 26.2814 73.8616 23.5514 74.2738 20.1131L75.9374 6.72897C76.438 2.64142 74.0088 0.103296 71.7857 0.103296Z" fill="black"/>
</svg>
