<svg width="119" height="54" viewBox="0 0 119 54" fill="none" xmlns="http://www.w3.org/2000/svg">
<g clip-path="url(#clip0)">
<path d="M71.4079 23.484H68.4417C68.3807 23.2435 68.3353 22.9645 68.305 22.6478C68.2446 22.0315 68.2446 21.4107 68.305 20.7944C68.3353 20.4784 68.3807 20.1997 68.4417 19.9577H75.8339V43.1501C75.4639 43.2139 75.0908 43.2589 74.7161 43.285C74.3439 43.3133 73.9707 43.3283 73.5975 43.3298C73.2399 43.3276 72.8825 43.3126 72.526 43.285C72.1514 43.2587 71.7785 43.2135 71.4086 43.1494V23.4831V23.4835L71.4079 23.484ZM97.1421 29.3165C97.1421 28.4723 97.0278 27.6663 96.8003 26.8971C96.5718 26.1291 96.2363 25.4587 95.7964 24.8856C95.3545 24.3136 94.7921 23.8535 94.1076 23.5071C93.4233 23.1605 92.6094 22.9869 91.6664 22.9869C89.811 22.9869 88.3887 23.5453 87.4003 24.66C86.4116 25.7749 85.8111 27.327 85.5979 29.3165H97.1423H97.1421ZM85.5524 32.6616C85.6134 35.1933 86.275 37.0472 87.5373 38.222C88.7992 39.3973 90.6628 39.9858 93.1268 39.9858C95.2859 39.9858 97.3394 39.6085 99.2862 38.8551C99.529 39.3072 99.7265 39.8573 99.8788 40.5053C100.028 41.1362 100.12 41.7792 100.153 42.4265C99.1494 42.8495 98.0458 43.1645 96.845 43.3761C95.6427 43.5864 94.312 43.6925 92.8528 43.6925C90.7227 43.6925 88.8973 43.3977 87.3772 42.8106C85.8559 42.2222 84.6011 41.3934 83.6125 40.324C82.6241 39.2544 81.9013 37.9883 81.445 36.5263C80.989 35.065 80.7603 33.4599 80.7603 31.7118C80.7603 29.9939 80.9807 28.3888 81.4219 26.8966C81.8622 25.4056 82.5405 24.1094 83.4521 23.0093C84.3651 21.9088 85.5132 21.0351 86.8974 20.3871C88.2809 19.7391 89.9157 19.4147 91.8026 19.4147C93.4145 19.4147 94.8289 19.6863 96.0461 20.2287C97.2623 20.771 98.2816 21.5171 99.1032 22.4665C99.9243 23.4161 100.548 24.5463 100.974 25.8567C101.399 27.1683 101.613 28.5921 101.613 30.1295C101.613 30.5516 101.597 30.9959 101.567 31.4628C101.542 31.8625 101.511 32.2618 101.476 32.6607H85.5515L85.552 32.6614L85.5524 32.6616ZM106.589 19.9577C106.907 19.9006 107.226 19.8555 107.547 19.8224C107.851 19.7929 108.171 19.7776 108.506 19.7776C108.84 19.7776 109.174 19.7929 109.51 19.8224C109.844 19.853 110.148 19.8983 110.422 19.9577C110.513 20.41 110.604 21.0059 110.695 21.7435C110.786 22.4821 110.833 23.1069 110.833 23.6196C111.471 22.5952 112.315 21.7055 113.364 20.9519C114.414 20.199 115.76 19.8217 117.402 19.8217C117.646 19.8217 117.896 19.8297 118.155 19.8448C118.376 19.8566 118.598 19.8787 118.817 19.912C118.877 20.1836 118.924 20.4704 118.954 20.7713C118.984 21.0724 118.999 21.3891 118.999 21.7204C118.999 22.0824 118.976 22.4594 118.931 22.8504C118.887 23.2283 118.834 23.6051 118.772 23.9804C118.525 23.9202 118.272 23.8899 118.018 23.8901H117.402C116.581 23.8901 115.797 24.0033 115.052 24.2289C114.306 24.4553 113.637 24.8548 113.044 25.4268C112.452 25.9998 111.98 26.7837 111.631 27.7783C111.28 28.7729 111.106 30.0538 111.106 31.6208V43.1494C110.735 43.2131 110.362 43.2586 109.987 43.2848C109.577 43.315 109.204 43.3296 108.87 43.3296C108.497 43.3281 108.124 43.3132 107.752 43.2848C107.362 43.2567 106.974 43.2116 106.588 43.1497V19.958L106.589 19.9577ZM74.5654 7.57404C74.5654 8.11515 74.4668 8.65182 74.2743 9.1582C73.7631 9.34894 73.2213 9.44672 72.675 9.44683H72.6683C72.122 9.4469 71.5802 9.3492 71.0689 9.15844C70.8761 8.65197 70.7773 8.11511 70.7774 7.57381V7.56673C70.7774 7.00905 70.8807 6.47494 71.0677 5.9821C71.5791 5.79107 72.1211 5.69336 72.6676 5.69371H72.6738C73.2369 5.69371 73.7757 5.79605 74.2731 5.9821C74.4659 6.48859 74.5645 7.02545 74.5642 7.56673V7.57381H74.5649L74.5654 7.57404ZM80.1408 6.31954H75.7197L78.8456 3.22221C78.354 2.53824 77.7506 1.94049 77.0601 1.45365L73.9337 4.55098V0.170381C73.518 0.101097 73.0972 0.066156 72.6757 0.065918H72.6676C72.2387 0.065918 71.8186 0.102232 71.4093 0.170381V4.55098L68.2822 1.45341C67.9378 1.69626 67.6146 1.96729 67.3159 2.26365L67.3145 2.26506C67.0158 2.5612 66.7425 2.88143 66.4974 3.22244L69.6245 6.31954H65.2025C65.2025 6.31954 65.0973 7.14251 65.0973 7.56791V7.5731C65.0973 7.9985 65.1337 8.41541 65.2027 8.82123H69.6247L66.4972 11.9181C66.9891 12.602 67.5926 13.1998 68.2829 13.6871L71.4095 10.59V14.9709C71.8184 15.0388 72.2378 15.0746 72.6662 15.0751H72.6769C73.0979 15.0747 73.5182 15.0398 73.9335 14.9709V10.59L77.0603 13.6878C77.4048 13.4448 77.7282 13.1737 78.0273 12.8776H78.0281C78.3266 12.5811 78.5998 12.2607 78.8449 11.9195L75.719 8.82147H80.141C80.2096 8.41588 80.2457 8.00038 80.2457 7.57593V7.56508C80.2457 7.1477 80.2105 6.7315 80.141 6.32002V6.31954H80.1408ZM0 42.5175L12.3198 23.5293H1.45989C1.36898 22.9869 1.32352 22.3847 1.32352 21.7213C1.32352 21.0887 1.36969 20.5003 1.46084 19.9575H19.0276L19.2561 20.5463L6.84512 39.5788H18.48C18.5711 40.1818 18.6171 40.7991 18.6171 41.4318C18.6171 42.0355 18.5714 42.6078 18.4802 43.1501H0.22848L0 42.5168V42.5175ZM35.5443 32.2544C35.0881 32.1947 34.51 32.1351 33.8105 32.074C33.1108 32.0144 32.5177 31.9837 32.0317 31.9837C30.1453 31.9837 28.708 32.3303 27.7201 33.0236C26.7307 33.7174 26.2374 34.7717 26.2374 36.1882C26.2374 37.0922 26.404 37.8006 26.7388 38.3128C27.073 38.8259 27.4916 39.2169 27.9936 39.4883C28.4957 39.7595 29.0503 39.9255 29.6584 39.9858C30.2665 40.046 30.8448 40.0759 31.3922 40.0759C32.0919 40.0759 32.8143 40.0382 33.5597 39.9627C34.3046 39.888 34.9662 39.7746 35.5446 39.6239V32.2544H35.5443ZM35.5443 27.8698C35.5443 26.0909 35.0881 24.8552 34.1758 24.1619C33.2629 23.4687 31.9398 23.122 30.206 23.122C29.1405 23.122 28.1449 23.2055 27.2174 23.371C26.2996 23.5343 25.3927 23.753 24.5019 24.0259C23.9235 23.0312 23.6355 21.8416 23.6355 20.4543C24.6685 20.1233 25.809 19.8672 27.0568 19.6863C28.3039 19.5052 29.5053 19.4147 30.6618 19.4147C33.7034 19.4147 36.0151 20.1009 37.5971 21.4721C39.1784 22.8445 39.97 25.0368 39.97 28.0502V42.5623C38.9047 42.8033 37.6123 43.0518 36.0915 43.3081C34.5538 43.5654 32.9969 43.694 31.4374 43.6925C29.9471 43.6925 28.6005 43.5574 27.3995 43.286C26.1976 43.0141 25.1785 42.5781 24.3422 41.9744C23.5049 41.3722 22.8594 40.6034 22.4025 39.6694C21.9465 38.7349 21.7182 37.6049 21.7182 36.2785C21.7182 34.9829 21.9843 33.8449 22.5167 32.8649C23.0399 31.8966 23.7817 31.0612 24.6844 30.4238C25.5969 29.7768 26.6462 29.2938 27.8327 28.9779C29.0193 28.6612 30.266 28.5027 31.574 28.5027C32.5475 28.5027 33.3459 28.5258 33.9697 28.5711C34.5928 28.6159 35.1178 28.6687 35.5439 28.7291V27.87L35.5443 27.8698ZM49.415 39.3517C49.991 39.5626 50.5874 39.7141 51.1948 39.804C51.8031 39.8948 52.5932 39.9399 53.5676 39.9399C54.6624 39.9399 55.6658 39.767 56.5783 39.4204C57.4913 39.0744 58.2743 38.5389 58.9283 37.8152C59.5823 37.0922 60.0993 36.1811 60.4796 35.0799C60.8597 33.9805 61.0503 32.6774 61.0503 31.1697C61.0503 28.7588 60.601 26.845 59.7042 25.4282C58.8062 24.012 57.3385 23.3036 55.3012 23.3036C54.5408 23.3036 53.8101 23.439 53.1116 23.7106C52.4109 23.9818 51.7878 24.3888 51.2402 24.9312C50.6928 25.4735 50.2518 26.1597 49.9174 26.9883C49.5818 27.8179 49.4152 28.8041 49.4152 29.9496V39.3525V39.352L49.415 39.3517ZM44.8977 19.9573C45.2071 19.8969 45.5189 19.8519 45.8331 19.8219C46.1593 19.792 46.4867 19.777 46.8144 19.7771C47.1176 19.7771 47.4367 19.7927 47.7721 19.8219C48.1062 19.8526 48.4256 19.8981 48.7303 19.9575C48.7602 20.0188 48.7988 20.2063 48.8445 20.523C48.8897 20.8397 48.9354 21.1785 48.9813 21.5398C49.027 21.9017 49.0725 22.2491 49.1182 22.5797C49.1639 22.9117 49.1867 23.1227 49.1867 23.2131C49.4902 22.7313 49.8555 22.2637 50.2815 21.8117C50.7076 21.3594 51.2176 20.9526 51.8107 20.5913C52.4038 20.2294 53.0726 19.9433 53.8182 19.7321C54.5632 19.5212 55.3921 19.4149 56.3048 19.4149C57.6733 19.4149 58.9436 19.6413 60.1152 20.0936C61.2857 20.5463 62.2889 21.2459 63.1259 22.1955C63.962 23.1451 64.6158 24.3508 65.0878 25.8121C65.559 27.2751 65.7946 29.0003 65.7946 30.9891C65.7946 34.9671 64.707 38.0798 62.5316 40.3247C60.3563 42.5703 57.2773 43.6925 53.2925 43.6925C52.623 43.6925 51.939 43.6472 51.2393 43.5569C50.5391 43.4661 49.9312 43.3454 49.4138 43.1954V53.8195C49.0284 53.8817 48.6404 53.9269 48.2509 53.9551C47.8399 53.9846 47.467 53.9999 47.1323 53.9999C46.7594 53.9983 46.3866 53.9834 46.0147 53.9551C45.64 53.9288 45.267 53.8835 44.897 53.8195V19.9575L44.8977 19.9573Z" fill="#FF4A00"/>
</g>
<defs>
<clipPath id="clip0">
<rect width="119" height="54" fill="white"/>
</clipPath>
</defs>
</svg>
