<svg width="173" height="21" viewBox="0 0 173 21" fill="none" xmlns="http://www.w3.org/2000/svg">
<path fill-rule="evenodd" clip-rule="evenodd" d="M18.3628 5.03966C19.6284 6.68046 20.6778 8.52356 21.491 10.5109V0H12.5654C14.7126 1.16006 16.6795 2.85718 18.3628 5.03966Z" fill="#387ED1"/>
<path fill-rule="evenodd" clip-rule="evenodd" d="M5.49534 1.11963C3.84189 1.11963 2.25137 1.47308 0.761719 2.1271V20.7291H20.5787C20.4252 9.88026 13.718 1.11963 5.49534 1.11963Z" fill="#387ED1"/>
<path d="M33.4912 16.6499L44.5639 3.24468H33.8392V0.322266H48.8536V2.76192L37.7809 16.1674H48.8536V19.0895H33.4912V16.6499Z" fill="#387ED1"/>
<path d="M52.9824 0.322266H66.8706V3.29813H56.2534V8.12399H65.6646V11.1001H56.2534V16.1134H67.0043V19.0892H52.9824V0.322266Z" fill="#387ED1"/>
<path d="M70.9456 0.322266H79.3105C80.4901 0.322266 81.5358 0.487783 82.4476 0.818243C83.3588 1.14899 84.1183 1.60905 84.7264 2.19899C85.2266 2.71767 85.6114 3.31623 85.8795 3.99525C86.1476 4.67456 86.2812 5.42543 86.2812 6.24727V6.301C86.2812 7.06968 86.1697 7.76221 85.9465 8.37887C85.7226 8.99554 85.414 9.54095 85.0212 10.0142C84.6278 10.4878 84.1588 10.8904 83.6137 11.2205C83.0686 11.5516 82.4651 11.8062 81.8042 11.9846L86.8712 19.0895H82.9835L78.358 12.5478H78.3045H74.2163V19.0895H70.9453V0.322266H70.9456ZM79.058 9.62543C80.2404 9.62543 81.1824 9.34324 81.8809 8.77744C82.5804 8.21192 82.9304 7.44439 82.9304 6.47514V6.4214C82.9304 5.39842 82.589 4.62169 81.9077 4.09209C81.2269 3.56278 80.2672 3.29784 79.0301 3.29784H74.2163V9.62514H79.058V9.62543Z" fill="#387ED1"/>
<path d="M99.2846 19.4112C97.8367 19.4112 96.5142 19.1566 95.3171 18.6474C94.1194 18.1382 93.0918 17.4457 92.2338 16.5693C91.3757 15.6937 90.7056 14.6707 90.2234 13.4997C89.7401 12.3293 89.499 11.0822 89.499 9.75948V9.70575C89.499 8.38305 89.7404 7.1365 90.2234 5.96552C90.7056 4.79512 91.3847 3.76695 92.2608 2.88218C93.1358 1.99741 94.1729 1.29598 95.3711 0.777586C96.5683 0.259483 97.8907 0 99.3387 0C100.786 0 102.109 0.254598 103.307 0.76408C104.504 1.27328 105.532 1.96638 106.39 2.84195C107.248 3.71782 107.918 4.74109 108.4 5.91178C108.884 7.08247 109.125 8.32931 109.125 9.65172V9.70546C109.125 11.0285 108.883 12.2753 108.4 13.4454C107.918 14.6164 107.239 15.644 106.363 16.5287C105.487 17.4132 104.45 18.1152 103.253 18.6333C102.055 19.1514 100.733 19.4112 99.2846 19.4112ZM99.3384 16.3816C100.264 16.3816 101.114 16.2075 101.888 15.8589C102.662 15.5101 103.325 15.0371 103.877 14.4382C104.428 13.8394 104.86 13.1376 105.171 12.3333C105.483 11.529 105.638 10.671 105.638 9.75977V9.70604C105.638 8.79454 105.483 7.93219 105.171 7.11868C104.86 6.30546 104.423 5.59971 103.863 5.00086C103.302 4.4023 102.631 3.92414 101.847 3.56638C101.064 3.20891 100.21 3.03017 99.2844 3.03017C98.3588 3.03017 97.5091 3.20431 96.7352 3.55287C95.9608 3.90144 95.2979 4.37529 94.7461 4.97385C94.1944 5.57299 93.7628 6.27414 93.4507 7.07845C93.1392 7.88276 92.9838 8.74081 92.9838 9.6523V9.70604C92.9838 10.6175 93.1392 11.4799 93.4507 12.2928C93.7628 13.1069 94.199 13.8126 94.7597 14.4112C95.3203 15.0103 95.9921 15.4882 96.7752 15.8454C97.5588 16.2029 98.4128 16.3816 99.3384 16.3816Z" fill="#387ED1"/>
<path d="M113.118 0.322266H120.116C121.582 0.322266 122.926 0.559335 124.152 1.0329C125.376 1.50646 126.43 2.16336 127.315 3.0033C128.2 3.84353 128.883 4.83117 129.366 5.96623C129.849 7.10129 130.091 8.33031 130.091 9.65273V9.70646C130.091 11.0294 129.849 12.2628 129.366 13.4062C128.883 14.5499 128.2 15.5427 127.315 16.382C126.43 17.2228 125.376 17.8838 124.152 18.3659C122.926 18.8487 121.582 19.0898 120.116 19.0898H113.118V0.322266ZM120.089 16.1136C121.072 16.1136 121.966 15.957 122.77 15.6427C123.575 15.3283 124.259 14.8892 124.821 14.324C125.384 13.7582 125.822 13.0849 126.135 12.3039C126.448 11.5231 126.605 10.6754 126.605 9.75962V9.70589C126.605 8.79037 126.448 7.93807 126.135 7.14842C125.822 6.35847 125.384 5.68117 124.821 5.11566C124.259 4.54985 123.575 4.10589 122.77 3.78261C121.966 3.45962 121.072 3.29784 120.089 3.29784H116.389V16.1134H120.089V16.1136Z" fill="#387ED1"/>
<path d="M134.085 0.322266H137.356V8.12428H146.365V0.322266H149.636V19.0898H146.365V11.1806H137.356V19.0895H134.085V0.322266Z" fill="#387ED1"/>
<path d="M161.11 0.187988H164.166L172.424 19.0894H168.939L167.035 14.5584H158.16L156.23 19.0894H152.852L161.11 0.187988ZM165.829 11.6365L162.584 4.12937L159.367 11.6365H165.829Z" fill="#387ED1"/>
</svg>
